<svg xmlns="http://www.w3.org/2000/svg" width="361" height="354" viewBox="0 0 361 354" version="1.1"><path d="M 177.776 9.733 C 180.128 9.945, 183.728 9.942, 185.776 9.727 C 187.824 9.512, 185.900 9.339, 181.500 9.343 C 177.100 9.346, 175.424 9.522, 177.776 9.733 M 175.272 35 C 175.272 37.475, 175.467 38.487, 175.706 37.250 C 175.944 36.013, 175.944 33.987, 175.706 32.750 C 175.467 31.512, 175.272 32.525, 175.272 35 M 302 60.500 C 303.866 62.425, 305.617 64, 305.892 64 C 306.167 64, 304.866 62.425, 303 60.500 C 301.134 58.575, 299.383 57, 299.108 57 C 298.833 57, 300.134 58.575, 302 60.500 M 297.500 64 C 298.495 65.100, 299.535 66, 299.810 66 C 300.085 66, 299.495 65.100, 298.500 64 C 297.505 62.900, 296.465 62, 296.190 62 C 295.915 62, 296.505 62.900, 297.500 64 M 186.750 67.662 C 187.438 67.940, 188.563 67.940, 189.250 67.662 C 189.938 67.385, 189.375 67.158, 188 67.158 C 186.625 67.158, 186.063 67.385, 186.750 67.662 M 94.437 96.250 L 91.500 99.500 94.750 96.563 C 96.537 94.948, 98 93.485, 98 93.313 C 98 92.540, 97.175 93.221, 94.437 96.250 M 264.500 99 C 265.495 100.100, 266.535 101, 266.810 101 C 267.085 101, 266.495 100.100, 265.500 99 C 264.505 97.900, 263.465 97, 263.190 97 C 262.915 97, 263.505 97.900, 264.500 99 M 239.431 112.112 C 239.083 112.675, 238.145 112.886, 237.347 112.580 C 236.486 112.249, 236.162 112.452, 236.549 113.080 C 236.908 113.661, 237.832 113.895, 238.601 113.600 C 239.371 113.304, 240 113.499, 240 114.031 C 240 115.288, 239.342 115.253, 235.266 113.779 C 232.447 112.760, 231.733 112.801, 230.935 114.029 C 230.410 114.838, 230.207 116.469, 230.485 117.654 C 230.888 119.374, 230.336 120.049, 227.745 121.005 C 225.583 121.803, 225 122.373, 226 122.712 C 226.825 122.993, 229.262 124.410, 231.416 125.861 C 234.160 127.710, 235.458 128.124, 235.752 127.244 C 235.982 126.553, 236.652 126.285, 237.240 126.648 C 237.839 127.019, 238.020 126.842, 237.651 126.245 C 236.835 124.924, 237.878 122, 239.166 122 C 239.690 122, 239.819 122.483, 239.454 123.074 C 239.089 123.664, 239.738 123.556, 240.895 122.833 C 242.545 121.803, 243 120.513, 243 116.866 C 243 113.699, 242.532 112.034, 241.532 111.651 C 240.725 111.341, 239.779 111.548, 239.431 112.112 M 124.158 115 C 124.158 116.375, 124.385 116.938, 124.662 116.250 C 124.940 115.563, 124.940 114.438, 124.662 113.750 C 124.385 113.063, 124.158 113.625, 124.158 115 M 117.780 123.044 C 117.535 124.718, 117.708 126.320, 118.167 126.603 C 118.625 126.886, 119 125.516, 119 123.559 C 119 119.198, 118.383 118.937, 117.780 123.044 M 132 126.031 C 132 126.564, 132.675 127, 133.500 127 C 134.325 127, 135 126.823, 135 126.607 C 135 126.391, 134.325 125.955, 133.500 125.638 C 132.675 125.322, 132 125.499, 132 126.031 M 246.525 129.040 C 246.943 129.717, 246.245 129.849, 244.523 129.416 C 242.402 128.884, 241.773 129.151, 241.352 130.762 C 241.063 131.867, 239.853 133.276, 238.663 133.891 C 236.556 134.981, 236.562 134.995, 238.875 134.398 C 240.477 133.985, 241.028 134.146, 240.566 134.893 C 240.190 135.502, 239.084 136, 238.108 136 C 234.910 136, 235.116 137.110, 238.957 140.580 C 243.414 144.607, 244.198 144.747, 245.513 141.750 C 246.190 140.207, 247.521 139.402, 249.750 139.187 C 252.585 138.913, 253 138.508, 253 136.018 C 253 134.448, 253.250 132.511, 253.557 131.713 C 253.904 130.807, 253.341 130.061, 252.055 129.725 C 250.923 129.429, 250.230 129.563, 250.515 130.024 C 251.404 131.462, 248.888 132.293, 247.663 130.966 C 246.755 129.983, 246.829 129.891, 248 130.545 C 249.293 131.268, 249.310 131.150, 248.128 129.692 C 246.623 127.838, 245.499 127.380, 246.525 129.040 M 120.195 133.500 C 120.215 135.150, 120.439 135.704, 120.693 134.731 C 120.947 133.758, 120.930 132.408, 120.656 131.731 C 120.382 131.054, 120.175 131.850, 120.195 133.500 M 110.080 146 C 111.675 149.348, 111.656 149.338, 112.429 147.324 C 112.801 146.354, 112.789 145.878, 112.402 146.265 C 112.015 146.652, 111.066 146.188, 110.294 145.234 C 109.056 143.705, 109.031 143.796, 110.080 146 M 249.274 146 C 249.333 146.275, 249.035 147.963, 248.611 149.750 C 248.005 152.309, 247.327 153, 245.421 153 C 244.089 153, 243 153.203, 243 153.452 C 243 153.700, 244.640 155.496, 246.644 157.443 L 250.288 160.982 252.584 158.504 C 254.416 156.528, 255.500 156.150, 257.940 156.638 C 260.893 157.229, 261 157.126, 261 153.707 C 261 151.758, 261.316 149.340, 261.702 148.334 C 262.382 146.563, 262.316 146.563, 259.617 148.331 C 256.984 150.056, 256.727 150.063, 254.939 148.445 C 253.898 147.503, 253.219 146.455, 253.428 146.116 C 253.638 145.777, 252.764 145.500, 251.488 145.500 C 250.211 145.500, 249.215 145.725, 249.274 146 M 141.762 149.707 C 143.006 149.946, 144.806 149.937, 145.762 149.687 C 146.718 149.437, 145.700 149.241, 143.500 149.252 C 141.300 149.263, 140.518 149.468, 141.762 149.707 M 176.250 149.716 C 177.762 149.945, 180.238 149.945, 181.750 149.716 C 183.262 149.487, 182.025 149.300, 179 149.300 C 175.975 149.300, 174.738 149.487, 176.250 149.716 M 212.264 149.718 C 213.784 149.947, 216.034 149.941, 217.264 149.704 C 218.494 149.467, 217.250 149.279, 214.500 149.286 C 211.750 149.294, 210.744 149.488, 212.264 149.718 M 220.750 149.662 C 221.438 149.940, 222.563 149.940, 223.250 149.662 C 223.938 149.385, 223.375 149.158, 222 149.158 C 220.625 149.158, 220.063 149.385, 220.750 149.662 M 209.232 163 C 209.232 164.925, 209.438 165.713, 209.689 164.750 C 209.941 163.787, 209.941 162.213, 209.689 161.250 C 209.438 160.287, 209.232 161.075, 209.232 163 M 124.980 162.524 C 124.284 163.362, 123.909 164.242, 124.145 164.479 C 124.382 164.715, 125.125 164.030, 125.796 162.955 C 127.248 160.630, 126.764 160.375, 124.980 162.524 M 254.694 167 C 253.764 169.463, 252.995 170, 250.396 170 L 247.230 170 250.423 173.486 C 253.444 176.784, 253.787 176.907, 256.794 175.772 C 259.087 174.906, 260.275 174.875, 261.062 175.662 C 261.848 176.448, 261.487 176.625, 259.765 176.295 C 258.229 176.002, 256.865 176.492, 255.939 177.670 C 254.622 179.345, 254.648 179.384, 256.245 178.132 C 257.204 177.380, 258.871 176.994, 259.948 177.276 C 262.721 178.001, 264.670 176.161, 266.330 171.250 C 267.672 167.278, 267.647 167, 265.942 167 C 264.939 167, 263.835 167.457, 263.490 168.016 C 262.792 169.146, 261 168.395, 261 166.972 C 261 166.472, 261.788 166.316, 262.750 166.626 C 264.177 167.085, 264.232 166.999, 263.048 166.160 C 262.249 165.595, 261.268 165.335, 260.867 165.582 C 260.466 165.830, 259.856 165.575, 259.510 165.016 C 258.281 163.028, 255.809 164.046, 254.694 167 M 95.543 167.931 C 94.878 169.007, 96.835 170.498, 97.733 169.600 C 98.063 169.270, 97.782 169, 97.108 169 C 96.434 169, 96.160 168.550, 96.500 168 C 96.840 167.450, 96.893 167, 96.618 167 C 96.343 167, 95.859 167.419, 95.543 167.931 M 103 172.878 C 103 173.360, 103.787 174.373, 104.750 175.128 C 106.298 176.342, 106.357 176.317, 105.259 174.908 C 104.576 174.032, 104.313 173.020, 104.675 172.658 C 105.037 172.296, 104.808 172, 104.167 172 C 103.525 172, 103 172.395, 103 172.878 M 353.300 184 C 353.300 187.025, 353.487 188.262, 353.716 186.750 C 353.945 185.238, 353.945 182.762, 353.716 181.250 C 353.487 179.738, 353.300 180.975, 353.300 184 M 100 180.853 C 100 181.219, 100.825 182.034, 101.833 182.664 C 103.266 183.559, 103.667 183.518, 103.667 182.477 C 103.667 181.745, 102.842 180.930, 101.833 180.667 C 100.825 180.403, 100 180.487, 100 180.853 M 153.750 180.662 C 154.438 180.940, 155.563 180.940, 156.250 180.662 C 156.938 180.385, 156.375 180.158, 155 180.158 C 153.625 180.158, 153.063 180.385, 153.750 180.662 M 187.762 180.707 C 189.006 180.946, 190.806 180.937, 191.762 180.687 C 192.718 180.437, 191.700 180.241, 189.500 180.252 C 187.300 180.263, 186.518 180.468, 187.762 180.707 M 107 182.383 C 107 182.594, 108.125 182.982, 109.500 183.245 C 110.875 183.508, 112 183.335, 112 182.861 C 112 182.388, 110.875 182, 109.500 182 C 108.125 182, 107 182.173, 107 182.383 M 255.436 185.458 C 254.136 187.441, 253.263 187.803, 250.907 187.331 L 247.988 186.748 249.488 189.624 C 250.313 191.206, 250.990 193.054, 250.994 193.731 C 250.998 194.614, 252.271 194.787, 255.500 194.345 C 258.667 193.911, 260 194.082, 260 194.923 C 260 195.596, 259.454 195.804, 258.750 195.399 C 258.063 195.003, 257.849 195.063, 258.276 195.532 C 259.936 197.357, 262.958 196.946, 264.096 194.739 C 264.730 193.508, 266.172 191.488, 267.299 190.250 L 269.349 188 265.835 188 C 263.057 188, 262.082 187.476, 261.182 185.500 C 259.736 182.326, 257.499 182.310, 255.436 185.458 M 263.750 186.662 C 264.438 186.940, 265.563 186.940, 266.250 186.662 C 266.938 186.385, 266.375 186.158, 265 186.158 C 263.625 186.158, 263.063 186.385, 263.750 186.662 M 105.269 190.693 C 106.242 190.947, 107.592 190.930, 108.269 190.656 C 108.946 190.382, 108.150 190.175, 106.500 190.195 C 104.850 190.215, 104.296 190.439, 105.269 190.693 M 111.756 190.664 C 112.447 190.943, 112.715 191.652, 112.352 192.240 C 111.961 192.872, 112.163 193.017, 112.845 192.595 C 114.590 191.517, 114.229 189.990, 112.250 190.079 C 111.194 190.127, 110.998 190.359, 111.756 190.664 M 106.500 196 C 107.495 197.100, 108.535 198, 108.810 198 C 109.085 198, 108.495 197.100, 107.500 196 C 106.505 194.900, 105.465 194, 105.190 194 C 104.915 194, 105.505 194.900, 106.500 196 M 250.458 202.068 C 250.095 202.656, 249.145 202.886, 248.347 202.580 C 247.486 202.249, 247.162 202.452, 247.549 203.080 C 247.908 203.661, 248.809 203.904, 249.550 203.619 C 250.413 203.288, 250.700 203.618, 250.348 204.537 C 249.872 205.775, 249.507 205.768, 247.676 204.486 C 244.459 202.232, 242.672 202.518, 244.036 205.068 C 244.645 206.205, 245.017 208.886, 244.862 211.025 C 244.708 213.165, 244.973 215.271, 245.451 215.707 C 245.929 216.143, 246.026 215.985, 245.666 215.355 C 244.901 214.016, 247.688 212.689, 249.245 213.651 C 249.894 214.052, 250.014 213.831, 249.552 213.083 C 248.999 212.189, 249.700 211.945, 252.147 212.179 C 255.054 212.457, 255.466 212.833, 255.247 215 C 255.074 216.710, 255.267 217.078, 255.859 216.165 C 256.334 215.430, 257.017 214.876, 257.376 214.934 C 258.368 215.093, 264 210.738, 264 209.812 C 264 209.365, 262.650 209, 261 209 C 258.560 209, 257.997 208.580, 257.985 206.750 C 257.959 203.046, 256.527 201.651, 253.524 202.405 C 251.766 202.846, 251.055 202.719, 251.475 202.040 C 251.829 201.468, 251.893 201, 251.618 201 C 251.343 201, 250.821 201.481, 250.458 202.068 M 259.257 206 C 259.482 206.825, 260.528 207.605, 261.583 207.732 C 262.930 207.896, 263.054 207.777, 262 207.332 C 261.175 206.985, 260.128 206.205, 259.674 205.600 C 259.143 204.893, 258.994 205.035, 259.257 206 M 159.500 217 L 156.500 217.763 159.191 217.882 C 160.671 217.947, 162.160 217.550, 162.500 217 C 162.840 216.450, 162.979 216.053, 162.809 216.118 C 162.639 216.183, 161.150 216.580, 159.500 217 M 236.448 219.824 C 236.470 221.846, 236.123 224.512, 235.677 225.750 C 234.997 227.634, 235.213 228, 236.998 228 C 240.410 228, 243 229.885, 243 232.369 C 243 235.742, 243.893 236.118, 247.377 234.210 C 249.095 233.270, 251.583 232.275, 252.906 232 C 255.414 231.479, 256.603 228.491, 254.756 227.349 C 254.128 226.961, 253.984 227.165, 254.405 227.845 C 255.288 229.276, 254.459 229.316, 251.934 227.965 C 250.870 227.395, 250 226.469, 250 225.906 C 250 225.343, 250.421 225.142, 250.936 225.460 C 251.517 225.819, 251.517 224.802, 250.936 222.776 C 249.760 218.676, 249.754 218.734, 251.250 219.633 C 252.099 220.143, 252.060 219.842, 251.128 218.692 C 250.373 217.761, 248.798 217.045, 247.628 217.100 C 245.696 217.190, 245.730 217.280, 248 218.075 C 250.301 218.881, 250.245 218.928, 247.303 218.657 C 245.544 218.494, 244.304 218.683, 244.547 219.076 C 244.790 219.469, 244.279 220.063, 243.412 220.395 C 241.172 221.255, 240.875 221.164, 241.206 219.720 C 241.368 219.017, 241.050 218.297, 240.500 218.122 C 239.950 217.946, 238.804 217.430, 237.954 216.975 C 236.687 216.297, 236.415 216.811, 236.448 219.824 M 119.158 223 C 119.158 224.375, 119.385 224.938, 119.662 224.250 C 119.940 223.563, 119.940 222.438, 119.662 221.750 C 119.385 221.063, 119.158 221.625, 119.158 223 M 141.074 228.411 C 140.383 229.244, 140.286 230.059, 140.838 230.400 C 141.352 230.718, 142.007 230.083, 142.293 228.989 C 142.909 226.632, 142.651 226.510, 141.074 228.411 M 236.750 229.662 C 237.438 229.940, 238.563 229.940, 239.250 229.662 C 239.938 229.385, 239.375 229.158, 238 229.158 C 236.625 229.158, 236.063 229.385, 236.750 229.662 M 223.440 230.903 C 223.835 231.543, 223.223 233.652, 222.079 235.590 C 219.319 240.268, 219.425 244.111, 222.390 246.897 C 224.569 248.944, 225.395 249.082, 231.715 248.459 C 237.648 247.875, 238.629 247.506, 238.512 245.908 C 238.436 244.881, 237.993 243.694, 237.527 243.270 C 237.061 242.847, 237.003 243.063, 237.399 243.750 C 238.345 245.394, 236.549 245.367, 235.180 243.716 C 234.504 242.903, 234.454 241.896, 235.042 240.966 C 236.470 238.709, 236.170 235.279, 234.489 234.634 C 233.658 234.315, 231.746 234.298, 230.239 234.596 C 228.069 235.025, 227.292 234.669, 226.500 232.883 C 225.950 231.644, 224.875 230.429, 224.111 230.185 C 223.251 229.910, 222.996 230.184, 223.440 230.903 M 113.750 231.662 C 114.438 231.940, 115.563 231.940, 116.250 231.662 C 116.938 231.385, 116.375 231.158, 115 231.158 C 113.625 231.158, 113.063 231.385, 113.750 231.662 M 134.250 244.689 C 135.213 244.941, 136.787 244.941, 137.750 244.689 C 138.713 244.438, 137.925 244.232, 136 244.232 C 134.075 244.232, 133.287 244.438, 134.250 244.689 M 169.195 252.500 C 169.215 254.150, 169.439 254.704, 169.693 253.731 C 169.947 252.758, 169.930 251.408, 169.656 250.731 C 169.382 250.054, 169.175 250.850, 169.195 252.500 M 176.232 254 C 176.232 255.925, 176.438 256.712, 176.689 255.750 C 176.941 254.787, 176.941 253.213, 176.689 252.250 C 176.438 251.287, 176.232 252.075, 176.232 254 M 169.252 260.500 C 169.263 262.700, 169.468 263.482, 169.707 262.238 C 169.946 260.994, 169.937 259.194, 169.687 258.238 C 169.437 257.282, 169.241 258.300, 169.252 260.500 M 307.750 259.662 C 308.438 259.940, 309.563 259.940, 310.250 259.662 C 310.938 259.385, 310.375 259.158, 309 259.158 C 307.625 259.158, 307.063 259.385, 307.750 259.662 M 94.500 268 C 95.495 269.100, 96.535 270, 96.810 270 C 97.085 270, 96.495 269.100, 95.500 268 C 94.505 266.900, 93.465 266, 93.190 266 C 92.915 266, 93.505 266.900, 94.500 268 M 295.405 297.250 L 293.500 299.500 295.750 297.595 C 297.864 295.805, 298.455 295, 297.655 295 C 297.465 295, 296.453 296.012, 295.405 297.250 M 177.750 296.732 C 180.088 296.943, 183.912 296.943, 186.250 296.732 C 188.588 296.522, 186.675 296.349, 182 296.349 C 177.325 296.349, 175.412 296.522, 177.750 296.732 M 53.500 299 C 54.495 300.100, 55.535 301, 55.810 301 C 56.085 301, 55.495 300.100, 54.500 299 C 53.505 297.900, 52.465 297, 52.190 297 C 51.915 297, 52.505 297.900, 53.500 299 M 300.405 305.250 L 298.500 307.500 300.750 305.595 C 302.864 303.805, 303.455 303, 302.655 303 C 302.465 303, 301.453 304.012, 300.405 305.250 M 155.459 322.067 C 154.433 323.727, 155.354 323.957, 156.789 322.399 C 157.499 321.630, 157.638 321, 157.098 321 C 156.559 321, 155.821 321.480, 155.459 322.067 M 173.762 343.707 C 175.006 343.946, 176.806 343.937, 177.762 343.687 C 178.718 343.437, 177.700 343.241, 175.500 343.252 C 173.300 343.263, 172.518 343.468, 173.762 343.707 M 186.750 343.662 C 187.438 343.940, 188.563 343.940, 189.250 343.662 C 189.938 343.385, 189.375 343.158, 188 343.158 C 186.625 343.158, 186.063 343.385, 186.750 343.662" stroke="none" fill="#14c605" fill-rule="evenodd"/><path d="M 132.332 114.063 C 130.589 115.180, 128.688 117.456, 128.107 119.122 C 126.762 122.982, 125.365 122.119, 124.480 116.880 L 123.785 112.770 121.670 114.885 C 120.307 116.249, 119.334 118.865, 118.931 122.250 L 118.307 127.500 116.934 124.250 C 116.179 122.463, 115.226 121, 114.816 121 C 113.190 121, 111.834 125.448, 112.171 129.678 L 112.526 134.143 110.389 131.463 C 109.214 129.989, 108.023 129.169, 107.744 129.642 C 106.413 131.888, 106.024 136.934, 106.987 139.465 C 108.431 143.265, 107.520 143.865, 105.658 140.338 L 104.160 137.500 103.007 140.500 C 102.373 142.150, 102.121 144.836, 102.446 146.469 C 102.911 148.803, 102.777 149.177, 101.819 148.219 C 99.688 146.088, 99 146.880, 99 151.465 C 99 157.359, 103.101 162.209, 110.033 164.511 L 114.973 166.152 111.814 168.810 C 109.815 170.492, 108.511 171.033, 108.261 170.284 C 107.390 167.670, 103.915 164.246, 99.088 161.246 C 94.111 158.152, 94 158.131, 94 160.306 C 94 161.529, 94.901 164.210, 96.002 166.265 C 97.103 168.319, 97.580 170, 97.061 170 C 96.542 170, 95.840 169.550, 95.500 169 C 95.160 168.450, 94.423 168, 93.862 168 C 92.666 168, 93.678 173.505, 95.377 176.245 C 97.005 178.870, 104.042 182, 108.316 182 C 112.498 182, 112.732 182.541, 109.982 185.842 L 108.030 188.184 105.016 185.170 C 103.358 183.512, 100.314 181.612, 98.251 180.948 C 96.188 180.283, 93.978 179.326, 93.339 178.821 C 91.200 177.130, 90.796 179.967, 92.709 183.242 C 95.491 188.005, 99.620 189.962, 107.334 190.174 C 111 190.275, 113.992 190.615, 113.983 190.929 C 113.973 191.243, 112.848 192.560, 111.483 193.855 C 110.117 195.150, 109 196.691, 109 197.279 C 109 197.867, 107.854 197.272, 106.453 195.956 C 105.052 194.640, 101.213 192.588, 97.922 191.396 L 91.938 189.229 92.573 191.365 C 94.651 198.351, 100.246 201.527, 109.066 200.728 L 114.639 200.222 112.732 204.077 L 110.825 207.931 107.979 205.827 C 105.194 203.767, 95.524 201.558, 93.844 202.597 C 92.459 203.452, 94.890 206.962, 98.314 209.050 C 102.068 211.339, 107.869 211.500, 113.500 209.471 C 115.700 208.679, 117.624 208.023, 117.776 208.015 C 117.927 208.007, 117.365 209.328, 116.526 210.950 C 115.687 212.573, 115 214.636, 115 215.534 C 115 216.432, 114.662 216.993, 114.250 216.781 C 108.434 213.787, 105.210 212.937, 100.664 213.201 L 95.500 213.500 98.600 216.676 C 102.823 221.005, 107.518 221.765, 114.959 219.326 L 120.808 217.408 120.262 220.954 C 119.572 225.442, 119.618 225.402, 116.836 223.905 C 114.306 222.545, 101 221.772, 101 222.986 C 101 224.609, 106.318 228.911, 109.073 229.516 C 113.169 230.416, 117.014 229.377, 122.525 225.882 C 127.174 222.934, 127.254 222.920, 126.647 225.188 C 126.306 226.459, 126.021 228.940, 126.014 230.699 L 126 233.898 122.750 232.570 C 119.307 231.164, 108 231.560, 108 233.088 C 108 234.692, 115.480 239, 118.264 239 C 121.974 239, 127.045 236.787, 129.405 234.138 C 132.034 231.188, 132.467 231.423, 132.722 235.938 L 132.944 239.865 129.549 239.314 C 125.304 238.625, 115.778 240.810, 116.263 242.361 C 116.459 242.987, 118.128 244.266, 119.972 245.203 C 121.816 246.140, 123.589 247.291, 123.912 247.761 C 125.500 250.070, 129.857 252, 133.473 251.996 C 144.501 251.986, 151.784 238.313, 145.057 230.250 C 142.797 227.541, 142.262 227.460, 141.773 229.750 C 141.525 230.911, 140.659 229.860, 139.201 226.626 C 137.434 222.709, 136.734 221.976, 135.630 222.892 C 134.531 223.804, 134.141 223.453, 133.677 221.137 C 133.359 219.544, 132.360 217.503, 131.457 216.600 C 130.555 215.697, 129.469 213.731, 129.045 212.229 C 128.620 210.728, 127.762 209.612, 127.137 209.750 C 126.487 209.893, 126 208.730, 126 207.039 C 126 205.411, 125.415 203.532, 124.699 202.864 C 123.983 202.195, 123.585 200.373, 123.814 198.815 C 124.043 197.257, 123.752 195.407, 123.169 194.704 C 121.934 193.216, 122.367 185.756, 123.925 181.682 C 124.929 179.056, 124.855 178.911, 122.848 179.548 L 120.693 180.232 122.946 176.588 C 124.530 174.024, 124.897 172.580, 124.182 171.719 C 123.478 170.871, 123.602 169.898, 124.583 168.556 C 126.208 166.334, 126.491 163.578, 125 164.500 C 123.415 165.479, 123.837 163.838, 125.698 161.781 C 127.884 159.365, 128.331 156.659, 126.423 157.391 C 125.640 157.692, 125 157.549, 125 157.076 C 125 156.602, 125.698 155.946, 126.551 155.619 C 127.404 155.291, 128.974 153.053, 130.039 150.644 C 131.105 148.235, 132.657 145.700, 133.488 145.010 C 135.415 143.411, 135.427 142, 133.515 142 C 132.633 142, 133.547 140.589, 135.765 138.527 L 139.500 135.054 136 135.023 L 132.500 134.993 135.543 133.137 C 138.648 131.243, 142.296 126.630, 141.399 125.732 C 141.125 125.459, 139.064 125.648, 136.819 126.152 C 131.905 127.256, 130.973 126.662, 133.875 124.275 C 135.062 123.299, 136.924 120.138, 138.012 117.250 L 139.992 112 137.746 112.017 C 136.511 112.026, 134.074 112.947, 132.332 114.063 M 120 134.490 L 120 138.051 123.146 136.425 C 126.404 134.740, 126.350 134.564, 121.750 131.931 C 120.223 131.058, 120 131.384, 120 134.490 M 115.428 139.673 C 115.743 140.493, 116 142.231, 116 143.535 C 116 145.882, 116.031 145.889, 118.994 144.203 C 120.640 143.267, 121.976 142.275, 121.961 142 C 121.947 141.725, 120.342 140.753, 118.395 139.841 C 115.386 138.430, 114.942 138.405, 115.428 139.673 M 110.404 146.814 C 111.282 148.512, 112 150.861, 112 152.034 C 112 153.207, 112.338 154.002, 112.750 153.801 C 119.863 150.335, 120.428 149.578, 116.750 148.436 C 115.513 148.052, 113.219 146.835, 111.654 145.732 L 108.807 143.727 110.404 146.814 M 109.622 158.750 C 110.521 162.499, 110.541 162.506, 113.559 160.132 L 116.224 158.036 113.547 157.018 C 109.495 155.477, 108.900 155.740, 109.622 158.750 M 103.036 172.731 C 103.056 173.154, 104.162 174.834, 105.494 176.464 L 107.916 179.428 110.517 176.984 L 113.117 174.541 110.808 173.933 C 104.373 172.237, 103.003 172.025, 103.036 172.731 M 136.218 240.610 L 132.937 245 136.980 245 L 141.024 245 140.373 240.750 C 140.015 238.412, 139.672 236.437, 139.611 236.360 C 139.550 236.283, 138.023 238.195, 136.218 240.610" stroke="none" fill="#f8f510" fill-rule="evenodd"/><path d="M 168.762 9.707 C 170.006 9.946, 171.806 9.937, 172.762 9.687 C 173.718 9.437, 172.700 9.241, 170.500 9.252 C 168.300 9.263, 167.518 9.468, 168.762 9.707 M 190.762 9.707 C 192.006 9.946, 193.806 9.937, 194.762 9.687 C 195.718 9.437, 194.700 9.241, 192.500 9.252 C 190.300 9.263, 189.518 9.468, 190.762 9.707 M 163.500 12.028 C 123.392 16.577, 88.494 33.399, 59.947 61.947 C 35.224 86.669, 19.771 115.593, 12.810 150.172 C 9.509 166.568, 9.502 197.400, 12.796 213.755 C 26.971 284.148, 80.770 337.043, 151.500 350.129 C 165.673 352.752, 193.353 353.272, 206.500 351.163 C 256.395 343.161, 298.591 316.138, 325.702 274.825 C 342.184 249.709, 351.408 221.562, 352.844 192 C 354.391 160.160, 349.273 134.401, 336.055 107.500 C 311.387 57.298, 266.027 23.564, 209.500 13.383 C 199.471 11.577, 174.074 10.829, 163.500 12.028 M 156.526 15.588 C 120.419 21.198, 87.600 37.635, 62.619 62.618 C 36.188 89.051, 20.278 119.999, 14.509 156.195 C 12.215 170.585, 12.434 195.562, 14.982 210.431 C 25.608 272.413, 70.619 323.593, 131.009 342.361 C 150.479 348.412, 157.916 349.458, 181.500 349.467 C 199.271 349.473, 204.200 349.131, 213.557 347.244 C 274.313 334.989, 322.961 292.522, 342.017 235.105 C 358.647 185, 351.511 132.280, 322.159 88.398 C 295.814 49.013, 253.435 22.462, 205.872 15.546 C 192.855 13.653, 168.849 13.673, 156.526 15.588 M 157.631 18.510 C 145.715 20.448, 128.176 25.208, 119 28.995 C 67.442 50.275, 30.762 94.166, 18.929 148.739 C 16.277 160.970, 15.195 190.360, 16.919 203.318 C 20.517 230.358, 31.740 257.947, 48.195 280.206 C 56.573 291.541, 73.581 308.198, 84.762 316.020 C 104.331 329.711, 125.729 338.933, 150 344.136 C 164.096 347.158, 196.522 347.451, 210.500 344.684 C 246.204 337.614, 275.894 322.027, 299.718 297.842 C 313.963 283.382, 322.969 270.565, 331.576 252.500 C 338.351 238.279, 341.317 229.362, 344.382 213.989 C 350.175 184.942, 348.482 158.412, 339.017 129.895 C 330.604 104.545, 317.110 83.085, 297.857 64.436 C 273.904 41.233, 247.643 27.172, 215.612 20.398 C 200.239 17.146, 171.724 16.218, 157.631 18.510 M 165.494 21.015 C 100.321 27.324, 43.772 74.041, 25.529 136.646 C 14.159 175.661, 18.111 218.485, 36.440 254.881 C 46.510 274.876, 65.496 297.400, 83.648 310.883 C 108.117 329.059, 133.494 339.038, 164.500 342.679 C 198.547 346.676, 237.006 338.183, 265.990 320.265 C 309.183 293.563, 336.827 250.952, 343.055 201.472 C 344.742 188.064, 343.742 162.405, 341.038 149.739 C 328.408 90.574, 285.495 44.136, 227.532 26.908 C 209.201 21.459, 184.824 19.144, 165.494 21.015 M 175.487 39.330 C 174.629 50.774, 174.905 52.412, 177.760 52.820 C 179.831 53.115, 180 52.751, 180 48.002 C 180 43.137, 180.119 42.902, 182.250 43.557 C 183.488 43.937, 184.540 44.305, 184.588 44.374 C 184.636 44.443, 186.070 46.564, 187.774 49.088 C 190.629 53.314, 192.293 54.145, 195.773 53.083 C 196.214 52.949, 192.792 47.683, 190.774 45.392 C 188.951 43.322, 188.965 43.253, 191.516 41.582 C 193.659 40.177, 194.060 39.238, 193.807 36.213 C 193.415 31.529, 190.651 30.035, 182.343 30.015 L 176.187 30 175.487 39.330 M 147.500 33.753 C 143.650 34.609, 140.349 35.429, 140.164 35.574 C 139.719 35.924, 144.120 55.576, 144.941 56.905 C 145.370 57.599, 148.278 57.381, 153.790 56.242 C 160.599 54.834, 162 54.219, 162 52.641 C 162 50.625, 162.587 50.627, 151.637 52.609 C 148.593 53.160, 148.227 52.967, 147.769 50.573 C 147.195 47.572, 148.404 46.642, 154.250 45.586 C 157.158 45.061, 158 44.445, 158 42.838 C 158 41.174, 157.558 40.888, 155.750 41.384 C 154.512 41.723, 151.877 42.273, 149.894 42.605 C 146.779 43.127, 146.211 42.915, 145.723 41.050 C 145.105 38.687, 146.754 37.700, 153.393 36.454 C 156.024 35.961, 157 35.266, 157 33.889 C 157 31.696, 156.762 31.692, 147.500 33.753 M 180 37 C 180 39.818, 180.236 40, 183.878 40 C 188.101 40, 190.393 38.188, 189.410 35.627 C 188.965 34.466, 187.528 34, 184.393 34 C 180.179 34, 180 34.122, 180 37 M 215.280 35.009 C 212.822 36.010, 211.473 39.765, 212.458 42.866 C 212.809 43.972, 215.098 46.142, 217.546 47.688 C 222.307 50.696, 223.280 53.459, 219.951 54.516 C 217.592 55.264, 213 52.667, 213 50.584 C 213 49.090, 210.314 47.688, 209.004 48.498 C 207.896 49.182, 208.938 53.102, 210.800 55.254 C 212.663 57.407, 219.388 59.329, 222.076 58.476 C 225.024 57.540, 227.331 53.455, 226.586 50.489 C 226.222 49.035, 223.840 46.445, 220.976 44.387 C 215.701 40.598, 215.080 39.567, 217.509 38.635 C 219.620 37.825, 224 39.663, 224 41.359 C 224 42.995, 227.727 44.251, 228.564 42.897 C 231.169 38.681, 221.036 32.664, 215.280 35.009 M 120.044 42.951 C 118.792 43.744, 118.768 44.941, 119.874 51.523 C 120.581 55.731, 120.887 59.446, 120.554 59.780 C 120.220 60.113, 117.303 57.768, 114.070 54.569 C 108.538 49.095, 108.068 48.839, 106.082 50.230 C 104.033 51.666, 104.228 51.936, 113.031 59.865 C 121.052 67.089, 122.327 67.895, 124.170 66.909 C 126.034 65.911, 126.183 65.207, 125.599 60.148 C 124.529 50.879, 122.839 41.999, 122.147 42.015 C 121.791 42.024, 120.845 42.445, 120.044 42.951 M 241.983 55.627 C 237.898 63.204, 237.081 65.436, 238.147 66.111 C 238.891 66.582, 239.950 66.840, 240.500 66.685 C 241.995 66.262, 251.193 48.121, 250.489 46.983 C 248.958 44.505, 246.792 46.707, 241.983 55.627 M 264.544 56.747 C 264.110 57.877, 264.597 59.065, 265.939 60.152 C 267.072 61.070, 267.997 62.198, 267.994 62.660 C 267.991 63.122, 265.514 66.601, 262.489 70.390 C 258.189 75.776, 257.235 77.578, 258.117 78.640 C 258.737 79.388, 259.601 80, 260.036 80 C 260.644 80, 266.429 73.097, 271.725 66.053 C 271.910 65.806, 273.355 66.369, 274.935 67.303 C 278.410 69.355, 278.643 69.372, 279.316 67.618 C 279.644 66.763, 277.491 64.357, 273.673 61.312 C 265.554 54.836, 265.321 54.720, 264.544 56.747 M 171 60.695 C 141.966 63.804, 117.139 75.195, 96.926 94.680 C 86.421 104.807, 80.005 113.183, 73.701 125 C 63.983 143.215, 59.643 160.829, 59.657 182 C 59.667 196.581, 60.694 203.777, 64.651 217 C 82.424 276.387, 144.136 313.476, 205 301.351 C 276.763 287.055, 320.046 214.744, 298.287 145.500 C 286.579 108.242, 256.378 78.082, 218.805 66.128 C 204.323 61.520, 184.419 59.258, 171 60.695 M 88.479 62.034 C 88.128 62.603, 90.464 66.457, 93.670 70.600 C 96.877 74.743, 100.067 78.869, 100.760 79.770 C 101.926 81.288, 102.142 81.287, 103.674 79.755 C 104.833 78.595, 105.029 77.711, 104.329 76.800 C 92.516 61.431, 90.191 59.264, 88.479 62.034 M 161.437 64.488 C 96.804 75.923, 53.115 136.670, 63.496 200.672 C 72.874 258.497, 122.840 301.019, 181.381 300.996 C 239.776 300.973, 289.283 259.769, 299.503 202.684 C 302.079 188.290, 301.185 165.131, 297.546 152 C 285.544 108.698, 253.780 77.586, 210.085 66.333 C 197.856 63.183, 173.939 62.276, 161.437 64.488 M 163.500 66.109 C 147.215 68.455, 127.266 76.567, 113.500 86.440 C 81.890 109.109, 63.983 143.635, 64.008 181.860 C 64.017 195.987, 65.116 203.416, 69.128 216.466 C 74.871 235.144, 84.128 250.352, 98.400 264.556 C 121.386 287.432, 149.465 298.984, 182.119 298.996 C 215.031 299.008, 244.814 285.940, 268 261.311 C 298.213 229.218, 307.467 184.165, 292.466 142.195 C 278.461 103.011, 243.427 73.839, 201.615 66.548 C 192.107 64.890, 173.449 64.675, 163.500 66.109 M 170.500 67.629 C 98.909 75.376, 51.175 144.788, 70.603 212.892 C 79.142 242.827, 100.701 269.307, 128 283.392 C 146.225 292.796, 161.124 296.382, 182 296.389 C 213.577 296.401, 241.119 284.969, 263.542 262.543 C 308.243 217.836, 308.025 145.841, 263.054 100.962 C 246.881 84.823, 227.509 74.417, 204.491 69.505 C 197.255 67.960, 177.509 66.871, 170.500 67.629 M 168.678 70.047 C 120.708 75.387, 80.809 111.626, 70.740 159 C 67.926 172.241, 67.926 192.036, 70.741 205 C 79.016 243.119, 106.361 274.659, 142.257 287.489 C 170.702 297.655, 199.725 296.865, 226.814 285.186 C 261.936 270.044, 287.392 237.359, 293.529 199.523 C 303.138 140.277, 262.573 82.544, 203.588 71.516 C 193.738 69.675, 177.980 69.012, 168.678 70.047 M 164.500 73.032 C 136.920 77.284, 109.833 93.671, 92.904 116.349 C 63.182 156.161, 63.907 211.464, 94.655 249.894 C 120.188 281.806, 159.466 297.026, 199.523 290.529 C 222.198 286.851, 241.370 277.266, 258.185 261.201 C 273.669 246.408, 282.396 231.773, 288.718 210 C 292.422 197.243, 293.022 174.518, 290.037 160 C 285.825 139.512, 276.212 121.453, 261.199 105.829 C 247.009 91.061, 228.917 80.448, 209.277 75.371 C 198.295 72.532, 175.473 71.340, 164.500 73.032 M 164.729 75.441 C 119.354 83.482, 84.669 116.410, 75.460 160.189 C 71.934 176.950, 72.965 198.204, 78.077 214.142 C 87.237 242.703, 109.693 267.962, 136.717 280.101 C 179.052 299.117, 229.390 289.132, 260.875 255.474 C 278.599 236.527, 288.474 213.065, 289.694 186.997 C 290.794 163.520, 285.246 142.923, 272.595 123.515 C 256.801 99.284, 232.369 82.624, 203.500 76.397 C 193.516 74.244, 174.175 73.767, 164.729 75.441 M 72.896 76.625 C 71.710 78.055, 72.218 78.878, 77.021 83.297 L 82.500 88.339 78.500 87.670 C 67.642 85.855, 64.438 85.768, 63.204 87.254 C 62.179 88.490, 63.397 90.023, 70.605 96.567 C 78.481 103.716, 79.347 104.246, 80.525 102.636 C 81.657 101.087, 81.244 100.361, 77.158 96.709 C 74.596 94.421, 72.312 92.425, 72.083 92.274 C 70.387 91.159, 73.844 91.204, 80.056 92.378 C 84.111 93.145, 87.973 93.564, 88.637 93.309 C 91.427 92.239, 90.786 89.846, 86.721 86.158 C 74.050 74.660, 74.354 74.869, 72.896 76.625 M 160.500 78.968 C 144.063 82.539, 132.572 87.600, 119.500 97.023 C 96.601 113.530, 80.902 139.313, 76.928 166.941 C 75.347 177.932, 76.283 197.110, 78.891 207.175 C 91.616 256.283, 135.465 288.840, 186 286.701 C 204.130 285.934, 216.411 282.669, 231.642 274.566 C 242.471 268.805, 249.867 263.046, 259.266 253.056 C 277.824 233.328, 286.974 209.864, 286.974 182 C 286.974 153.601, 277.782 130.433, 258.459 110.128 C 243.705 94.623, 228.249 85.532, 207 79.858 C 195.633 76.823, 172.417 76.378, 160.500 78.968 M 166.399 80.387 C 118.966 88.163, 84.485 124.133, 78.876 171.687 C 78.073 178.497, 78.064 183.930, 78.842 191.303 C 83.492 235.357, 113.592 270.369, 156.500 281.633 C 170.147 285.216, 191.036 285.469, 204.207 282.211 C 222.684 277.641, 238.886 269.162, 252.207 257.089 C 281.311 230.711, 292.555 185.580, 279.259 148.500 C 266.640 113.309, 237.865 88.492, 201.034 81.035 C 192.193 79.245, 175.292 78.929, 166.399 80.387 M 162.500 83.592 C 126.650 91.519, 99.731 114.266, 87.313 147.127 C 62.828 211.920, 111.767 282, 181.500 282 C 226.438 282, 265.289 252.928, 278.687 209.277 C 281.199 201.093, 281.381 199.250, 281.381 182 C 281.381 164.674, 281.207 162.933, 278.640 154.562 C 267.985 119.812, 241.451 94.276, 206.175 84.823 C 195.773 82.036, 172.504 81.380, 162.500 83.592 M 283.025 86.649 C 277.813 88.557, 273.362 90.305, 273.132 90.534 C 272.903 90.764, 273.268 91.618, 273.945 92.433 C 274.785 93.445, 276.145 93.721, 278.237 93.303 C 280.860 92.778, 281.691 93.171, 284.037 96.045 C 286.289 98.805, 286.594 99.797, 285.756 101.636 C 284.667 104.025, 285.307 107, 286.909 107 C 287.444 107, 290.350 102.409, 293.368 96.799 C 297.614 88.905, 298.637 86.190, 297.892 84.799 C 296.564 82.317, 293.988 82.637, 283.025 86.649 M 288.500 89.216 C 284.451 90.644, 284.420 90.702, 286.494 92.994 C 288.939 95.695, 289.361 95.564, 291.299 91.500 C 293.103 87.717, 292.996 87.630, 288.500 89.216 M 50.086 107.840 C 49.235 109.430, 49.880 110.053, 54.827 112.417 C 63.622 116.621, 65.406 118.246, 64.628 121.347 C 63.530 125.720, 60.079 125.723, 52.002 121.361 C 46.017 118.129, 44.762 117.762, 43.970 119.015 C 43.453 119.832, 43.024 120.858, 43.015 121.296 C 43.007 121.734, 46.760 123.896, 51.355 126.101 C 61.010 130.734, 63.829 130.630, 66.983 125.528 C 69.667 121.185, 69.577 116.868, 66.750 114.324 C 64.440 112.245, 53.267 106, 51.858 106 C 51.425 106, 50.627 106.828, 50.086 107.840 M 228.120 107.905 C 227.230 108.468, 226.907 109.915, 227.211 111.982 C 227.520 114.093, 227.224 115.361, 226.340 115.700 C 225.603 115.983, 225 117.114, 225 118.214 C 225 119.627, 225.464 120.036, 226.582 119.607 C 227.452 119.273, 228.352 119, 228.582 119 C 228.812 119, 229 117.705, 229 116.122 C 229 112.002, 231.160 110.511, 235.127 111.894 C 237.446 112.703, 238.656 112.701, 239.637 111.886 C 241.623 110.238, 240.141 108.722, 237.129 109.322 C 235.639 109.619, 233.659 109.229, 232.559 108.423 C 230.305 106.771, 229.972 106.732, 228.120 107.905 M 307.128 110.623 C 305.031 112.092, 304.843 112.876, 305.155 118.854 C 305.454 124.577, 305.259 125.509, 303.702 125.814 C 299.762 126.584, 297.705 122.047, 300.190 118.068 C 301.125 116.570, 301.094 115.819, 300.046 114.556 C 298.824 113.083, 298.559 113.089, 296.857 114.630 C 294.584 116.686, 294.423 121.984, 296.510 126.020 C 299.204 131.230, 304.461 132.539, 308.094 128.906 C 309.860 127.140, 310.134 125.849, 309.844 120.676 C 309.553 115.480, 309.766 114.488, 311.239 114.199 C 313.606 113.734, 315.780 118.356, 314.130 120.344 C 312.617 122.167, 313.789 125.187, 315.855 124.789 C 316.737 124.620, 317.884 123.271, 318.404 121.792 C 320.088 117.004, 314.939 109, 310.175 109 C 309.774 109, 308.402 109.730, 307.128 110.623 M 239.250 123.662 C 238.563 123.940, 238 125.493, 238 127.115 C 238 128.813, 237.364 130.307, 236.500 130.638 C 235.675 130.955, 235 132.066, 235 133.107 C 235 136.641, 238.356 134.874, 239.348 130.817 C 240.180 127.415, 243.352 126.345, 246.497 128.406 C 249.013 130.054, 252.348 129.557, 251.715 127.627 C 251.512 127.007, 249.952 126.361, 248.247 126.192 C 246.543 126.023, 244.610 125.235, 243.952 124.442 C 242.731 122.971, 241.477 122.763, 239.250 123.662 M 247.200 141.200 C 246.540 141.860, 246 143.449, 246 144.731 C 246 146.014, 245.325 147.322, 244.500 147.638 C 243.675 147.955, 243 149.024, 243 150.013 C 243 152.553, 246.793 151.422, 247.194 148.763 C 247.362 147.644, 248.442 146.107, 249.593 145.347 C 251.440 144.127, 252.006 144.217, 254.422 146.117 C 256.979 148.129, 257.268 148.160, 258.829 146.599 C 260.297 145.130, 260.318 144.812, 259 143.974 C 258.175 143.450, 256.898 143.242, 256.161 143.513 C 255.425 143.784, 253.677 143.104, 252.276 142.003 C 249.308 139.668, 248.811 139.589, 247.200 141.200 M 138.387 150.181 C 138.156 150.555, 138.425 151.144, 138.984 151.490 C 139.580 151.859, 140 157.044, 140 164.043 C 140 175.701, 140.063 176.039, 142.809 179.113 C 146.406 183.138, 153.572 184.109, 158.986 181.305 C 164.098 178.658, 164.968 176.046, 164.985 163.300 C 164.998 153.697, 165.250 151.954, 166.750 151.080 C 167.713 150.519, 168.275 150.021, 168 149.973 C 161.657 148.856, 157.362 149.774, 161.500 151.362 C 162.714 151.828, 163 154.150, 163 163.546 C 163 175.144, 162.998 175.156, 159.960 178.194 C 157.435 180.718, 156.392 181.128, 153.805 180.611 C 148.199 179.490, 148 178.933, 148 164.378 C 148 154.852, 148.336 151, 149.167 151 C 149.808 151, 150.066 150.732, 149.738 150.405 C 148.892 149.559, 138.891 149.361, 138.387 150.181 M 179 150.083 C 175.975 150.408, 174.063 150.747, 174.750 150.837 C 176.488 151.064, 176.535 179.065, 174.800 180.800 C 173.867 181.733, 176.644 182, 187.300 182 C 199.677 182, 201.001 181.831, 201.011 180.250 C 201.017 179.287, 201.267 176.700, 201.565 174.500 L 202.109 170.500 200.429 173.500 C 199.505 175.150, 198.069 177.279, 197.238 178.230 C 195.445 180.282, 190.025 181.474, 186.507 180.591 L 184 179.962 184 166.310 C 184 155.561, 184.320 152.304, 185.504 150.995 C 187.182 149.141, 187.440 149.177, 179 150.083 M 208.078 151.289 C 209.782 152.875, 210 154.540, 210 165.968 C 210 176.352, 209.695 179.163, 208.429 180.429 C 207 181.857, 207.805 182, 217.281 182 C 226.478 182, 228.104 181.731, 231.102 179.716 C 236.710 175.945, 236.350 169.343, 230.380 166.510 L 226.739 164.782 229.884 163.260 C 233.590 161.464, 234.810 157.882, 232.917 154.346 C 230.898 150.572, 229.175 150.071, 217.188 149.774 C 206.547 149.510, 206.225 149.563, 208.078 151.289 M 217 157.375 L 217 164 219.943 164 C 224.833 164, 227.756 157.739, 224.750 153.705 C 224.063 152.782, 222.037 151.740, 220.250 151.388 L 217 150.750 217 157.375 M 253.323 161.133 C 252.951 162.993, 251.945 164.463, 250.848 164.750 C 248.422 165.384, 248.457 168, 250.892 168 C 252.061 168, 253.016 167.072, 253.394 165.567 C 254.280 162.035, 257.640 161.313, 260.534 164.032 C 261.962 165.374, 263.545 166.005, 264.532 165.626 C 266.818 164.749, 265.824 162.570, 262.946 162.151 C 261.628 161.959, 259.950 160.946, 259.218 159.901 C 257.080 156.848, 254.054 157.481, 253.323 161.133 M 217 172.933 C 217 178.942, 217.261 179.948, 218.962 180.488 C 222.867 181.727, 227 177.691, 227 172.638 C 227 169.665, 222.785 166, 219.365 166 C 217.106 166, 217 166.310, 217 172.933 M 322.103 172.250 C 321.636 173.488, 320.941 175.943, 320.558 177.706 C 319.867 180.883, 319.800 180.914, 313.203 181.206 L 306.546 181.500 311.730 185.218 L 316.915 188.935 314.957 194.624 C 313.881 197.753, 313 200.467, 313 200.655 C 313 200.843, 315.191 199.422, 317.869 197.498 C 320.548 195.574, 323.027 194, 323.378 194 C 323.730 194, 325.881 195.350, 328.159 197 C 330.436 198.650, 332.619 200, 333.009 200 C 333.399 200, 332.918 197.637, 331.940 194.750 C 329.956 188.890, 329.943 188.916, 337.518 183.282 L 340.500 181.063 333.933 181.032 L 327.365 181 325.632 175.500 C 324.678 172.475, 323.685 170, 323.424 170 C 323.164 170, 322.569 171.012, 322.103 172.250 M 36.319 178.559 L 34.344 184.500 28.164 185 L 21.984 185.500 27.007 188.916 C 32.401 192.586, 32.388 192.525, 29.367 199.904 C 28.601 201.775, 28.161 203.494, 28.389 203.722 C 28.617 203.951, 30.992 202.565, 33.667 200.644 L 38.530 197.150 43.015 200.550 C 45.482 202.420, 47.813 203.961, 48.196 203.975 C 48.579 203.989, 48.012 201.440, 46.935 198.311 C 45.859 195.182, 45.320 192.315, 45.739 191.939 C 46.157 191.563, 48.449 189.871, 50.831 188.178 L 55.163 185.100 48.831 184.800 L 42.500 184.500 40.397 178.559 L 38.294 172.617 36.319 178.559 M 255.408 179.500 C 254.507 180.875, 252.970 182, 251.992 182 C 249.620 182, 248.606 184.767, 250.805 185.238 C 251.737 185.437, 253.491 184.565, 254.702 183.300 C 257.534 180.342, 259.378 180.394, 261.821 183.500 C 262.903 184.875, 264.736 186, 265.894 186 C 268.726 186, 268.564 184.214, 265.610 182.868 C 264.296 182.269, 262.731 180.704, 262.132 179.390 C 260.711 176.271, 257.489 176.324, 255.408 179.500 M 171.455 196.455 C 166.916 200.993, 169.215 209, 175.057 209 C 176.676 209, 178 209.255, 178 209.566 C 178 211.247, 175.487 214.352, 172.686 216.131 C 169.951 217.868, 169.854 218.055, 172 217.451 C 179.838 215.243, 183.329 211.036, 183.432 203.672 C 183.490 199.562, 183.076 198.464, 180.694 196.415 C 177.131 193.348, 174.550 193.359, 171.455 196.455 M 190.282 195.206 C 187.240 196.675, 185.487 202.161, 187.088 205.201 C 188.673 208.208, 189.912 208.966, 193.276 208.985 C 195.994 209, 196.021 209.058, 194.601 211.805 C 193.803 213.348, 191.933 215.165, 190.446 215.843 C 186.558 217.614, 188.129 218.396, 192.142 216.687 C 197.721 214.312, 200.275 210.732, 200.786 204.570 C 201.196 199.620, 200.986 198.891, 198.473 196.562 C 195.502 193.809, 193.770 193.522, 190.282 195.206 M 207.762 195.073 C 203.784 197.391, 203.579 202.734, 207.373 205.197 C 208.068 205.648, 207.663 206.730, 206.224 208.262 C 203.471 211.192, 203.407 213.407, 206 216 C 208.780 218.780, 213.515 218.576, 216.545 215.545 C 219.548 212.543, 219.672 209.672, 216.919 206.919 C 215.010 205.010, 214.969 204.692, 216.419 203.090 C 220.998 198.030, 213.927 191.482, 207.762 195.073 M 156.133 196.383 C 154.064 197.530, 153.982 197.779, 155.479 198.354 C 156.963 198.923, 157.146 200.254, 156.846 208.297 L 156.500 217.582 159.250 217.178 L 162 216.773 162 205.887 C 162 194.013, 161.594 193.355, 156.133 196.383 M 174.399 196.402 C 174.110 197.155, 174.015 199.735, 174.187 202.136 C 174.449 205.785, 174.868 206.552, 176.750 206.820 C 178.698 207.096, 178.998 206.693, 178.986 203.820 C 178.967 199.140, 178.040 196.229, 176.364 195.586 C 175.572 195.282, 174.688 195.650, 174.399 196.402 M 191.409 197.507 C 190.345 201.746, 191.804 207, 194.045 207 C 195.713 207, 196 206.296, 196 202.200 C 196 195.653, 192.717 192.297, 191.409 197.507 M 210.036 195.956 C 208.145 197.152, 209.773 202.333, 212.185 202.797 C 214.318 203.208, 215.439 199.689, 214.020 197.038 C 212.808 194.773, 212.178 194.602, 210.036 195.956 M 253.801 197.199 C 252.592 198.408, 250.494 199.421, 249.139 199.449 C 247.785 199.477, 246.505 200.007, 246.296 200.627 C 245.631 202.596, 248.864 202.985, 251.816 201.291 C 255.368 199.252, 257.796 200.116, 259.110 203.887 C 260.216 207.058, 263.543 208.633, 264.403 206.391 C 264.705 205.604, 263.846 204.290, 262.418 203.354 C 261.033 202.447, 260.113 201.147, 260.374 200.467 C 260.915 199.057, 258.369 195, 256.943 195 C 256.424 195, 255.010 195.990, 253.801 197.199 M 354.158 200 C 354.158 201.375, 354.385 201.938, 354.662 201.250 C 354.940 200.563, 354.940 199.438, 354.662 198.750 C 354.385 198.063, 354.158 198.625, 354.158 200 M 208.667 208.667 C 207.440 209.894, 207.983 214.741, 209.487 215.989 C 211.500 217.660, 214 216.539, 214 213.966 C 214 209.706, 210.803 206.530, 208.667 208.667 M 248.259 214.531 C 246.463 215.789, 245.714 215.838, 244.061 214.806 C 242.468 213.811, 241.794 213.806, 240.818 214.782 C 239.842 215.758, 239.895 216.324, 241.074 217.503 C 242.309 218.738, 243.110 218.785, 245.778 217.778 C 249.986 216.189, 252.388 218.312, 252.194 223.450 C 252.121 225.402, 252.460 227, 252.949 227 C 253.437 227, 254.490 227.251, 255.289 227.557 C 257.317 228.335, 258.220 225.363, 256.484 223.627 C 255.697 222.840, 255.112 220.648, 255.183 218.755 C 255.402 212.939, 252.799 211.351, 248.259 214.531 M 228.125 228.922 C 225.672 230.439, 228.096 233, 231.985 233 C 237.028 233, 238.782 235.091, 237.216 239.239 C 236.227 241.858, 236.311 242.510, 237.777 243.598 C 239.187 244.645, 239.757 244.625, 240.914 243.489 C 242.073 242.351, 242.096 241.820, 241.042 240.551 C 240.011 239.309, 240.001 238.411, 240.992 236.019 C 242.994 231.187, 241.752 229.625, 236.480 230.348 C 234.016 230.685, 232 230.568, 232 230.088 C 232 228.813, 229.513 228.065, 228.125 228.922 M 298.345 237.543 C 297.624 239.423, 297.022 238.940, 305.676 243.439 C 313.443 247.477, 314.175 248.323, 312.893 251.772 C 311.459 255.630, 309.123 255.589, 301.309 251.566 C 295.350 248.499, 293.686 248.016, 292.493 249.006 C 290.401 250.742, 291.272 251.608, 299.049 255.525 C 307.734 259.898, 312.094 260.081, 314.865 256.189 C 320.088 248.854, 318.394 244.734, 308.003 239.501 C 300.177 235.560, 299.183 235.359, 298.345 237.543 M 61 254.639 C 56.875 257.656, 53.109 260.510, 52.630 260.982 C 51.554 262.043, 59.781 274, 61.586 274 C 64.097 274, 63.913 272.241, 61 268.391 C 59.381 266.251, 58.054 264.050, 58.052 263.500 C 58.050 262.950, 61.434 260.098, 65.573 257.161 C 71.710 252.807, 72.882 251.562, 71.926 250.411 C 70.164 248.287, 69.146 248.681, 61 254.639 M 169.823 252.393 C 169.271 257.122, 170.030 264, 171.105 264 C 171.597 264, 172 260.625, 172 256.500 C 172 248.902, 170.550 246.166, 169.823 252.393 M 174.667 249.667 C 173.634 250.700, 173.880 264, 174.933 264 C 176.361 264, 176.893 261.038, 176.518 255.172 C 176.165 249.638, 175.795 248.539, 174.667 249.667 M 179 256.500 C 179 260.833, 179.422 264, 180 264 C 180.578 264, 181 260.833, 181 256.500 C 181 252.167, 180.578 249, 180 249 C 179.422 249, 179 252.167, 179 256.500 M 183.687 249.734 C 183.439 250.155, 183.178 253.537, 183.106 257.250 C 182.999 262.788, 183.259 264, 184.555 264 C 185.871 264, 186.085 262.826, 185.844 256.922 C 185.578 250.396, 184.808 247.830, 183.687 249.734 M 188.855 252.750 C 188.343 258.161, 188.968 264, 190.060 264 C 190.577 264, 191 262.650, 191 261 C 191 257.492, 190.571 257.543, 202.685 259.608 C 211.156 261.052, 214.342 261.008, 212.803 259.470 C 211.942 258.609, 200.890 257.012, 195.750 257.006 L 191 257 191 253 C 191 247.940, 189.329 247.745, 188.855 252.750 M 148.750 255.735 C 146.137 255.941, 144 256.601, 144 257.202 C 144 257.952, 146.393 258.091, 151.651 257.647 C 155.859 257.291, 161.060 257, 163.210 257 C 165.561 257, 166.872 256.602, 166.500 256 C 165.908 255.042, 158.871 254.937, 148.750 255.735 M 281.565 263.469 C 278.023 267.503, 276.019 270.607, 276.368 271.518 C 277.160 273.581, 278.754 273.367, 280.232 271 C 280.919 269.900, 281.969 269, 282.565 269 C 283.161 269, 286.507 271.475, 290 274.500 C 293.493 277.525, 296.667 280, 297.053 280 C 297.910 280, 300.442 277.054, 299.893 276.696 C 299.677 276.556, 296.439 273.808, 292.698 270.590 L 285.896 264.740 288.142 262.349 C 290.156 260.205, 290.230 259.802, 288.859 258.430 C 287.488 257.059, 286.738 257.577, 281.565 263.469 M 77.500 276.381 C 66.594 281.030, 64.334 283.698, 71.690 283.239 C 75.430 283.005, 76.163 283.348, 78.510 286.424 C 80.715 289.315, 80.955 290.215, 80 292 C 79.140 293.607, 79.153 294.479, 80.053 295.564 C 80.709 296.354, 81.550 297, 81.922 297 C 82.294 297, 84.795 292.228, 87.478 286.394 C 91.229 278.241, 92.117 275.409, 91.321 274.144 C 89.705 271.578, 88.191 271.823, 77.500 276.381 M 82.037 279.110 C 78.559 280.498, 78.460 280.746, 80.494 282.994 C 82.725 285.459, 83.617 285.519, 84.270 283.250 C 84.547 282.288, 85.097 280.712, 85.494 279.750 C 86.298 277.796, 85.637 277.673, 82.037 279.110 M 263.748 281.121 C 262.787 281.659, 262 282.815, 262 283.689 C 262 285.112, 267.851 305.102, 268.464 305.774 C 268.601 305.924, 269.491 305.749, 270.442 305.384 C 271.788 304.867, 272.034 303.995, 271.554 301.435 C 271.009 298.531, 271.340 297.842, 274.404 295.505 C 277.295 293.300, 278.221 293.048, 279.973 293.986 C 282.165 295.159, 286 294.516, 286 292.977 C 286 292.488, 282.738 290.209, 278.750 287.912 C 274.762 285.615, 270.149 282.927, 268.498 281.939 C 266.329 280.642, 265.010 280.415, 263.748 281.121 M 97.395 293.706 C 94.306 298.494, 91.594 302.895, 91.367 303.485 C 90.848 304.839, 102.957 312, 105.766 312 C 108.500 312, 112.222 307.275, 111.437 304.800 C 111.026 303.506, 111.647 302.279, 113.419 300.885 C 115.130 299.539, 116 297.881, 116 295.965 C 116 293.555, 115.012 292.404, 110.055 289.037 C 106.785 286.817, 103.863 285, 103.561 285 C 103.259 285, 100.484 288.918, 97.395 293.706 M 267 287.351 C 267 288.613, 269.316 293.994, 269.848 293.968 C 270.806 293.921, 274 291.381, 274 290.665 C 274 290.328, 272.672 289.365, 271.050 288.526 C 268.111 287.006, 267 286.684, 267 287.351 M 103.607 292.582 C 102.639 295.104, 102.827 295.467, 106.099 297.400 C 109.003 299.115, 109.302 299.124, 110.849 297.547 C 112.387 295.979, 112.294 295.697, 109.500 293.437 C 106.004 290.609, 104.451 290.383, 103.607 292.582 M 239.250 296.958 C 235.813 298.585, 233 300.167, 233 300.476 C 233 300.784, 235.256 305.532, 238.013 311.026 L 243.026 321.016 248.898 318.052 C 256.216 314.357, 258 312.600, 258 309.084 C 258 306.308, 255.375 303, 253.171 303 C 252.527 303, 252 301.676, 252 300.057 C 252 298.149, 251.218 296.566, 249.777 295.557 C 246.824 293.488, 246.493 293.532, 239.250 296.958 M 98.241 300.986 C 96.563 303.673, 96.586 303.734, 99.950 305.474 C 106.460 308.841, 109.892 305.420, 104.365 301.073 C 101.076 298.485, 99.814 298.468, 98.241 300.986 M 124.021 307.446 C 120.397 316.819, 120.492 319.966, 124.478 322.577 C 125.823 323.459, 128.628 324.406, 130.712 324.683 C 135.603 325.331, 137.730 323.072, 141.549 313.175 C 143.933 306.995, 144.150 305.707, 142.937 304.940 C 142.147 304.440, 141.226 304.024, 140.891 304.015 C 140.556 304.007, 138.747 307.712, 136.872 312.250 C 133.247 321.022, 131.402 322.477, 127.511 319.632 C 125.334 318.040, 125.660 315.875, 129.605 305.703 C 131.231 301.514, 131.278 300.787, 129.983 299.968 C 129.167 299.453, 128.227 299.024, 127.893 299.015 C 127.559 299.007, 125.817 302.801, 124.021 307.446 M 241.250 300.220 C 238.832 301.387, 238.489 302.644, 239.956 304.963 C 240.761 306.236, 241.347 306.205, 244.441 304.730 C 246.782 303.613, 248 302.342, 248 301.016 C 248 298.737, 245.048 298.389, 241.250 300.220 M 220.448 305.274 C 220.180 305.975, 220.639 308.787, 221.469 311.524 C 223.846 319.362, 223.387 319.573, 216.943 313.608 C 211.357 308.436, 207.857 306.805, 206.624 308.799 C 206.032 309.757, 212.046 331.007, 212.903 330.985 C 213.231 330.976, 214.111 330.582, 214.857 330.109 C 215.991 329.391, 215.950 328.339, 214.607 323.721 C 213.723 320.680, 213 317.661, 213 317.012 C 213 316.363, 215.777 318.345, 219.170 321.416 C 225.411 327.063, 226.499 327.605, 228.743 326.180 C 230.432 325.107, 224.303 304, 222.302 304 C 221.551 304, 220.717 304.573, 220.448 305.274 M 245.250 308.220 C 242.687 309.457, 242.478 310.728, 244.419 313.287 C 245.710 314.989, 245.950 314.992, 249.388 313.352 C 252.001 312.106, 253 310.989, 253 309.315 C 253 307.440, 252.477 307.013, 250.250 307.068 C 248.738 307.105, 246.488 307.624, 245.250 308.220 M 152.564 310.250 C 152.073 312.581, 150 328.676, 150 330.159 C 150 330.622, 151.125 331, 152.500 331 C 154.791 331, 155 330.629, 155 326.559 C 155 324.116, 155.338 321.915, 155.750 321.667 C 156.162 321.419, 158.300 321.517, 160.500 321.886 L 164.500 322.556 164.158 327.778 C 163.849 332.504, 164.013 333, 165.889 333 C 168.237 333, 168.425 332.402, 169.955 320.091 C 171.299 309.274, 171.364 309.809, 168.750 310.180 C 166.950 310.436, 166.400 311.299, 166 314.500 C 165.501 318.488, 165.488 318.499, 161.500 318.157 C 159.300 317.968, 157.298 317.616, 157.051 317.374 C 156.804 317.133, 156.725 314.925, 156.876 312.467 C 157.118 308.537, 156.904 308, 155.095 308 C 153.769 308, 152.870 308.800, 152.564 310.250 M 65.500 311 C 66.495 312.100, 67.535 313, 67.810 313 C 68.085 313, 67.495 312.100, 66.500 311 C 65.505 309.900, 64.465 309, 64.190 309 C 63.915 309, 64.505 309.900, 65.500 311 M 183.018 320.250 C 181.293 325.887, 179.653 331.288, 179.373 332.250 C 178.461 335.393, 182.772 334.342, 184.500 331 C 185.860 328.370, 186.583 328, 190.365 328 C 193.996 328, 194.859 328.396, 195.818 330.500 C 196.886 332.844, 201 334.137, 201 332.129 C 201 331.649, 198.715 326.474, 195.923 320.629 C 191.605 311.588, 190.495 310, 188.501 310 C 186.397 310, 185.832 311.056, 183.018 320.250 M 187.261 320.500 L 186.187 324 189.577 324 L 192.968 324 191.299 320.500 C 190.381 318.575, 189.338 317, 188.983 317 C 188.627 317, 187.852 318.575, 187.261 320.500" stroke="none" fill="#fcfefb" fill-rule="evenodd"/><path d="M 162 10.630 C 152.026 12.059, 144.655 13.388, 139.500 14.686 C 136.200 15.518, 132.639 16.367, 131.586 16.573 C 127.547 17.365, 119.171 20.475, 111.152 24.161 C 59.381 47.958, 24.170 91.398, 11.584 147 C 8.191 161.992, 7.412 201.786, 10.351 210 C 10.647 210.825, 11.089 213.075, 11.335 215 C 12.593 224.840, 19.690 245.476, 26.396 258.793 C 37.729 281.297, 54.163 301.506, 73.560 316.788 C 77.927 320.228, 82.044 323.483, 82.708 324.022 C 83.372 324.560, 84.164 325, 84.468 325 C 84.772 325, 87.240 326.560, 89.952 328.466 C 95.676 332.489, 119.161 344.061, 122.043 344.278 C 123.119 344.359, 124 344.828, 124 345.320 C 124 345.812, 124.646 345.966, 125.435 345.663 C 126.225 345.360, 127.015 345.545, 127.191 346.073 C 127.367 346.601, 128.859 347.229, 130.506 347.469 C 132.152 347.708, 138.900 349.147, 145.500 350.666 C 156.706 353.245, 159.021 353.430, 180.500 353.464 C 198.994 353.493, 205.361 353.135, 213 351.635 C 218.225 350.609, 223.175 349.659, 224 349.524 C 224.825 349.388, 226.327 348.927, 227.338 348.498 C 228.349 348.069, 230.149 347.614, 231.338 347.487 C 232.527 347.359, 233.500 347.164, 233.500 347.053 C 233.500 346.942, 234.615 346.647, 235.979 346.397 C 237.342 346.147, 238.894 345.506, 239.429 344.971 C 239.963 344.437, 241.100 344, 241.955 344 C 244.309 344, 265.282 333.561, 273.136 328.481 C 276.945 326.016, 280.268 324, 280.520 324 C 281.062 324, 281.742 323.461, 293.767 313.493 C 305.789 303.528, 307.826 301.451, 317.295 289.500 C 325.877 278.668, 334.136 265.316, 339.690 253.296 C 343.480 245.092, 350.824 223.379, 351.459 218.500 C 351.674 216.850, 352.446 212.350, 353.175 208.500 C 354.003 204.123, 354.492 194.006, 354.479 181.500 C 354.455 158.597, 352.504 145.561, 346.421 127.682 C 340.353 109.843, 327.167 85.731, 316.496 72.957 C 311.038 66.423, 293.966 50.038, 288.236 45.834 C 285.081 43.519, 282.350 41.260, 282.167 40.813 C 281.983 40.366, 281.435 40, 280.948 40 C 280.461 40, 276.955 37.990, 273.157 35.533 C 265.843 30.801, 244.528 20, 242.506 20 C 241.847 20, 239.855 19.275, 238.079 18.390 C 236.304 17.504, 233.760 16.716, 232.426 16.640 C 231.093 16.563, 230.001 16.136, 230.001 15.691 C 230 15.246, 229.550 15.160, 229 15.500 C 228.450 15.840, 227.445 15.775, 226.768 15.356 C 226.090 14.937, 224.852 14.501, 224.018 14.387 C 223.183 14.273, 221.375 13.892, 220 13.540 C 218.625 13.189, 215.925 12.681, 214 12.411 C 212.075 12.141, 207.575 11.497, 204 10.980 C 197.900 10.097, 167.488 9.844, 162 10.630 M 162 12.107 C 136.815 14.951, 109.415 24.782, 88.287 38.553 C 49.295 63.968, 22.591 102.972, 13.011 148.500 C 10.269 161.528, 9.265 187.536, 10.946 201.971 C 17.650 259.539, 54.542 310.890, 107.241 336.003 C 156.491 359.473, 212.533 358.539, 260.820 333.442 C 294.131 316.129, 318.130 292.003, 335.054 258.812 C 357.331 215.125, 359.575 164.958, 341.308 119 C 328.779 87.479, 307.784 61.156, 279.433 41.422 C 262.788 29.836, 236.668 18.634, 217 14.647 C 199.858 11.171, 178.864 10.202, 162 12.107 M 161 15.025 C 157.425 15.520, 150.054 16.876, 144.619 18.037 C 96.513 28.317, 53.283 61.871, 31.072 106.171 C 18.394 131.457, 14.110 148.657, 13.307 177.500 C 12.846 194.068, 13.060 198.164, 14.977 209.500 C 23.399 259.290, 53.743 302.674, 97.764 327.865 C 134.453 348.860, 179.051 355.242, 220.717 345.457 C 270.616 333.738, 312.812 299.658, 334.569 253.500 C 365.397 188.096, 350.898 110.317, 298.624 60.685 C 274.281 37.572, 244.813 22.683, 211 16.412 C 201.010 14.559, 170.479 13.712, 161 15.025 M 160 18.026 C 141.491 20.578, 124.993 25.715, 107.500 34.371 C 90.015 43.024, 78.931 51.072, 63.945 65.997 C 38.540 91.299, 23.218 121.040, 17.535 156.087 C 15.301 169.862, 15.497 195.861, 17.944 210.172 C 30.225 282.010, 89.780 337.813, 163 346.089 C 184.810 348.554, 211.299 345.978, 232.288 339.350 C 305.837 316.128, 354.748 242.683, 347.068 167 C 339.576 93.173, 286.929 34.892, 214.151 19.858 C 203.136 17.582, 171.080 16.498, 160 18.026 M 167.279 20.991 C 133.376 23.959, 99.762 38.360, 74.342 60.807 C 16.582 111.813, 2.428 194.950, 40.207 261.315 C 67.223 308.774, 115.309 339.048, 169.815 342.913 C 189.133 344.283, 205.019 342.812, 223.714 337.924 C 274.134 324.742, 316.035 286.724, 334.078 237.789 C 349.600 195.691, 347.115 150.633, 327.027 109.928 C 312.026 79.531, 283.240 51.145, 252.706 36.639 C 226.202 24.047, 195.856 18.489, 167.279 20.991 M 175.667 30.667 C 175.300 31.033, 175 36.208, 175 42.167 L 175 53 177.500 53 C 179.796 53, 180 52.633, 180 48.500 C 180 42.145, 182.803 42.330, 187.595 49 C 190.943 53.659, 194.073 55.309, 195.423 53.125 C 195.720 52.644, 194.586 50.348, 192.902 48.024 L 189.841 43.798 191.921 41.585 C 194.738 38.585, 194.667 33.580, 191.777 31.557 C 189.523 29.978, 177.045 29.288, 175.667 30.667 M 146.750 33.777 C 141.824 34.889, 140.011 35.733, 140.041 36.900 C 140.102 39.280, 144.492 56.826, 145.206 57.539 C 145.544 57.878, 149.461 57.336, 153.911 56.336 C 160.544 54.845, 162 54.177, 162 52.623 C 162 50.925, 161.507 50.805, 157.250 51.471 C 148.840 52.785, 148.527 52.730, 148.194 49.863 C 147.915 47.451, 148.319 47.123, 152.944 46.013 C 156.955 45.051, 158 44.382, 158 42.775 C 158 41.053, 157.552 40.843, 155 41.375 C 153.350 41.719, 150.714 42.268, 149.142 42.597 C 146.811 43.083, 146.183 42.807, 145.736 41.098 C 145.082 38.598, 145.086 38.596, 151.750 37.032 C 155.809 36.080, 157 35.370, 157 33.900 C 157 31.678, 156.100 31.667, 146.750 33.777 M 180.667 34.667 C 180.300 35.033, 180 36.383, 180 37.667 C 180 39.710, 180.482 40, 183.878 40 C 188.489 40, 190.945 37.843, 189 35.500 C 187.753 33.997, 181.919 33.414, 180.667 34.667 M 215.104 35.224 C 209.643 38.133, 210.686 43.651, 217.470 47.749 C 222.212 50.613, 222.919 51.993, 220.622 53.899 C 218.612 55.567, 214.178 53.599, 213.007 50.518 C 212.026 47.937, 209.632 47.169, 208.463 49.060 C 206.969 51.477, 210.185 55.905, 214.681 57.622 C 220.025 59.663, 223.709 58.772, 225.873 54.918 C 228.090 50.967, 226.682 47.894, 220.933 44.141 C 216.592 41.308, 216.001 40.570, 217.150 39.421 C 218.904 37.667, 222.756 38.657, 223.518 41.057 C 224.101 42.894, 227.663 44.670, 228.695 43.638 C 228.995 43.338, 228.954 41.953, 228.604 40.559 C 227.430 35.882, 219.645 32.806, 215.104 35.224 M 119.355 43.045 C 118.628 43.772, 118.763 46.368, 119.798 51.569 C 120.616 55.682, 121.016 59.317, 120.687 59.646 C 120.358 59.975, 117.562 57.827, 114.474 54.872 C 107.873 48.555, 107.942 48.591, 105.605 50.299 C 103.942 51.516, 104.550 52.306, 112.944 59.842 C 118.384 64.725, 122.585 67.780, 123.299 67.373 C 127.042 65.240, 127.032 66.749, 123.451 45.250 C 122.906 41.979, 121.290 41.110, 119.355 43.045 M 244.720 50.250 C 239.969 58.422, 236.933 65.083, 237.523 66.037 C 237.850 66.567, 238.880 67, 239.812 67 C 241.744 67, 251.540 48.682, 250.504 47.006 C 249.228 44.942, 247.117 46.126, 244.720 50.250 M 264.326 56.592 C 263.895 57.715, 264.418 58.920, 265.833 60.066 C 267.025 61.031, 268 62.128, 268 62.503 C 268 62.878, 265.517 66.382, 262.481 70.288 C 257.453 76.760, 257.104 77.529, 258.552 78.945 C 259.996 80.356, 260.459 80.131, 263.575 76.500 C 265.463 74.300, 268.019 71.041, 269.254 69.257 C 271.808 65.569, 272.618 65.344, 275.134 67.621 C 276.918 69.236, 280 68.917, 280 67.117 C 280 66.280, 269.518 57.508, 266.243 55.604 C 265.488 55.165, 264.722 55.560, 264.326 56.592 M 89.742 61.125 C 88.784 61.661, 88 62.454, 88 62.887 C 88 63.479, 99.291 78.445, 101.584 80.893 C 102.068 81.409, 105 78.961, 105 78.040 C 105 77.531, 94.813 64.029, 91.634 60.325 C 91.551 60.229, 90.700 60.589, 89.742 61.125 M 169 60.694 C 134.347 64.401, 100.521 84.356, 80.984 112.617 C 30.944 185.002, 71.833 284.434, 158.725 301.666 C 170.748 304.051, 193.492 304.006, 204.960 301.576 C 247.522 292.555, 280.532 264.992, 295.887 225.654 C 301.813 210.470, 303.419 201.322, 303.463 182.500 C 303.503 165.131, 302.459 157.850, 297.921 143.835 C 290.220 120.058, 272.418 96.284, 251.743 82.167 C 227.752 65.787, 196.709 57.730, 169 60.694 M 162.749 64.490 C 92.886 75.892, 48.361 144.136, 66.078 212.656 C 74.518 245.300, 99.802 275.336, 130.846 289.599 C 202.835 322.673, 286.085 279.406, 299.586 201.901 C 301.967 188.228, 301.069 165.954, 297.606 152.829 C 285.835 108.216, 251.292 75.310, 205.838 65.411 C 195.600 63.182, 173.640 62.712, 162.749 64.490 M 176 64.761 C 143.630 67.176, 117.661 79.055, 96.455 101.148 C 81.482 116.747, 72.756 132.357, 66.814 154.173 C 64.813 161.520, 64.549 164.795, 64.572 182 C 64.596 199.971, 64.808 202.275, 67.277 211.388 C 79.354 255.977, 115.585 289.118, 161.500 297.575 C 175.006 300.062, 198.073 299.131, 211.500 295.557 C 249.440 285.457, 280.896 256.398, 293.294 220 C 297.924 206.407, 299.322 197.594, 299.322 182 C 299.322 166.406, 297.924 157.593, 293.294 144 C 280.621 106.792, 247.829 77.047, 209.429 67.927 C 200.950 65.913, 183.151 64.228, 176 64.761 M 169.500 67.994 C 131.128 72.445, 98.053 94.659, 80.159 128 C 56.993 171.165, 63.671 223.803, 96.786 259.056 C 114.867 278.305, 135.707 289.880, 160.725 294.572 C 174.246 297.107, 199.297 296.133, 211.965 292.579 C 255.925 280.246, 287.938 244.624, 295.506 199.619 C 304.580 145.669, 271.273 91.183, 218.362 73.422 C 203.758 68.519, 183.945 66.319, 169.500 67.994 M 167.847 70.039 C 120.068 75.616, 80.316 112.131, 70.550 159.413 C 67.033 176.438, 67.511 192.949, 72.033 210.629 C 81.877 249.120, 113.497 280.733, 152.311 290.889 C 179.211 297.928, 206.478 295.229, 231.500 283.049 C 250.132 273.980, 265.886 260.021, 277.152 242.601 C 283.983 232.038, 288.203 222.367, 291.783 209.074 C 294.090 200.504, 294.360 197.665, 294.360 182 C 294.360 166.335, 294.090 163.496, 291.783 154.926 C 288.039 141.025, 283.740 131.429, 276.016 119.733 C 252.653 84.359, 210.617 65.047, 167.847 70.039 M 165.500 73.109 C 155.421 74.561, 141.970 78.828, 132.393 83.612 C 103.098 98.244, 82.883 123.389, 74.257 155.926 C 72.053 164.243, 71.716 167.600, 71.695 181.500 C 71.668 199.423, 72.831 206.331, 78.352 221.028 C 86.901 243.788, 103.769 263.748, 125.254 276.529 C 167.477 301.645, 221.654 295.520, 257.751 261.550 C 301.970 219.935, 303.758 150.597, 261.751 106.374 C 237.286 80.619, 200.825 68.018, 165.500 73.109 M 163.814 75.476 C 109.755 84.333, 70.294 133.358, 73.302 187.925 C 75.656 230.622, 103.707 268.354, 144.038 283.073 C 158.370 288.304, 164.938 289.371, 182.500 289.322 C 196.654 289.282, 199.654 288.966, 208.500 286.580 C 257.215 273.442, 290 231.373, 290 182 C 290 152.081, 278.591 125.395, 256.838 104.428 C 243.504 91.577, 226.372 82.036, 208.277 77.386 C 195.885 74.201, 176.643 73.375, 163.814 75.476 M 72.545 76.744 C 72.061 78.005, 73.157 79.700, 76.495 82.854 C 79.036 85.254, 80.900 87.433, 80.637 87.696 C 80.374 87.959, 76.861 87.487, 72.830 86.648 C 65.957 85.218, 65.387 85.234, 63.683 86.906 C 61.932 88.625, 62.181 88.976, 70.537 96.563 C 78.748 104.017, 79.283 104.333, 80.610 102.519 C 81.891 100.767, 81.576 100.222, 76.958 96.182 C 74.179 93.751, 72.070 91.597, 72.272 91.395 C 72.474 91.193, 76.157 91.700, 80.456 92.523 C 88.332 94.030, 91.117 93.526, 90.926 90.628 C 90.855 89.562, 74.834 75, 73.732 75 C 73.447 75, 72.913 75.785, 72.545 76.744 M 168 77.601 C 148.508 81.179, 136.265 85.891, 122.433 95.139 C 101.226 109.317, 86.073 130.658, 79.219 156 C 76.947 164.399, 76.650 167.413, 76.650 182 C 76.650 196.587, 76.947 199.601, 79.219 208 C 92.402 256.743, 135.938 288.830, 186 286.698 C 223.925 285.083, 257.161 264.445, 274.497 231.743 C 284.194 213.454, 286.447 204.069, 286.443 182 C 286.439 161.597, 284.855 153.850, 277.500 138.266 C 263.682 108.987, 238.994 88.348, 208.206 80.337 C 200.618 78.362, 195.445 77.738, 184.500 77.477 C 176.800 77.293, 169.375 77.349, 168 77.601 M 169 79.631 C 154.336 81.521, 137.194 88.030, 124.252 96.625 C 70.183 132.528, 62.556 208.523, 108.419 254.386 C 144.922 290.890, 202.718 294.986, 243.858 263.986 C 262.532 249.915, 276.533 228.903, 282.204 206.440 C 285.448 193.589, 285.448 170.411, 282.204 157.560 C 279.621 147.327, 273.211 133.170, 266.953 123.877 C 253.710 104.213, 231.059 88.492, 207.119 82.351 C 197.616 79.913, 177.789 78.499, 169 79.631 M 162 83.904 C 137.130 89.421, 118.247 100.869, 103.392 119.435 C 85.242 142.120, 77.439 172.005, 82.584 199.127 C 92.176 249.695, 136.281 284.428, 187.422 281.686 C 228.909 279.463, 264.502 252.067, 277.309 212.500 C 280.884 201.455, 282.001 194.315, 281.992 182.566 C 281.983 170.249, 280.740 161.972, 277.327 151.500 C 266.403 117.983, 240.589 94.013, 205.524 84.825 C 193.948 81.791, 173.475 81.358, 162 83.904 M 284.659 86.005 C 278.696 88.119, 273.569 90.097, 273.266 90.400 C 271.861 91.806, 275.445 94.061, 278.142 93.469 C 282.861 92.432, 287.977 99.623, 284.789 102.811 C 283.841 103.759, 284.020 104.464, 285.613 106.057 L 287.648 108.092 293.441 96.941 C 299.084 86.080, 299.186 85.743, 297.367 83.975 C 295.561 82.219, 295.147 82.285, 284.659 86.005 M 288.106 89.551 C 284.753 91.007, 284.735 91.050, 286.583 93.091 L 288.453 95.158 290.227 92.968 C 291.202 91.764, 292 90.153, 292 89.389 C 292 87.739, 292.312 87.726, 288.106 89.551 M 49.583 107.643 C 49.237 108.547, 49.076 109.388, 49.226 109.511 C 49.377 109.635, 52.987 111.637, 57.250 113.959 C 65.316 118.353, 66.575 120.282, 63.429 123.429 C 61.201 125.656, 60.370 125.495, 52.236 121.272 C 46.046 118.058, 44.828 117.722, 44.001 119 C 43.467 119.825, 43.024 120.841, 43.015 121.257 C 43.007 121.674, 46.756 123.877, 51.347 126.154 C 57.655 129.283, 60.349 130.129, 62.378 129.620 C 67.580 128.314, 71.066 118.209, 67.533 114.676 C 65.416 112.559, 53.442 106, 51.695 106 C 50.880 106, 49.930 106.739, 49.583 107.643 M 227.667 107.667 C 227.300 108.033, 227 109.807, 227 111.608 C 227 113.409, 226.550 115.160, 226 115.500 C 224.418 116.478, 224.834 120, 226.531 120 C 228.106 120, 228.402 119.465, 229.436 114.750 C 229.917 112.554, 230.598 112, 232.819 112 C 234.349 112, 236.143 112.543, 236.807 113.207 C 237.750 114.150, 238.367 114.062, 239.625 112.803 C 241.858 110.571, 240.392 108.672, 236.966 109.357 C 235.166 109.717, 233.745 109.397, 232.965 108.458 C 231.707 106.942, 228.822 106.511, 227.667 107.667 M 307.223 110.557 C 305.289 111.911, 305 113.015, 305 119.057 C 305 125.358, 304.813 126, 302.979 126 C 300.015 126, 298.291 121.693, 299.986 118.526 C 301.063 116.514, 301.067 115.786, 300.007 114.509 C 297.968 112.052, 295 115.310, 295 120.007 C 295 128.010, 301.907 133.256, 307.565 129.550 C 309.760 128.111, 310 127.266, 310 120.977 C 310 115.398, 310.305 114, 311.521 114 C 313.746 114, 315.617 118.551, 314.130 120.344 C 312.617 122.167, 313.789 125.187, 315.855 124.789 C 317.981 124.380, 319.457 119.957, 318.603 116.554 C 317.754 113.171, 313.704 109, 311.268 109 C 310.265 109, 308.445 109.701, 307.223 110.557 M 135.643 112.076 C 131.970 113.115, 129.498 115.383, 127.942 119.140 C 126.463 122.710, 125.039 121.304, 125.015 116.250 C 125.007 114.463, 124.510 113, 123.910 113 C 121.976 113, 119.051 117.396, 118.379 121.312 C 117.722 125.141, 116.524 125.228, 115.813 121.500 C 115.117 117.853, 111.756 124.384, 111.823 129.251 L 111.881 133.494 110.063 131.084 L 108.245 128.673 107.010 130.981 C 106.289 132.329, 106.001 134.995, 106.318 137.394 C 106.821 141.190, 106.751 141.349, 105.391 139.505 C 104.131 137.794, 103.786 137.723, 102.976 139.005 C 102.456 139.827, 102.024 142.173, 102.015 144.219 C 102.003 147.110, 101.666 147.809, 100.500 147.362 C 99.291 146.898, 99 147.747, 99 151.740 C 99 156.052, 99.455 157.162, 102.514 160.312 C 104.580 162.439, 107.739 164.391, 110.178 165.048 L 114.326 166.165 111.436 168.469 L 108.546 170.773 107.249 168.137 C 106.212 166.027, 98.379 159.780, 94.750 158.167 C 93.405 157.569, 93.961 163.024, 95.561 166.117 C 97.083 169.061, 97.071 169.108, 95.061 168.032 C 93.289 167.084, 93 167.219, 93 168.997 C 93 172.331, 95.603 177.609, 98.117 179.369 C 101.036 181.414, 98.531 181.519, 95 179.500 C 91.734 177.633, 91 177.657, 91 179.632 C 91 182.325, 94.767 187.573, 97.638 188.881 C 99.117 189.555, 103.145 190.369, 106.591 190.691 L 112.856 191.276 110.747 194.129 C 108.844 196.702, 108.474 196.834, 106.976 195.478 C 105.610 194.242, 93.655 189, 92.202 189 C 91.143 189, 93.363 194.730, 95.173 196.670 C 98.237 199.954, 102.289 201.229, 108.440 200.846 C 111.500 200.656, 114.002 200.628, 114.001 200.785 C 114 201.008, 111.738 204.792, 110.381 206.838 C 110.258 207.024, 108.884 206.277, 107.329 205.178 C 105.773 204.079, 102.305 202.878, 99.622 202.509 C 96.939 202.141, 94.160 201.615, 93.445 201.341 C 90.918 200.371, 93.175 204.947, 96.790 208.120 C 100.181 211.098, 100.655 211.220, 106.924 210.733 C 110.541 210.452, 114.228 209.921, 115.118 209.554 C 116.546 208.966, 116.606 209.307, 115.624 212.443 C 114.471 216.128, 113.220 216.820, 111.258 214.858 C 109.670 213.270, 96 212.075, 96 213.524 C 96 214.130, 97.316 215.886, 98.924 217.427 C 102.606 220.955, 108.730 221.798, 114.961 219.636 C 117.414 218.785, 119.555 218.222, 119.718 218.385 C 119.881 218.547, 119.740 220.052, 119.404 221.728 C 118.816 224.668, 118.702 224.727, 116.147 223.394 C 114.659 222.617, 110.531 222.010, 106.715 222.006 C 100.180 222, 99.970 222.076, 101.029 224.054 C 104.591 230.709, 114.753 231.673, 122.653 226.105 C 126.880 223.126, 127.108 223.071, 126.361 225.215 C 125.923 226.472, 125.598 228.738, 125.639 230.250 C 125.724 233.416, 125.854 233.346, 122.625 231.875 C 121.025 231.146, 117.793 231.003, 113.442 231.469 L 106.727 232.188 109.648 235.110 C 111.518 236.980, 114.176 238.321, 117.035 238.837 L 121.500 239.643 118.197 240.412 C 114.337 241.312, 114.446 242.694, 118.553 244.910 C 120.174 245.784, 123.190 247.793, 125.256 249.373 C 128.622 251.948, 129.600 252.198, 134.671 251.777 C 139.596 251.369, 140.754 250.845, 143.604 247.735 C 147.007 244.022, 148.645 238.707, 147.632 234.669 C 146.716 231.022, 142.929 226.671, 141.721 227.879 C 141.025 228.575, 140.187 227.881, 139.093 225.701 C 138.135 223.789, 136.786 222.556, 135.744 222.639 C 134.715 222.721, 134 222.081, 134 221.077 C 134 220.142, 133.194 218.505, 132.208 217.439 C 131.223 216.372, 129.985 214.004, 129.458 212.175 C 128.931 210.346, 128.058 208.996, 127.517 209.175 C 126.592 209.481, 125.617 206.070, 124.324 198 C 124.015 196.075, 123.412 194.050, 122.982 193.500 C 122.201 192.500, 123.223 184.049, 124.524 180.750 C 125.010 179.516, 124.732 179, 123.581 179 C 122.079 179, 122.076 178.754, 123.547 175.910 C 124.426 174.210, 124.892 172.162, 124.584 171.357 C 124.275 170.553, 124.795 168.716, 125.740 167.274 C 127.011 165.335, 127.136 164.545, 126.222 164.241 C 125.339 163.946, 125.559 163.024, 126.993 161.010 C 129.416 157.608, 129.479 157, 127.411 157 C 126.176 157, 126.399 156.315, 128.411 153.923 C 129.835 152.231, 131 149.981, 131 148.923 C 131 147.865, 131.434 147, 131.965 147 C 133.552 147, 135.511 142.670, 134.131 142.210 C 133.478 141.993, 134.393 140.454, 136.238 138.670 L 139.500 135.514 136.918 135.207 L 134.336 134.900 138.168 131.067 C 143.305 125.930, 143.128 124.890, 137.250 125.660 L 132.500 126.282 134.716 123.863 C 137.299 121.043, 140.392 112.953, 139.269 111.953 C 138.846 111.575, 137.214 111.631, 135.643 112.076 M 240.194 113.617 C 239.397 115.041, 238.848 115.075, 235.590 113.896 C 232.415 112.748, 231.755 112.767, 230.935 114.029 C 230.410 114.838, 230.207 116.469, 230.485 117.654 C 230.889 119.376, 230.339 120.045, 227.745 120.989 C 224.546 122.153, 224.533 122.183, 226.847 123.089 C 228.138 123.594, 230.336 124.906, 231.732 126.004 C 235.072 128.631, 235.532 128.544, 237 125 C 237.683 123.350, 238.664 122, 239.178 122 C 239.692 122, 239.447 122.952, 238.632 124.115 C 237.817 125.278, 237.377 126.818, 237.653 127.537 C 237.929 128.257, 237.203 129.797, 236.041 130.959 C 233.357 133.643, 234.366 135.377, 238.171 134.616 C 239.976 134.255, 240.866 134.408, 240.491 135.015 C 240.156 135.557, 239.084 136, 238.108 136 C 234.910 136, 235.116 137.110, 238.957 140.580 C 243.414 144.607, 244.198 144.747, 245.513 141.750 C 246.180 140.229, 247.521 139.401, 249.650 139.194 C 252.552 138.912, 252.835 138.557, 253.240 134.694 C 253.766 129.660, 253.499 129.207, 250.943 130.803 C 249.339 131.805, 248.520 131.732, 246.496 130.406 C 243.733 128.595, 241 129.124, 241 131.469 C 241 132.311, 240.565 133, 240.032 133 C 239.451 133, 239.394 132.102, 239.890 130.750 C 240.886 128.035, 245.125 127.241, 246.941 129.428 C 247.889 130.571, 248.689 130.702, 250.105 129.944 C 253.732 128.003, 251.306 124.178, 247.399 125.677 C 246.519 126.015, 245.506 125.850, 245.149 125.310 C 244.792 124.771, 243.600 123.819, 242.500 123.195 C 241.400 122.571, 241.063 122.047, 241.750 122.030 C 242.579 122.010, 243 120.317, 243 117 C 243 111.972, 241.874 110.615, 240.194 113.617 M 120.744 134.557 C 120.220 137.298, 120.828 137.578, 123.326 135.750 C 124.922 134.581, 124.909 134.422, 123.123 133.307 C 121.459 132.269, 121.151 132.431, 120.744 134.557 M 116 141.974 C 116 145.474, 115.925 145.439, 119.500 143.585 L 122.228 142.169 119.114 140.559 L 116 138.949 116 141.974 M 246.667 140.667 C 246.300 141.033, 246 142.622, 246 144.198 C 246 145.822, 245.350 147.312, 244.500 147.638 C 242.297 148.484, 242.600 152, 244.875 152 C 246.147 152, 246.938 151.061, 247.334 149.080 C 248.065 145.426, 251.209 144.252, 254.497 146.406 C 257.267 148.221, 260.246 147.498, 259.777 145.124 C 259.573 144.088, 258.442 143.500, 256.653 143.500 C 255.111 143.500, 253.271 142.713, 252.564 141.750 C 251.286 140.009, 247.939 139.394, 246.667 140.667 M 112.271 150.171 C 113.182 153.760, 113.398 153.950, 114.960 152.537 C 115.893 151.691, 117.185 151, 117.829 151 C 120.208 151, 118.868 149.453, 115.130 147.884 L 111.281 146.268 112.271 150.171 M 248.975 148.565 C 248.439 149.976, 248 151.551, 248 152.065 C 248 152.579, 246.875 153, 245.500 153 C 244.125 153, 243 153.203, 243 153.452 C 243 153.700, 244.640 155.496, 246.644 157.443 L 250.288 160.982 252.584 158.504 C 254.416 156.528, 255.500 156.150, 257.940 156.638 C 260.893 157.229, 261 157.126, 261 153.707 C 261 151.758, 261.316 149.340, 261.702 148.334 C 262.381 146.564, 262.314 146.564, 259.607 148.338 C 256.870 150.131, 256.763 150.126, 254.591 148.085 C 251.655 145.327, 250.158 145.455, 248.975 148.565 M 137 149.893 C 137 150.384, 137.675 151.045, 138.500 151.362 C 139.713 151.827, 140 154.136, 140 163.422 C 140 170.196, 140.490 175.981, 141.195 177.528 C 144.727 185.280, 160.957 184.503, 164.025 176.434 C 164.561 175.024, 165 168.935, 165 162.904 C 165 154.078, 165.293 151.825, 166.500 151.362 C 169.533 150.198, 167.869 149.001, 163.250 149.022 L 158.500 149.044 160.840 150.845 C 163.095 152.579, 163.168 153.069, 162.840 164.221 C 162.556 173.895, 162.187 176.141, 160.595 177.898 C 157.995 180.767, 150.539 180.875, 149.035 178.066 C 148.466 177.002, 148 170.639, 148 163.926 C 148 153.474, 148.251 151.530, 149.750 150.392 C 151.257 149.248, 150.494 149.059, 144.250 149.032 C 140.262 149.014, 137 149.402, 137 149.893 M 174 149.941 C 174 150.459, 174.450 151.160, 175 151.500 C 175.589 151.864, 176 157.827, 176 166.009 C 176 178.184, 175.784 180.027, 174.250 180.920 C 173.001 181.648, 176.550 181.948, 186.656 181.970 L 200.812 182 201.509 176.936 C 202.355 170.781, 201.606 169.615, 199.713 174.142 C 197.618 179.155, 195.879 180.151, 189.831 179.805 L 184.500 179.500 184.214 166 C 183.943 153.223, 184.042 152.406, 186.074 150.750 C 188.165 149.046, 188.034 149, 181.111 149 C 177.200 149, 174 149.423, 174 149.941 M 207.413 150.428 C 209.103 151.780, 209.343 153.452, 209.466 164.730 C 209.626 179.286, 209.425 180.726, 207.147 181.330 C 206.241 181.571, 210.753 181.820, 217.173 181.884 C 228.354 181.995, 228.976 181.891, 231.923 179.411 C 234.252 177.452, 235 175.992, 235 173.411 C 235 169.811, 232.172 166, 229.500 166 C 227.285 166, 227.678 164.237, 230.061 163.481 C 232.724 162.636, 234.429 158.844, 233.611 155.586 C 232.459 150.996, 228.923 149.679, 216.652 149.269 C 206.505 148.929, 205.672 149.034, 207.413 150.428 M 217.667 151.667 C 217.300 152.033, 217 154.958, 217 158.167 C 217 163.722, 217.119 164, 219.500 164 C 222.523 164, 226 160.766, 226 157.955 C 226 154.221, 219.794 149.539, 217.667 151.667 M 109.393 157.582 C 109.727 158.452, 110 159.812, 110 160.605 C 110 161.795, 110.450 161.751, 112.584 160.353 L 115.168 158.660 112.834 157.365 C 109.689 155.621, 108.665 155.685, 109.393 157.582 M 253.632 159.115 C 252.817 160.278, 252.348 161.744, 252.589 162.372 C 252.830 163, 252.009 163.961, 250.764 164.507 C 248.073 165.687, 247.766 168.202, 250.269 168.569 C 251.366 168.730, 252.609 167.722, 253.544 165.914 C 255.372 162.380, 259.094 162.004, 261.178 165.142 C 262.409 166.995, 262.906 167.121, 264.865 166.072 C 266.683 165.099, 266.895 164.579, 265.942 163.430 C 265.289 162.644, 264.074 162, 263.242 162 C 262.410 162, 260.687 160.875, 259.412 159.500 C 256.585 156.450, 255.547 156.380, 253.632 159.115 M 254.694 167 C 253.764 169.463, 252.995 170, 250.396 170 L 247.230 170 250.475 173.542 C 253.489 176.833, 253.912 176.997, 256.434 175.848 C 258.604 174.859, 259.558 174.867, 261.192 175.888 C 263.672 177.436, 264.434 176.746, 266.313 171.250 C 267.644 167.358, 267.624 167, 266.083 167 C 265.157 167, 263.927 167.473, 263.349 168.051 C 262.614 168.786, 261.795 168.335, 260.626 166.551 C 258.398 163.152, 256.080 163.327, 254.694 167 M 217.204 172.750 L 217.500 179.500 220.654 179.806 C 224.217 180.152, 227 177.269, 227 173.232 C 227 170.127, 222.720 166, 219.500 166 C 216.938 166, 216.912 166.077, 217.204 172.750 M 322.480 171.250 C 322.229 171.938, 321.413 174.300, 320.667 176.500 L 319.309 180.500 312.905 181 L 306.500 181.500 311.250 184.920 C 315.973 188.320, 316.884 190.404, 315.138 193.816 C 314.664 194.742, 313.967 196.792, 313.589 198.372 L 312.901 201.243 317.834 197.622 C 320.548 195.630, 323.049 194, 323.393 194 C 323.736 194, 325.881 195.350, 328.159 197 C 330.436 198.650, 332.658 200, 333.096 200 C 333.534 200, 333.036 197.510, 331.989 194.468 L 330.085 188.935 335.270 185.218 L 340.454 181.500 333.896 181.208 L 327.339 180.916 325.618 175.458 C 323.851 169.852, 323.274 169.078, 322.480 171.250 M 36.276 178.688 L 34.344 184.500 28.076 185 L 21.807 185.500 26.404 188.729 C 31.492 192.304, 31.662 192.873, 29.489 199.030 C 28.658 201.385, 28.188 203.521, 28.443 203.776 C 28.699 204.032, 30.817 202.837, 33.151 201.120 C 35.485 199.404, 37.900 198, 38.519 198 C 39.138 198, 41.411 199.337, 43.572 200.972 C 45.732 202.607, 47.818 203.957, 48.206 203.972 C 48.594 203.987, 48.256 202.143, 47.456 199.874 C 45.215 193.524, 45.571 192.260, 50.596 188.729 L 55.193 185.500 48.936 185 L 42.680 184.500 40.847 179.090 C 39.838 176.114, 38.832 173.499, 38.611 173.277 C 38.389 173.056, 37.339 175.491, 36.276 178.688 M 105.637 175.693 C 106.604 177.237, 107.493 178.650, 107.614 178.833 C 107.735 179.017, 108.808 178.192, 110 177 C 112.560 174.440, 112.573 174.459, 107.690 173.576 L 103.880 172.887 105.637 175.693 M 256.278 177.250 C 255.746 177.938, 255.043 179.253, 254.716 180.172 C 254.390 181.092, 253.082 181.992, 251.811 182.172 C 250.540 182.353, 249.500 183.169, 249.500 183.986 C 249.500 186.339, 253.024 186.410, 254.649 184.091 C 256.729 181.122, 260.753 181.364, 262.203 184.546 C 262.994 186.283, 264.020 186.998, 265.431 186.796 C 268.114 186.412, 268.098 183.763, 265.405 182.580 C 264.253 182.073, 262.829 180.386, 262.242 178.830 C 261.108 175.825, 258.014 175.006, 256.278 177.250 M 105.051 184.750 C 107.451 187.737, 107.539 187.760, 109.444 185.927 C 111.804 183.656, 111.575 183.379, 106.551 182.441 L 102.602 181.703 105.051 184.750 M 255.436 185.458 C 254.136 187.441, 253.263 187.803, 250.907 187.331 L 247.988 186.748 249.488 189.624 C 250.313 191.206, 250.990 193.068, 250.994 193.762 C 250.998 194.676, 252.115 194.845, 255.041 194.377 C 258.303 193.856, 259.371 194.095, 260.577 195.616 C 262.040 197.461, 262.096 197.461, 263.285 195.616 C 263.953 194.580, 265.553 192.442, 266.839 190.866 L 269.178 188 265.749 188 C 263.063 188, 262.075 187.459, 261.182 185.500 C 259.736 182.326, 257.499 182.310, 255.436 185.458 M 157.120 195.921 C 154.352 197.366, 154.052 197.806, 155.466 198.349 C 156.970 198.926, 157.148 200.242, 156.846 208.551 L 156.500 218.091 159.385 217.795 L 162.270 217.500 162.078 206.500 C 161.973 200.450, 161.575 195.197, 161.193 194.828 C 160.812 194.458, 158.979 194.950, 157.120 195.921 M 171.455 196.455 C 166.691 201.219, 169.094 209, 175.329 209 C 176.798 209, 178 209.255, 178 209.566 C 178 211.257, 175.483 214.350, 172.686 216.096 L 169.500 218.084 172.500 217.396 C 182.579 215.085, 187.498 203.344, 181.077 196.923 C 177.509 193.356, 174.691 193.218, 171.455 196.455 M 189.913 195.282 C 183.834 199.950, 185.827 209, 192.934 209 C 196.590 209, 194.811 213.442, 190.164 215.918 C 186.717 217.754, 188.242 218.348, 192.142 216.687 C 197.718 214.314, 200.275 210.732, 200.785 204.580 C 201.185 199.757, 200.946 198.855, 198.663 196.572 C 195.907 193.816, 192.480 193.311, 189.913 195.282 M 206.635 196.073 C 203.459 198.571, 203.275 201.275, 206.091 204.091 L 208.182 206.182 206.091 208.130 C 199.661 214.121, 209.331 221.460, 216.365 215.927 C 219.512 213.452, 219.741 210.212, 217.014 206.745 C 215.276 204.535, 215.214 204.067, 216.514 202.988 C 218.551 201.298, 218.380 197.654, 216.171 195.655 C 213.685 193.405, 209.810 193.575, 206.635 196.073 M 210.250 195.731 C 208.412 196.372, 208.729 199.444, 210.829 201.345 C 213.457 203.724, 214 203.426, 214 199.607 C 214 196.252, 212.676 194.884, 210.250 195.731 M 253.500 197 C 252.505 198.100, 250.661 199, 249.404 199 C 246.411 199, 245.375 200.803, 247.276 202.704 C 248.625 204.054, 249.101 203.985, 251.699 202.065 C 255.313 199.392, 257.728 200.169, 258.812 204.355 C 259.633 207.524, 262.378 209.022, 264.139 207.261 C 265.379 206.021, 264.141 203, 262.393 203 C 261.627 203, 261 202.070, 261 200.934 C 261 195.440, 256.872 193.275, 253.500 197 M 174 199.918 C 174 205.199, 174.825 207, 177.243 207 C 179.078 207, 179.212 206.562, 178.644 202.417 C 177.907 197.040, 177.388 196, 175.441 196 C 174.432 196, 174 197.173, 174 199.918 M 191.667 196.667 C 190.646 197.688, 190.874 202.896, 192.035 205.066 C 193.866 208.487, 196 207.420, 196 203.082 C 196 200.927, 195.727 198.452, 195.393 197.582 C 194.769 195.956, 192.849 195.485, 191.667 196.667 M 251.152 203.848 C 249.564 205.436, 249.045 205.506, 247.461 204.348 C 244.610 202.263, 242.706 202.582, 243.965 204.934 C 244.534 205.998, 245 208.521, 245 210.541 C 245 213.662, 245.263 214.100, 246.750 213.455 C 247.713 213.037, 249.923 212.494, 251.662 212.249 C 254.128 211.900, 255.072 212.266, 255.952 213.911 C 257.079 216.016, 257.089 216.015, 260.541 213.260 C 264.782 209.876, 264.877 209, 261 209 C 258.709 209, 258 208.546, 258 207.082 C 258 201.934, 254.648 200.352, 251.152 203.848 M 208.607 209.582 C 207.159 213.355, 209.402 217.551, 212.276 216.447 C 214.540 215.579, 214.481 211.745, 212.171 209.655 C 209.900 207.599, 209.372 207.588, 208.607 209.582 M 248.037 214.455 C 247.108 215.575, 246.418 215.654, 245.047 214.797 C 242.702 213.333, 239.755 214.521, 240.211 216.747 C 240.501 218.162, 241.448 218.445, 245.134 218.216 C 250.385 217.889, 252.506 219.571, 251.760 223.473 C 251.413 225.292, 251.907 226.364, 253.608 227.479 C 255.756 228.886, 256.013 228.844, 257.045 226.917 C 257.929 225.264, 257.814 224.452, 256.490 222.988 C 255.437 221.826, 255.063 220.377, 255.477 219.072 C 256.601 215.532, 255.173 213, 252.055 213 C 250.509 213, 248.701 213.655, 248.037 214.455 M 236.448 219.824 C 236.470 221.846, 236.123 224.512, 235.677 225.750 C 234.997 227.634, 235.213 228, 236.998 228 C 240.471 228, 243 229.887, 243 232.476 C 243 235.848, 244.147 236.197, 247.845 233.948 C 249.607 232.877, 251.911 232, 252.965 232 C 256.214 232, 256.223 230.167, 252.982 228.491 C 250.637 227.278, 250.046 226.430, 250.517 224.948 C 252.065 220.070, 248.566 217.556, 243.788 220.114 C 242.123 221.005, 241.527 220.907, 240.811 219.626 C 240.318 218.745, 239.125 217.602, 238.161 217.086 C 236.635 216.270, 236.413 216.625, 236.448 219.824 M 228.147 228.888 C 227.135 229.529, 227.058 230.240, 227.843 231.707 C 228.651 233.217, 229.635 233.560, 232.110 233.197 C 236.342 232.576, 238.181 234.881, 236.931 239.241 C 236.343 241.291, 236.415 242.795, 237.143 243.672 C 239.757 246.822, 242.938 243.620, 240.927 239.864 C 240.159 238.429, 240.182 237.486, 241.007 236.491 C 243.993 232.893, 239.791 227.401, 235.908 229.826 C 234.137 230.931, 233.537 230.891, 232.075 229.568 C 230.078 227.761, 229.959 227.740, 228.147 228.888 M 223.440 230.903 C 223.835 231.543, 223.223 233.652, 222.079 235.590 C 219.308 240.287, 219.424 244.110, 222.424 246.929 C 224.694 249.062, 225.316 249.152, 232.174 248.352 L 239.500 247.496 236.792 245.104 C 234.681 243.240, 234.295 242.317, 235.042 240.922 C 237.512 236.306, 235.434 233.569, 230.239 234.596 C 228.069 235.025, 227.292 234.669, 226.500 232.883 C 225.950 231.644, 224.875 230.429, 224.111 230.185 C 223.251 229.910, 222.996 230.184, 223.440 230.903 M 130.674 233.407 C 130.359 234.228, 128.401 235.772, 126.323 236.838 L 122.546 238.776 127.671 239.138 L 132.795 239.500 132.256 236 C 131.607 231.784, 131.416 231.472, 130.674 233.407 M 298.607 236.582 C 297.595 239.219, 297.746 239.370, 305.500 243.467 C 312.054 246.930, 313 247.777, 313 250.180 C 313 251.953, 312.251 253.330, 310.893 254.057 C 309.122 255.005, 307.533 254.531, 300.932 251.086 C 293.194 247.048, 293.060 247.018, 291.958 249.079 C 291.342 250.230, 290.987 251.312, 291.169 251.484 C 291.351 251.656, 295.289 253.703, 299.921 256.032 C 309.586 260.892, 311.902 260.754, 315.719 255.089 C 318.622 250.781, 318.633 246.915, 315.750 244.335 C 313.832 242.618, 300.630 235, 299.573 235 C 299.375 235, 298.941 235.712, 298.607 236.582 M 136.793 240.384 L 134.086 243.786 137.293 244.274 C 139.057 244.543, 140.565 244.704, 140.645 244.631 C 140.724 244.559, 140.499 242.808, 140.145 240.741 L 139.500 236.982 136.793 240.384 M 60.250 255.114 C 55.712 258.431, 52 261.473, 52 261.873 C 52 262.273, 54.069 265.443, 56.597 268.917 C 60.742 274.614, 61.346 275.083, 62.738 273.690 C 64.131 272.297, 63.975 271.756, 61.142 268.179 C 59.414 265.997, 58.003 263.827, 58.007 263.356 C 58.011 262.885, 59.669 261.375, 61.693 260 C 72.159 252.889, 73.187 251.931, 71.951 250.441 C 70.116 248.230, 69.119 248.629, 60.250 255.114 M 169.667 249.667 C 169.300 250.033, 169 253.408, 169 257.167 C 169 262.574, 169.313 264, 170.500 264 C 171.700 264, 172 262.500, 172 256.500 C 172 249.603, 171.422 247.911, 169.667 249.667 M 174 256.417 C 174 262.586, 174.288 264, 175.544 264 C 176.819 264, 177.037 262.754, 176.794 256.830 C 176.604 252.205, 176.056 249.513, 175.250 249.247 C 174.324 248.940, 174 250.796, 174 256.417 M 179 256.500 C 179 260.833, 179.422 264, 180 264 C 180.578 264, 181 260.833, 181 256.500 C 181 252.167, 180.578 249, 180 249 C 179.422 249, 179 252.167, 179 256.500 M 183 256.500 C 183 262.500, 183.300 264, 184.500 264 C 185.700 264, 186 262.500, 186 256.500 C 186 250.500, 185.700 249, 184.500 249 C 183.300 249, 183 250.500, 183 256.500 M 188.818 253.107 C 188.312 258.418, 188.974 264, 190.109 264 C 190.599 264, 191 262.594, 191 260.875 C 191 258.001, 191.221 257.794, 193.750 258.292 C 207.237 260.953, 215.788 261.455, 213.803 259.470 C 212.905 258.572, 201.791 257.012, 196.250 257.006 L 191 257 191 253 C 191 247.750, 189.321 247.832, 188.818 253.107 M 147.250 255.723 C 145.463 255.945, 144 256.616, 144 257.213 C 144 257.963, 146.834 258.098, 153.154 257.650 C 158.188 257.292, 163.588 257, 165.154 257 C 166.719 257, 168 256.550, 168 256 C 168 255.030, 154.307 254.848, 147.250 255.723 M 281.645 263.292 C 278.540 266.828, 276 270.208, 276 270.802 C 276 273.048, 278.237 273.126, 280.542 270.960 L 282.936 268.711 289.603 274.403 C 296.070 279.923, 299.500 281.135, 299.500 277.900 C 299.500 277.035, 296.434 273.726, 292.686 270.547 L 285.871 264.766 288.129 262.362 C 290.168 260.192, 290.237 259.808, 288.839 258.410 C 287.441 257.012, 286.742 257.487, 281.645 263.292 M 78 276.088 C 67.108 280.696, 66.211 281.344, 67.904 283.384 C 68.850 284.524, 69.769 284.628, 72.006 283.848 C 74.596 282.945, 75.186 283.176, 77.827 286.132 C 80.288 288.887, 80.598 289.788, 79.736 291.681 C 78.733 293.882, 80.050 297, 81.982 297 C 82.388 297, 84.897 292.241, 87.558 286.425 C 91.323 278.194, 92.162 275.479, 91.341 274.175 C 89.697 271.566, 88.171 271.785, 78 276.088 M 81.664 279.617 C 78.943 281.092, 78.899 281.231, 80.569 283.077 C 82.776 285.515, 82.667 285.544, 84.474 282.050 C 86.872 277.413, 86.433 277.033, 81.664 279.617 M 262.821 281.715 C 261.404 283.343, 261.565 284.462, 264.642 294.425 C 266.498 300.433, 268.218 305.552, 268.465 305.798 C 268.712 306.045, 269.657 305.962, 270.566 305.613 C 271.840 305.124, 272.075 304.211, 271.589 301.624 C 271.029 298.637, 271.340 297.978, 274.420 295.628 C 277.399 293.356, 278.229 293.147, 280.377 294.126 C 283.002 295.322, 286 294.756, 286 293.064 C 286 292.178, 269.516 281.903, 265.818 280.484 C 265.024 280.179, 263.675 280.733, 262.821 281.715 M 96.646 294.599 C 93.426 299.839, 90.958 304.291, 91.161 304.494 C 92.987 306.321, 103.850 312, 105.517 312 C 108.721 312, 112.379 307.644, 111.641 304.707 C 111.171 302.833, 111.554 302.069, 113.380 301.237 C 116.083 300.005, 117.046 297.356, 115.908 294.280 C 115.195 292.354, 105.037 284.947, 103.231 285.036 C 102.829 285.056, 99.866 289.359, 96.646 294.599 M 267.506 288.750 C 267.903 289.712, 268.453 291.288, 268.730 292.250 C 269.378 294.502, 270.275 294.459, 272.435 292.072 C 274.113 290.218, 274.063 290.084, 271.139 288.572 C 267.254 286.563, 266.619 286.594, 267.506 288.750 M 103.607 292.582 C 102.614 295.171, 102.845 295.556, 106.422 297.261 C 109.523 298.740, 109.965 298.747, 111.142 297.328 C 112.246 295.999, 111.994 295.406, 109.471 293.387 C 105.996 290.607, 104.446 290.394, 103.607 292.582 M 239.250 296.958 C 235.813 298.585, 233 300.167, 233 300.476 C 233 301.487, 243.006 321, 243.524 321 C 244.736 321, 255.617 314.544, 256.750 313.153 C 259.454 309.833, 257.045 303, 253.171 303 C 252.527 303, 252 301.676, 252 300.057 C 252 298.149, 251.218 296.566, 249.777 295.557 C 246.824 293.488, 246.493 293.532, 239.250 296.958 M 98.175 301.092 C 97.052 302.889, 97.124 303.381, 98.684 304.585 C 102.547 307.565, 107 307.527, 107 304.514 C 107 302.994, 102.368 299, 100.606 299 C 99.987 299, 98.893 299.941, 98.175 301.092 M 124.073 306.968 C 122.383 311.350, 121 315.750, 121 316.745 C 121 321.389, 127.033 325.406, 133.131 324.822 C 136.006 324.547, 136.823 323.841, 138.708 320 C 139.922 317.525, 141.663 313.310, 142.577 310.633 C 143.969 306.556, 144.016 305.625, 142.869 304.899 C 140.584 303.453, 139.931 304.257, 136.805 312.351 C 135.151 316.635, 133.140 320.393, 132.335 320.702 C 131.531 321.010, 129.727 320.741, 128.327 320.103 C 125.331 318.738, 125.434 316.980, 129.086 307.195 C 131.111 301.767, 131.234 300.760, 129.969 299.960 C 129.161 299.449, 128.195 299.024, 127.823 299.015 C 127.450 299.007, 125.763 302.585, 124.073 306.968 M 241.250 300.201 C 238.631 301.487, 238.528 301.972, 240.345 304.457 C 241.649 306.241, 241.785 306.240, 244.873 304.416 C 250.256 301.236, 246.958 297.400, 241.250 300.201 M 220.400 305.400 C 220.105 306.170, 220.567 309.171, 221.428 312.070 C 222.289 314.968, 222.775 317.559, 222.508 317.826 C 222.241 318.093, 219.569 315.991, 216.571 313.156 C 212.928 309.710, 210.270 308, 208.560 308 C 207.152 308, 206 308.338, 206 308.752 C 206 309.869, 211.871 330.204, 212.324 330.658 C 213.064 331.397, 216 329.783, 215.989 328.643 C 215.983 328.014, 215.307 325.288, 214.487 322.585 C 213.667 319.882, 213.217 317.449, 213.487 317.180 C 213.757 316.910, 216.431 319.009, 219.429 321.844 C 224.490 326.631, 228.139 328.202, 229.411 326.144 C 229.702 325.673, 228.604 320.611, 226.970 314.896 C 225.337 309.180, 224 304.391, 224 304.252 C 224 303.273, 220.828 304.284, 220.400 305.400 M 245.779 308.537 C 243.347 309.875, 243.178 310.297, 244.190 312.517 C 245.554 315.511, 245.639 315.518, 249.818 312.970 C 255.764 309.344, 251.940 305.147, 245.779 308.537 M 152.562 309.250 C 152.062 310.916, 149.997 327.029, 149.999 329.250 C 150 330.450, 150.786 331, 152.500 331 C 154.651 331, 155.002 330.546, 155.015 327.750 C 155.038 322.925, 156.150 321.816, 160.602 322.181 L 164.500 322.500 164.152 327.832 C 163.819 332.936, 163.905 333.151, 166.152 332.832 C 168.313 332.526, 168.592 331.785, 169.664 323.500 C 171.397 310.099, 171.389 310, 168.560 310 C 166.463 310, 166.077 310.526, 165.810 313.750 C 165.502 317.477, 165.473 317.500, 161.033 317.500 L 156.567 317.500 156.859 312.750 C 157.121 308.494, 156.932 308, 155.044 308 C 153.885 308, 152.768 308.563, 152.562 309.250 M 182.534 321.322 C 180.590 327.549, 179 332.949, 179 333.322 C 179 333.695, 180.026 334, 181.281 334 C 182.897 334, 183.892 333.125, 184.694 331 C 185.717 328.289, 186.253 328, 190.253 328 C 194.004 328, 194.853 328.381, 195.818 330.500 C 196.856 332.779, 199.829 333.837, 201.237 332.430 C 201.551 332.116, 199.384 326.941, 196.421 320.930 C 191.727 311.404, 190.716 310, 188.552 310 C 186.262 310, 185.794 310.881, 182.534 321.322 M 187.986 318.250 C 187.979 318.938, 187.701 320.512, 187.370 321.750 C 186.857 323.664, 187.158 324, 189.383 324 C 192.441 324, 192.485 323.838, 190.474 319.950 C 188.845 316.799, 188.008 316.227, 187.986 318.250" stroke="none" fill="#12118a" fill-rule="evenodd"/></svg>