<svg xmlns="http://www.w3.org/2000/svg" width="390" height="360" viewBox="0 0 390 360" version="1.1"><path d="M 262.458 118.746 C 260.839 120.005, 260.803 120.165, 262.250 119.666 C 263.212 119.334, 264 119.551, 264 120.148 C 264 120.745, 263.212 120.992, 262.250 120.698 C 261.288 120.403, 259.044 119.709, 257.263 119.155 C 255.006 118.452, 253.825 118.474, 253.359 119.228 C 252.992 119.823, 253.121 120.044, 253.645 119.719 C 254.180 119.389, 254.600 120.628, 254.600 122.536 C 254.600 125.421, 254.132 126.117, 251.550 127.073 C 249.479 127.840, 248.982 128.366, 250 128.712 C 250.825 128.993, 253.262 130.410, 255.416 131.861 C 258.160 133.710, 259.458 134.124, 259.752 133.244 C 259.982 132.553, 260.652 132.285, 261.240 132.648 C 261.839 133.019, 262.020 132.842, 261.651 132.245 C 260.763 130.807, 261.951 127.931, 263.364 128.101 C 266.534 128.481, 267 127.841, 267 123.107 C 267 117.669, 265.587 116.312, 262.458 118.746 M 141.780 129.044 C 141.535 130.718, 141.708 132.320, 142.167 132.603 C 142.625 132.886, 143 131.516, 143 129.559 C 143 125.198, 142.383 124.937, 141.780 129.044 M 156 132.031 C 156 132.564, 156.675 133, 157.500 133 C 158.325 133, 159 132.823, 159 132.607 C 159 132.391, 158.325 131.955, 157.500 131.638 C 156.675 131.322, 156 131.499, 156 132.031 M 265.279 136.755 C 264.919 137.715, 263.921 139.064, 263.062 139.752 C 261.700 140.845, 261.745 140.919, 263.414 140.333 C 264.737 139.868, 265.105 140.021, 264.605 140.830 C 264.207 141.474, 263.084 142, 262.108 142 C 258.910 142, 259.116 143.110, 262.957 146.580 C 267.414 150.607, 268.198 150.747, 269.513 147.750 C 270.190 146.207, 271.521 145.402, 273.750 145.187 C 276.585 144.913, 277 144.508, 277 142.018 C 277 140.448, 277.250 138.511, 277.557 137.713 C 277.904 136.807, 277.341 136.061, 276.055 135.725 C 274.923 135.429, 274.230 135.563, 274.515 136.024 C 275.404 137.462, 272.888 138.293, 271.663 136.966 C 270.756 135.984, 270.830 135.884, 272 136.514 C 272.825 136.957, 273.164 136.950, 272.754 136.498 C 272.344 136.045, 270.641 135.525, 268.971 135.342 C 266.794 135.104, 265.748 135.504, 265.279 136.755 M 144.232 139 C 144.232 140.925, 144.438 141.713, 144.689 140.750 C 144.941 139.787, 144.941 138.213, 144.689 137.250 C 144.438 136.287, 144.232 137.075, 144.232 139 M 132.411 150.077 C 133.835 151.769, 135.007 153.681, 135.015 154.327 C 135.025 155.050, 135.374 154.957, 135.927 154.084 C 136.557 153.088, 135.983 151.829, 133.988 149.834 C 130.208 146.054, 129.162 146.215, 132.411 150.077 M 273.274 152 C 273.333 152.275, 273.035 153.963, 272.611 155.750 C 272.005 158.309, 271.327 159, 269.421 159 C 268.089 159, 267 159.203, 267 159.452 C 267 159.700, 268.640 161.496, 270.644 163.443 L 274.288 166.982 276.584 164.504 C 278.416 162.528, 279.500 162.150, 281.940 162.638 C 284.893 163.229, 285 163.126, 285 159.707 C 285 157.758, 285.316 155.340, 285.702 154.334 C 286.382 152.563, 286.316 152.563, 283.617 154.331 C 280.984 156.056, 280.727 156.063, 278.939 154.445 C 277.898 153.503, 277.219 152.455, 277.428 152.116 C 277.638 151.777, 276.764 151.500, 275.488 151.500 C 274.211 151.500, 273.215 151.725, 273.274 152 M 136.158 158 C 136.158 159.375, 136.385 159.938, 136.662 159.250 C 136.940 158.563, 136.940 157.438, 136.662 156.750 C 136.385 156.063, 136.158 156.625, 136.158 158 M 148.500 169 C 147.505 170.100, 147.102 171, 147.604 171 C 148.107 171, 149.081 170.100, 149.768 169 C 150.455 167.900, 150.858 167, 150.663 167 C 150.469 167, 149.495 167.900, 148.500 169 M 233.286 172.500 C 233.294 175.250, 233.488 176.256, 233.718 174.736 C 233.947 173.216, 233.941 170.966, 233.704 169.736 C 233.467 168.506, 233.279 169.750, 233.286 172.500 M 280.821 170.410 C 279.347 171.179, 277.944 171.611, 277.703 171.369 C 277.461 171.128, 277.482 172.071, 277.749 173.465 C 278.193 175.790, 277.941 176, 274.715 176 L 271.198 176 274.233 179.250 C 275.903 181.037, 278.303 182.520, 279.567 182.546 C 280.831 182.571, 281.644 182.233, 281.374 181.796 C 281.103 181.358, 281.782 181, 282.882 181 C 283.982 181, 285.203 181.520, 285.595 182.155 C 286.068 182.918, 285.866 183.035, 285 182.500 C 284.133 181.964, 283.932 182.082, 284.406 182.848 C 285.721 184.975, 288.684 182.240, 290.263 177.443 L 291.786 172.818 288.393 173.454 C 286.348 173.838, 285 173.688, 285 173.077 C 285 172.519, 285.788 172.345, 286.750 172.691 C 287.712 173.036, 288.204 172.988, 287.842 172.584 C 287.480 172.180, 286.355 171.711, 285.342 171.542 C 284.329 171.373, 283.613 170.732, 283.750 170.117 C 284.063 168.720, 284.060 168.720, 280.821 170.410 M 119.543 173.931 C 118.878 175.007, 120.835 176.498, 121.733 175.600 C 122.063 175.270, 121.782 175, 121.108 175 C 120.434 175, 120.160 174.550, 120.500 174 C 120.840 173.450, 120.893 173, 120.618 173 C 120.343 173, 119.859 173.419, 119.543 173.931 M 146.500 177 C 146.160 177.550, 146.610 178, 147.500 178 C 148.390 178, 148.840 177.550, 148.500 177 C 148.160 176.450, 147.710 176, 147.500 176 C 147.290 176, 146.840 176.450, 146.500 177 M 127.500 180 C 129.509 182.220, 130.890 182.777, 129.131 180.658 C 128.519 179.920, 128.313 179.020, 128.675 178.658 C 129.037 178.296, 128.514 178, 127.512 178 C 125.753 178, 125.753 178.070, 127.500 180 M 233.158 180 C 233.158 181.375, 233.385 181.938, 233.662 181.250 C 233.940 180.563, 233.940 179.438, 233.662 178.750 C 233.385 178.063, 233.158 178.625, 233.158 180 M 124 186.853 C 124 187.219, 124.825 188.034, 125.833 188.664 C 127.266 189.559, 127.667 189.518, 127.667 188.477 C 127.667 187.745, 126.842 186.930, 125.833 186.667 C 124.825 186.403, 124 186.487, 124 186.853 M 131 188.383 C 131 188.594, 132.125 188.982, 133.500 189.245 C 134.875 189.508, 136 189.335, 136 188.861 C 136 188.388, 134.875 188, 133.500 188 C 132.125 188, 131 188.173, 131 188.383 M 279.303 191.559 C 277.672 193.798, 277.099 193.988, 274.720 193.083 C 271.738 191.950, 271.509 192.174, 273 194.764 C 273.549 195.719, 274.466 197.811, 275.037 199.413 C 275.825 201.627, 276.353 202.047, 277.237 201.163 C 279.884 198.516, 284.656 199.996, 284.104 203.293 C 284.031 203.729, 284.878 203.601, 285.986 203.008 C 287.094 202.415, 288 201.530, 288 201.042 C 288 200.553, 289.165 198.769, 290.589 197.077 L 293.178 194 289.749 194 C 287.063 194, 286.075 193.459, 285.182 191.500 C 283.725 188.302, 281.661 188.322, 279.303 191.559 M 128.250 196.689 C 129.213 196.941, 130.787 196.941, 131.750 196.689 C 132.713 196.438, 131.925 196.232, 130 196.232 C 128.075 196.232, 127.287 196.438, 128.250 196.689 M 135.756 196.664 C 136.447 196.943, 136.715 197.652, 136.352 198.240 C 135.961 198.872, 136.163 199.017, 136.845 198.595 C 138.590 197.517, 138.229 195.990, 136.250 196.079 C 135.194 196.127, 134.998 196.359, 135.756 196.664 M 130.384 201.726 C 132.046 203.692, 134 203.988, 134 202.274 C 134 201.940, 133.699 201.968, 133.331 202.336 C 132.963 202.703, 131.726 202.216, 130.581 201.252 C 128.505 199.505, 128.505 199.506, 130.384 201.726 M 272.664 209.344 C 271.971 209.847, 272.309 209.924, 273.500 209.535 C 275.006 209.043, 275.218 209.166, 274.357 210.033 C 273.520 210.877, 272.669 210.893, 271.173 210.093 C 267.882 208.331, 266.759 208.680, 268.036 211.068 C 268.645 212.205, 269.017 214.886, 268.862 217.025 C 268.708 219.165, 268.973 221.271, 269.451 221.707 C 269.929 222.143, 270.026 221.985, 269.666 221.355 C 268.901 220.016, 271.688 218.689, 273.245 219.651 C 273.830 220.013, 274.030 219.858, 273.689 219.306 C 273.331 218.727, 274.316 218.267, 276.017 218.219 C 277.639 218.172, 279.268 218.624, 279.637 219.222 C 280.036 219.868, 279.845 220.022, 279.166 219.603 C 278.443 219.156, 278.228 219.430, 278.581 220.349 C 279.313 222.258, 280.998 221.933, 284.449 219.219 C 286 217.998, 287.686 217, 288.194 217 C 288.702 217, 288.840 216.550, 288.500 216 C 288.160 215.450, 286.559 215, 284.941 215 C 282.562 215, 281.997 214.570, 281.985 212.750 C 281.976 211.512, 281.619 209.948, 281.191 209.274 C 280.342 207.938, 274.535 207.986, 272.664 209.344 M 260.420 225.310 C 260.456 227.064, 260.143 229.738, 259.724 231.250 C 259.069 233.614, 259.254 234, 261.047 234 C 264.474 234, 267 235.900, 267 238.476 C 267 241.848, 268.147 242.197, 271.845 239.948 C 273.607 238.877, 276.134 238, 277.462 238 C 279.230 238, 279.837 237.484, 279.730 236.069 C 279.650 235.007, 279.238 234.353, 278.813 234.616 C 277.749 235.273, 274 233.163, 274 231.906 C 274 231.343, 274.421 231.142, 274.936 231.460 C 275.517 231.819, 275.517 230.802, 274.936 228.776 C 273.760 224.677, 273.754 224.740, 275.250 225.601 C 275.938 225.997, 276.170 225.956, 275.767 225.511 C 274.901 224.554, 268.005 224.203, 268.589 225.145 C 268.809 225.500, 268.279 226.063, 267.412 226.395 C 265.172 227.255, 264.875 227.164, 265.206 225.720 C 265.368 225.017, 265.050 224.297, 264.500 224.122 C 263.950 223.946, 262.792 223.424, 261.927 222.961 C 260.645 222.275, 260.367 222.709, 260.420 225.310 M 143.195 229.500 C 143.215 231.150, 143.439 231.704, 143.693 230.731 C 143.947 229.758, 143.930 228.408, 143.656 227.731 C 143.382 227.054, 143.175 227.850, 143.195 229.500 M 128.269 228.693 C 129.242 228.947, 130.592 228.930, 131.269 228.656 C 131.946 228.382, 131.150 228.175, 129.500 228.195 C 127.850 228.215, 127.296 228.439, 128.269 228.693 M 165.200 234.200 C 163.789 235.611, 163.632 237, 164.883 237 C 165.369 237, 166.002 236.100, 166.290 235 C 166.900 232.666, 166.804 232.596, 165.200 234.200 M 247.912 235.500 C 247.830 236.050, 247.832 236.886, 247.917 237.357 C 248.002 237.828, 247.155 239.767, 246.036 241.664 C 243.318 246.271, 243.439 250.125, 246.390 252.897 C 248.569 254.944, 249.395 255.082, 255.715 254.459 C 261.648 253.875, 262.629 253.506, 262.512 251.908 C 262.436 250.881, 261.993 249.694, 261.527 249.270 C 261.061 248.847, 261.003 249.063, 261.399 249.750 C 262.345 251.394, 260.549 251.367, 259.180 249.716 C 258.504 248.903, 258.454 247.896, 259.042 246.966 C 260.470 244.709, 260.170 241.279, 258.489 240.634 C 257.658 240.315, 255.562 240.338, 253.832 240.684 C 250.976 241.255, 250.737 241.113, 251.249 239.155 C 251.560 237.968, 251.433 237.232, 250.968 237.520 C 250.503 237.807, 249.659 237.245, 249.092 236.271 C 248.525 235.297, 247.994 234.950, 247.912 235.500 M 260.750 235.662 C 261.438 235.940, 262.563 235.940, 263.250 235.662 C 263.938 235.385, 263.375 235.158, 262 235.158 C 260.625 235.158, 260.063 235.385, 260.750 235.662 M 137.750 237.662 C 138.438 237.940, 139.563 237.940, 140.250 237.662 C 140.938 237.385, 140.375 237.158, 139 237.158 C 137.625 237.158, 137.063 237.385, 137.750 237.662 M 152.924 240.750 L 150.500 243.500 153.074 241.241 C 154.490 239.998, 155.952 239.286, 156.324 239.658 C 156.696 240.029, 157 239.808, 157 239.167 C 157 237.248, 155.497 237.832, 152.924 240.750 M 163.100 242.295 C 161.835 244.402, 161.857 244.423, 163.579 242.774 C 164.570 241.824, 165.166 240.832, 164.903 240.569 C 164.640 240.306, 163.829 241.083, 163.100 242.295 M 145 245 C 145 245.550, 145.450 246, 146 246 C 146.550 246, 147 245.550, 147 245 C 147 244.450, 146.550 244, 146 244 C 145.450 244, 145 244.450, 145 245 M 158.250 250.689 C 159.213 250.941, 160.787 250.941, 161.750 250.689 C 162.713 250.438, 161.925 250.232, 160 250.232 C 158.075 250.232, 157.287 250.438, 158.250 250.689" stroke="none" fill="#18c203" fill-rule="evenodd"/><path d="M 157.296 119.961 C 155.533 121.036, 153.232 123.590, 152.182 125.636 L 150.273 129.358 149.016 125.429 C 148.324 123.268, 147.426 121.136, 147.021 120.692 C 145.919 119.484, 143.003 126.307, 142.978 130.151 L 142.956 133.500 140.965 131 C 138.994 128.524, 138.960 128.519, 137.421 130.500 C 136.457 131.741, 135.998 133.923, 136.210 136.250 C 136.590 140.412, 136.292 140.781, 134.512 138.347 C 132.637 135.783, 131 137.678, 131 142.413 C 131 147.540, 133.763 151.037, 139.925 153.706 C 142.166 154.677, 143.996 155.703, 143.992 155.986 C 143.985 156.441, 140.865 158.152, 137.250 159.684 C 136.458 160.020, 135.987 159.350, 135.965 157.857 C 135.911 154.275, 130.426 146, 128.106 146 C 127.064 146, 126.492 149.284, 126.837 153.293 C 126.940 154.486, 126.407 154.988, 125.246 154.793 C 122.293 154.297, 122.437 159.580, 125.498 163.997 C 127.994 167.599, 129.209 168.378, 136.451 171.025 L 139.403 172.104 136.451 174.516 C 134.828 175.843, 133.260 176.944, 132.966 176.964 C 132.672 176.984, 131.655 175.686, 130.707 174.080 C 129.351 171.786, 121.236 166, 119.374 166 C 118.419 166, 119.159 170.406, 120.572 173.140 C 122.095 176.085, 122.079 176.160, 120.072 175.523 C 114.877 173.874, 119.972 184.255, 125.490 186.560 C 127.385 187.352, 130.525 188, 132.468 188 C 136.493 188, 136.802 188.796, 134.074 192.139 L 132.148 194.500 128.796 191.269 C 126.952 189.492, 123.319 187.398, 120.722 186.617 C 116.304 185.287, 116 185.313, 116 187.013 C 116 189.202, 121.111 194.245, 124.247 195.150 C 125.486 195.508, 129.088 195.845, 132.250 195.900 C 135.412 195.955, 138 196.249, 138 196.553 C 138 196.858, 136.794 198.619, 135.319 200.466 L 132.639 203.826 129.569 201.511 C 126.167 198.944, 118.366 196.300, 117.311 197.356 C 116.198 198.468, 120.392 203.372, 124.071 205.260 C 126.746 206.633, 128.784 206.878, 133.342 206.371 L 139.183 205.721 137.099 209.807 L 135.014 213.892 130.757 211.458 C 126.621 209.094, 118 207.990, 118 209.826 C 118 211.556, 122.954 215.200, 126.346 215.965 C 129.678 216.717, 136.292 215.997, 140.291 214.448 C 142.003 213.785, 142.007 213.948, 140.378 218.127 C 138.222 223.663, 138.565 223.379, 135.836 221.874 C 132.598 220.088, 122 219.081, 122 220.558 C 122 222.201, 125.171 224.815, 128.625 226.019 C 130.985 226.842, 132.975 226.641, 138.017 225.072 C 141.535 223.977, 144.474 223.175, 144.546 223.290 C 144.619 223.406, 144.480 225.400, 144.237 227.723 L 143.795 231.945 140.648 230.297 C 137.759 228.785, 127.515 228.151, 126.259 229.408 C 125.994 229.672, 127.018 231.039, 128.535 232.445 C 132.682 236.288, 138.969 235.993, 146.241 231.614 C 151.754 228.294, 151.846 228.276, 150.932 230.679 C 150.419 232.027, 150 234.692, 150 236.600 C 150 239.721, 149.805 239.966, 148.066 239.035 C 145.664 237.750, 133 237.659, 133 238.927 C 133 240.261, 137.924 243.943, 140.609 244.617 C 143.658 245.382, 148.835 243.576, 152.406 240.502 C 156.352 237.104, 157 237.327, 157 242.088 L 157 246.176 153.113 245.519 C 148.455 244.732, 141 246.530, 141 248.441 C 141 249.191, 142.238 250.246, 143.750 250.786 C 145.262 251.326, 147.850 252.947, 149.500 254.390 C 153.283 257.697, 155.330 258.348, 159.485 257.569 C 166.214 256.306, 171 250.272, 171 243.050 C 171 240.218, 170.342 238.342, 168.813 236.813 C 167.405 235.405, 166.484 235.048, 166.229 235.813 C 165.530 237.910, 164.434 237.090, 163.136 233.500 C 162.379 231.406, 161.194 229.991, 160.185 229.978 C 158.550 229.957, 156.945 227.536, 153.403 219.750 C 152.464 217.688, 151.315 216, 150.848 216 C 150.382 216, 149.997 215.213, 149.994 214.250 C 149.990 213.287, 149.347 211.272, 148.564 209.772 C 146.565 205.940, 145.451 191.894, 146.927 189.136 C 147.863 187.388, 147.799 186.860, 146.600 186.400 C 145.305 185.903, 145.332 185.369, 146.807 182.253 C 148.020 179.691, 148.168 178.565, 147.329 178.282 C 146.497 178.001, 146.642 177.029, 147.829 174.924 C 149.151 172.581, 149.234 171.794, 148.226 171.157 C 147.254 170.543, 147.432 169.919, 148.976 168.521 C 151.260 166.455, 151.606 164.369, 149.766 163.755 C 148.948 163.483, 149.454 162.250, 151.266 160.095 C 152.770 158.309, 154 156.261, 154 155.546 C 154 154.830, 154.697 153.667, 155.548 152.960 C 156.400 152.253, 156.962 150.753, 156.798 149.625 C 156.634 148.498, 157.512 146.567, 158.750 145.333 C 161.604 142.489, 161.612 141, 158.772 141 C 156.794 141, 156.962 140.656, 160.272 137.927 C 165.348 133.743, 165.247 131.777, 160 132.616 C 155.722 133.300, 154.809 132.228, 157.663 129.872 C 159.813 128.097, 163.286 120.272, 162.493 118.988 C 161.638 117.606, 160.947 117.735, 157.296 119.961 M 144 139.851 L 144 144.051 147.093 142.452 C 148.794 141.572, 150.032 140.773, 149.843 140.676 C 149.654 140.579, 148.262 139.409, 146.750 138.076 L 144 135.651 144 139.851 M 139.344 146.970 C 139.705 148.774, 140 150.655, 140 151.151 C 140 151.646, 141.350 151.353, 143 150.500 C 146.712 148.581, 146.759 147.717, 143.250 145.966 C 141.738 145.212, 140.092 144.391, 139.594 144.142 C 139.081 143.885, 138.972 145.111, 139.344 146.970 M 133.014 163.250 C 133.021 163.938, 133.293 165.491, 133.618 166.703 L 134.209 168.906 137.156 166.727 C 139.873 164.718, 139.967 164.449, 138.360 163.274 C 136.129 161.643, 132.996 161.629, 133.014 163.250 M 128.411 181.077 C 129.835 182.769, 131 184.653, 131 185.264 C 131 185.875, 132.384 185.052, 134.075 183.437 L 137.150 180.500 133.325 179.327 C 131.221 178.682, 128.672 178.119, 127.661 178.077 C 126.051 178.010, 126.145 178.383, 128.411 181.077 M 162.264 243.262 C 161.034 245.043, 159.292 247.512, 158.392 248.750 C 156.769 250.983, 156.787 251, 160.820 251 L 164.885 251 164.692 245.502 C 164.587 242.478, 164.500 240.008, 164.500 240.014 C 164.500 240.020, 163.494 241.482, 162.264 243.262" stroke="none" fill="#f7fc09" fill-rule="evenodd"/><path d="M 198.296 15.744 C 202.583 15.932, 209.333 15.931, 213.296 15.742 C 217.258 15.552, 213.750 15.399, 205.500 15.400 C 197.250 15.401, 194.008 15.556, 198.296 15.744 M 225.750 16.662 C 226.438 16.940, 227.563 16.940, 228.250 16.662 C 228.938 16.385, 228.375 16.158, 227 16.158 C 225.625 16.158, 225.063 16.385, 225.750 16.662 M 186 18.148 C 168.760 19.938, 149.318 25.509, 132.287 33.539 C 78.739 58.787, 41.709 109.949, 34.946 168.029 C 33.272 182.402, 34.270 208.495, 36.982 221.288 C 41.089 240.663, 47.841 258.308, 57.083 273.819 C 95.736 338.696, 169.113 370.689, 242.908 354.843 C 262.063 350.730, 283.753 341.501, 301 330.127 C 359.010 291.871, 388.154 221.243, 373.991 153.241 C 361.731 94.376, 317.677 45.093, 260.288 26.044 C 236.059 18.001, 212.023 15.447, 186 18.148 M 185 21.090 C 128.805 28.317, 79.901 62.649, 54.970 112.374 C 42.466 137.314, 38.104 154.881, 37.307 183.500 C 36.846 200.068, 37.060 204.164, 38.977 215.500 C 45.044 251.368, 62.205 283.789, 88.232 308.559 C 113.577 332.679, 140.986 346.694, 176.500 353.692 C 183.391 355.050, 190.303 355.457, 206 355.429 C 224.324 355.397, 227.838 355.109, 239.102 352.721 C 279.932 344.062, 314.398 322.743, 339.345 290.715 C 391.091 224.278, 385.261 129.806, 325.708 69.743 C 298.950 42.755, 264.117 25.910, 225.026 21.053 C 215.298 19.844, 194.536 19.863, 185 21.090 M 184 24.016 C 125.775 31.955, 75.928 69.571, 52.923 122.933 C 44.030 143.560, 40.931 158.426, 40.295 183.500 C 39.858 200.710, 40.076 205.196, 41.857 215.655 C 51.591 272.850, 90.725 320.388, 146.156 342.351 C 162.957 349.008, 185.326 353, 205.827 353 C 269.205 353, 326.242 317.761, 354.586 261.092 C 380.519 209.245, 376.842 146.518, 345.036 98.148 C 319.888 59.905, 282.315 34.838, 236 25.404 C 227.121 23.595, 193.639 22.701, 184 24.016 M 191.279 27.002 C 157.525 29.915, 123.705 44.410, 98.281 66.861 C 59.558 101.056, 39.273 151.179, 43.814 201.450 C 51.027 281.312, 114.038 343.256, 193.815 348.913 C 213.133 350.283, 229.019 348.812, 247.714 343.924 C 311.449 327.260, 359.035 272.539, 367.068 206.671 C 368.546 194.557, 367.799 170.878, 365.549 158.500 C 362.228 140.226, 352.959 117.062, 342.495 100.886 C 317.188 61.765, 274.352 34.305, 229 28.129 C 217.711 26.591, 201.611 26.111, 191.279 27.002 M 199.667 36.667 C 199.300 37.033, 199 42.208, 199 48.167 L 199 59 201.500 59 C 203.782 59, 204 58.622, 204 54.667 C 204 52.283, 204.284 50.049, 204.631 49.702 C 205.792 48.542, 208.894 50.985, 212.010 55.515 C 214.926 59.752, 218.095 61.274, 219.447 59.085 C 219.758 58.582, 218.511 56.202, 216.675 53.797 L 213.337 49.424 215.668 47.665 C 218.830 45.281, 218.890 39.737, 215.777 37.557 C 213.523 35.978, 201.045 35.288, 199.667 36.667 M 171 39.738 C 167.425 40.565, 164.316 41.409, 164.090 41.614 C 163.515 42.136, 168.086 62.317, 169.009 63.333 C 169.426 63.792, 173.419 63.346, 177.883 62.342 C 184.542 60.846, 186 60.178, 186 58.623 C 186 56.925, 185.507 56.805, 181.250 57.471 C 172.840 58.785, 172.527 58.730, 172.194 55.863 C 171.915 53.450, 172.319 53.123, 176.948 52.013 C 182.487 50.684, 183.280 50.071, 182.047 48.075 C 181.374 46.986, 180.292 46.970, 176.059 47.986 C 170.378 49.349, 170.340 49.340, 169.845 46.567 C 169.559 44.963, 170.477 44.392, 175.250 43.209 C 179.722 42.101, 181 41.364, 181 39.892 C 181 37.674, 179.988 37.658, 171 39.738 M 204 43 C 204 45.818, 204.236 46, 207.878 46 C 212.489 46, 214.945 43.843, 213 41.500 C 212.285 40.639, 210.104 40, 207.878 40 C 204.236 40, 204 40.182, 204 43 M 239.104 41.224 C 233.655 44.126, 234.690 49.674, 241.445 53.774 C 246.132 56.619, 246.885 58.021, 244.698 59.836 C 242.676 61.513, 239.074 60.044, 237.434 56.873 C 235.879 53.865, 232 52.851, 232 55.453 C 232 59.001, 234.478 62.017, 238.727 63.640 C 244.024 65.663, 247.716 64.761, 249.873 60.918 C 252.167 56.831, 250.678 53.589, 244.865 50.012 C 240.468 47.306, 239.925 46.646, 241.118 45.454 C 242.902 43.670, 246.749 44.633, 247.518 47.057 C 248.101 48.894, 251.663 50.670, 252.695 49.638 C 252.995 49.338, 252.954 47.953, 252.604 46.559 C 251.430 41.882, 243.645 38.806, 239.104 41.224 M 143.355 49.045 C 142.628 49.772, 142.763 52.368, 143.798 57.569 C 144.616 61.682, 145.016 65.317, 144.687 65.646 C 144.358 65.975, 141.562 63.827, 138.474 60.872 C 131.873 54.555, 131.942 54.591, 129.605 56.299 C 127.942 57.516, 128.550 58.306, 136.944 65.842 C 142.384 70.725, 146.585 73.780, 147.299 73.373 C 150.587 71.499, 150.669 71.078, 149.371 62.768 C 148.661 58.220, 147.817 53.038, 147.495 51.250 C 146.905 47.976, 145.286 47.114, 143.355 49.045 M 266.068 61.151 C 260.968 70.781, 260.787 71.371, 262.543 72.655 C 264.825 74.324, 264.675 74.500, 270.514 63.290 C 274.530 55.583, 275.103 53.829, 274.033 52.540 C 273.330 51.693, 272.460 51, 272.099 51 C 271.739 51, 269.025 55.568, 266.068 61.151 M 319.500 58 C 320.495 59.100, 321.535 60, 321.810 60 C 322.085 60, 321.495 59.100, 320.500 58 C 319.505 56.900, 318.465 56, 318.190 56 C 317.915 56, 318.505 56.900, 319.500 58 M 288.326 62.592 C 287.895 63.715, 288.418 64.920, 289.833 66.066 C 291.025 67.031, 292 68.149, 292 68.550 C 292 68.951, 289.471 72.409, 286.380 76.234 C 281.096 82.774, 280.863 83.288, 282.476 84.845 C 284.080 86.393, 284.427 86.216, 287.845 82.095 C 297.219 70.798, 296.576 71.306, 298.870 73.383 C 300.867 75.189, 304 75.027, 304 73.117 C 304 72.280, 293.518 63.508, 290.243 61.604 C 289.488 61.165, 288.722 61.560, 288.326 62.592 M 113.064 67.423 C 112.384 68.242, 112.176 69.495, 112.602 70.206 C 113.336 71.435, 123.414 84.485, 125.113 86.408 C 125.917 87.317, 129 85.439, 129 84.040 C 129 83.143, 116.044 66.601, 115.040 66.217 C 114.633 66.061, 113.744 66.604, 113.064 67.423 M 194 66.630 C 175.449 69.287, 162.650 73.080, 149.585 79.792 C 115.894 97.103, 91.451 130.065, 84.918 167 C 83.212 176.645, 83.212 199.355, 84.918 209 C 90.605 241.154, 110.499 271.290, 138.019 289.439 C 189.401 323.325, 258.383 313.749, 298.594 267.148 C 311.412 252.294, 321.710 231.676, 325.638 213 C 327.893 202.280, 328.158 175.820, 326.113 165.500 C 321.308 141.239, 309.922 119.880, 292.520 102.482 C 272.709 82.675, 247.822 70.548, 219.766 67.030 C 211.957 66.051, 199.406 65.856, 194 66.630 M 186.749 70.487 C 127.079 80.248, 83.543 133.085, 86.281 192.417 C 86.588 199.063, 87.364 206.975, 88.005 210 C 94.852 242.302, 112.616 268.946, 139.060 286.579 C 169.148 306.641, 204.104 311.964, 240 301.950 C 270.382 293.475, 299.315 268.889, 313.494 239.500 C 326.486 212.572, 328.707 179.881, 319.475 151.490 C 306.499 111.588, 273.224 81.301, 232 71.872 C 220.549 69.252, 198.432 68.575, 186.749 70.487 M 184.818 72.436 C 148.901 78.767, 116.818 102.697, 100.097 135.624 C 91.802 151.960, 88 168.484, 88 188.203 C 88 221.086, 100.568 250.214, 124.589 273.006 C 141.431 288.987, 161.558 299.080, 185.500 303.551 C 198.823 306.040, 221.921 305.107, 235.500 301.533 C 268.060 292.962, 296.357 270.074, 310.958 240.500 C 320.209 221.764, 323.292 208.639, 323.290 188 C 323.289 172.273, 321.248 160.211, 316.417 147.376 C 302.854 111.341, 271.440 83.365, 233.961 73.944 C 223.085 71.209, 196.418 70.392, 184.818 72.436 M 193.217 73.992 C 167.959 76.798, 145.085 87.389, 126.870 104.709 C 85.827 143.738, 78.671 203.449, 109.351 250.876 C 115.089 259.745, 127.139 272.422, 136.602 279.544 C 150.535 290.031, 166.512 297.086, 184 300.475 C 195.157 302.638, 217.016 302.628, 227.634 300.456 C 275.818 290.601, 311.748 253.494, 319.523 205.558 C 328.344 151.170, 295.331 97.203, 242.362 79.422 C 227.709 74.503, 208.106 72.337, 193.217 73.992 M 191.929 76.031 C 149.196 81.030, 111.401 111.933, 97.656 153.114 C 90.320 175.093, 90.741 203.204, 98.740 225.500 C 108.567 252.892, 129.375 276.201, 155.820 289.441 C 170.919 297.001, 194.333 301.712, 211.339 300.614 C 240.676 298.719, 265.319 287.748, 285.595 267.557 C 308.819 244.431, 320.023 215.983, 318.700 183.500 C 317.807 161.574, 312.164 144.127, 300.016 125.733 C 276.634 90.330, 234.667 71.032, 191.929 76.031 M 189.500 79.109 C 159.144 83.483, 130.056 102.066, 113.214 127.842 C 106.121 138.698, 101.812 148.517, 98.257 161.926 C 96.053 170.243, 95.716 173.600, 95.695 187.500 C 95.669 205.064, 96.759 211.802, 101.914 225.927 C 103.568 230.459, 106.539 237.060, 108.517 240.597 C 144.058 304.149, 228.843 317.341, 281.751 267.550 C 325.971 225.934, 327.758 156.597, 285.751 112.374 C 261.286 86.619, 224.825 74.018, 189.500 79.109 M 188.442 81.380 C 154.843 86.894, 125.441 107.955, 109.746 137.748 C 93.376 168.825, 92.910 204.230, 108.460 235.500 C 122.908 264.555, 147.648 284.454, 179.500 292.639 C 189.458 295.198, 192.016 295.457, 206.500 295.368 C 220.404 295.284, 223.810 294.925, 232.500 292.632 C 244.420 289.485, 261.852 281.112, 271.072 274.103 C 290.567 259.284, 305.203 237.192, 311.133 213.635 C 314.085 201.907, 314.745 181.268, 312.545 169.500 C 308.124 145.855, 297.659 126.429, 280.626 110.249 C 267.003 97.309, 250.264 88.008, 232.277 83.386 C 220.176 80.276, 200.622 79.381, 188.442 81.380 M 96.688 81.646 C 95.761 82.572, 95.810 85.993, 96.750 86.027 C 97.930 86.070, 105.218 93.115, 104.660 93.674 C 104.384 93.949, 100.861 93.487, 96.830 92.648 C 89.838 91.193, 89.410 91.211, 87.556 93.034 C 86.486 94.085, 85.811 95.086, 86.056 95.259 C 86.300 95.432, 90.238 98.890, 94.807 102.944 C 102.647 109.900, 103.209 110.218, 104.807 108.593 C 106.399 106.974, 106.367 106.762, 104.276 105.046 C 97.598 99.567, 95.792 97.875, 96.194 97.473 C 96.439 97.228, 100.157 97.700, 104.456 98.523 C 112.329 100.029, 115.047 99.539, 114.970 96.628 C 114.944 95.628, 99.915 81.916, 98.094 81.229 C 97.698 81.080, 97.066 81.268, 96.688 81.646 M 191.500 83.642 C 148.188 90.457, 114.475 120.380, 103.219 162 C 100.947 170.399, 100.650 173.413, 100.650 188 C 100.650 202.587, 100.947 205.601, 103.219 214 C 113.468 251.897, 142.005 279.976, 180.599 290.139 C 188.287 292.163, 191.749 292.473, 206 292.414 C 220.700 292.352, 223.578 292.050, 232.384 289.641 C 270.813 279.128, 297.795 251.665, 308.665 212 C 310.059 206.914, 310.446 201.693, 310.443 188 C 310.440 172.907, 310.124 169.331, 308.149 162 C 300.090 132.099, 278.846 106.434, 251.277 93.294 C 237.217 86.593, 225.366 83.877, 208.500 83.491 C 200.800 83.314, 193.150 83.382, 191.500 83.642 M 188.795 86.437 C 147.279 93.767, 114.833 123.985, 104.839 164.625 C 102.029 176.056, 101.774 197.623, 104.316 209 C 115.477 258.953, 160.881 293.622, 211.196 290.611 C 258.574 287.776, 297.560 254.172, 307.038 208 C 309.757 194.753, 309.350 176.199, 306.052 163.044 C 303.611 153.306, 297.154 139.102, 290.977 129.877 C 280.625 114.420, 261.139 99.050, 243.078 92.094 C 227.197 85.979, 204.681 83.633, 188.795 86.437 M 188.306 89.419 C 147.986 97.108, 116.937 126.540, 107.518 166 C 106.664 169.575, 105.693 177.675, 105.359 184 C 103.066 227.441, 131.178 268.243, 173.300 282.609 C 236.107 304.030, 302.885 259.026, 305.735 193.358 C 306.358 178.991, 305.010 168.361, 301.098 156.795 C 289.791 123.370, 264.241 99.830, 229.524 90.852 C 219.201 88.183, 198.553 87.464, 188.306 89.419 M 308.659 92.005 C 302.696 94.119, 297.569 96.097, 297.266 96.400 C 295.861 97.806, 299.445 100.061, 302.142 99.469 C 306.861 98.432, 311.977 105.623, 308.789 108.811 C 307.841 109.759, 308.020 110.464, 309.613 112.057 L 311.648 114.092 317.441 102.941 C 323.084 92.080, 323.186 91.743, 321.367 89.975 C 319.561 88.219, 319.147 88.285, 308.659 92.005 M 312.106 95.551 C 308.767 97.001, 308.742 97.057, 310.561 99.067 L 312.409 101.109 314.182 98.805 C 315.158 97.537, 315.966 95.938, 315.978 95.250 C 316.004 93.756, 316.294 93.734, 312.106 95.551 M 73.978 113.042 C 73.351 114.213, 72.987 115.299, 73.169 115.454 C 73.351 115.610, 76.987 117.637, 81.250 119.959 C 89.316 124.353, 90.575 126.282, 87.429 129.429 C 85.253 131.604, 84.685 131.493, 76.323 127.250 C 70.030 124.057, 68.790 123.723, 67.981 125 C 67.458 125.825, 67.024 126.841, 67.015 127.257 C 67.007 127.674, 70.756 129.877, 75.347 132.154 C 81.655 135.283, 84.349 136.129, 86.378 135.620 C 91.922 134.229, 95.139 123.811, 91.094 120.348 C 90.045 119.450, 86.022 116.960, 82.152 114.814 C 75.174 110.944, 75.108 110.929, 73.978 113.042 M 251.355 114.517 C 251.035 115.351, 250.994 117.186, 251.263 118.595 C 251.573 120.217, 251.248 121.352, 250.376 121.686 C 249.619 121.976, 249 123.114, 249 124.214 C 249 125.627, 249.464 126.036, 250.582 125.607 C 251.452 125.273, 252.352 125, 252.582 125 C 252.812 125, 253 123.666, 253 122.035 C 253 118.220, 255.823 116.507, 259.413 118.142 C 261.364 119.031, 262.287 119.007, 263.459 118.034 C 265.643 116.221, 264.230 114.704, 260.966 115.357 C 259.166 115.717, 257.745 115.397, 256.965 114.458 C 255.384 112.553, 252.095 112.588, 251.355 114.517 M 330.978 116.817 C 329.025 118.398, 328.753 119.501, 328.879 125.317 C 329.011 131.418, 328.847 132, 326.991 132 C 324.183 132, 322.175 127.550, 323.806 124.939 C 325.229 122.660, 325.263 121.965, 324.046 120.040 C 322.445 117.509, 319 121.582, 319 126.007 C 319 134.010, 325.907 139.256, 331.565 135.550 C 333.760 134.111, 334 133.266, 334 126.977 C 334 121.398, 334.305 120, 335.521 120 C 337.746 120, 339.617 124.551, 338.130 126.344 C 336.617 128.167, 337.789 131.187, 339.855 130.789 C 341.981 130.380, 343.457 125.957, 342.603 122.554 C 341.738 119.108, 337.689 115, 335.156 115 C 334.092 115, 332.212 115.818, 330.978 116.817 M 137.688 128.036 C 135.360 131.359, 135.570 132.430, 138.063 129.938 C 139.197 128.803, 139.956 127.369, 139.750 126.751 C 139.544 126.132, 138.616 126.710, 137.688 128.036 M 262.667 129.667 C 262.300 130.033, 262 131.622, 262 133.198 C 262 134.822, 261.350 136.312, 260.500 136.638 C 259.675 136.955, 259 138.099, 259 139.180 C 259 141.895, 262.404 141.147, 262.806 138.344 C 262.974 137.170, 264.005 135.401, 265.096 134.413 C 266.973 132.715, 267.237 132.709, 269.950 134.312 C 273.020 136.125, 276 135.673, 276 133.393 C 276 131.984, 274.937 131.623, 271.743 131.949 C 270.776 132.048, 269.281 131.424, 268.421 130.564 C 266.810 128.953, 263.843 128.490, 262.667 129.667 M 164 132.686 C 164 133.613, 163.213 135.322, 162.250 136.484 C 161.287 137.646, 161.738 137.330, 163.250 135.782 C 166.074 132.893, 166.766 131, 165 131 C 164.450 131, 164 131.758, 164 132.686 M 131.469 136.050 C 130.551 137.536, 131.281 138.062, 132.886 137.071 C 133.745 136.539, 133.848 136.024, 133.176 135.609 C 132.605 135.256, 131.837 135.455, 131.469 136.050 M 160.584 142.641 C 160.057 144.014, 160.204 144.076, 161.477 143.019 C 163.212 141.579, 163.393 141, 162.107 141 C 161.616 141, 160.931 141.739, 160.584 142.641 M 127 145 C 127 145.550, 127.450 146, 128 146 C 128.550 146, 129 145.550, 129 145 C 129 144.450, 128.550 144, 128 144 C 127.450 144, 127 144.450, 127 145 M 271.200 147.200 C 270.540 147.860, 270 149.449, 270 150.731 C 270 152.014, 269.325 153.322, 268.500 153.638 C 267.209 154.134, 266.250 158, 267.418 158 C 269.149 158, 271 156.498, 271 155.093 C 271 151.119, 275.887 149.683, 279.202 152.683 C 280.901 154.220, 281.200 154.229, 282.649 152.779 C 284.706 150.723, 283.423 148.677, 280.531 149.403 C 279.027 149.780, 277.685 149.310, 276.485 147.984 C 274.428 145.711, 272.914 145.486, 271.200 147.200 M 126.158 149 C 126.158 150.375, 126.385 150.938, 126.662 150.250 C 126.940 149.563, 126.940 148.438, 126.662 147.750 C 126.385 147.063, 126.158 147.625, 126.158 149 M 157 149.559 C 157 150.416, 157.450 150.840, 158 150.500 C 158.550 150.160, 159 149.459, 159 148.941 C 159 148.423, 158.550 148, 158 148 C 157.450 148, 157 148.702, 157 149.559 M 153.731 155.920 C 153.296 157.583, 153.426 157.974, 154.168 157.232 C 154.750 156.650, 155.028 155.585, 154.788 154.863 C 154.538 154.114, 154.085 154.568, 153.731 155.920 M 161 155.893 C 161 156.384, 161.675 157.045, 162.500 157.362 C 163.713 157.827, 164 160.136, 164 169.422 C 164 176.196, 164.490 181.981, 165.195 183.528 C 168.727 191.280, 184.957 190.503, 188.025 182.434 C 188.561 181.024, 189 175.004, 189 169.057 C 189 158.975, 189.152 158.138, 191.250 156.674 C 193.414 155.165, 193.289 155.104, 188 155.075 C 182.505 155.045, 182.502 155.046, 184.840 156.845 C 187.095 158.579, 187.168 159.069, 186.840 170.221 C 186.556 179.895, 186.187 182.141, 184.595 183.898 C 181.995 186.767, 174.539 186.875, 173.035 184.066 C 172.466 183.002, 172 176.477, 172 169.566 C 172 159.063, 172.246 157, 173.500 157 C 174.325 157, 175 156.550, 175 156 C 175 155.429, 172 155, 168 155 C 164.150 155, 161 155.402, 161 155.893 M 198.345 156.829 C 199.716 158.343, 200 161.013, 200 172.361 C 200 185.637, 199.930 186.093, 197.750 186.969 C 196.247 187.573, 200.368 187.894, 210.156 187.937 L 224.812 188 225.509 182.936 C 226.355 176.781, 225.606 175.615, 223.713 180.142 C 221.618 185.155, 219.879 186.151, 213.831 185.805 L 208.500 185.500 208.214 172 C 207.943 159.223, 208.042 158.406, 210.074 156.750 C 212.161 155.049, 212.003 155, 204.456 155 C 196.996 155, 196.755 155.072, 198.345 156.829 M 231.305 156.349 C 234.712 159.090, 234.834 187, 231.439 187 C 230.647 187, 229.999 187.338, 229.998 187.750 C 229.997 188.162, 235.363 188.275, 241.922 188 C 252.808 187.544, 254.073 187.289, 256.424 185.076 C 258.190 183.414, 259 181.605, 259 179.326 C 259 175.811, 256.139 172, 253.500 172 C 251.285 172, 251.678 170.237, 254.061 169.481 C 258.835 167.965, 259.038 160.381, 254.386 157.333 C 250.822 154.998, 228.441 154.043, 231.305 156.349 M 241.667 157.667 C 241.300 158.033, 241 160.958, 241 164.167 C 241 169.722, 241.119 170, 243.500 170 C 246.523 170, 250 166.766, 250 163.955 C 250 160.221, 243.794 155.539, 241.667 157.667 M 150.638 164.500 C 150.955 165.325, 151.343 166, 151.500 166 C 151.657 166, 152.045 165.325, 152.362 164.500 C 152.709 163.595, 152.367 163, 151.500 163 C 150.633 163, 150.291 163.595, 150.638 164.500 M 118 166.441 C 118 169.505, 118.570 169.753, 119.289 167.001 C 119.577 165.902, 119.404 164.750, 118.906 164.442 C 118.408 164.134, 118 165.034, 118 166.441 M 277.667 164.667 C 277.300 165.033, 277 166.277, 277 167.430 C 277 168.596, 276.052 169.964, 274.863 170.513 C 272.020 171.827, 271.965 173.424, 274.750 173.820 C 276.174 174.022, 277 173.620, 277 172.725 C 277 171.947, 277.909 170.487, 279.020 169.482 C 280.982 167.706, 281.125 167.716, 283.980 169.827 C 285.596 171.022, 287.645 172, 288.533 172 C 290.954 172, 289.878 168.557, 287.344 168.194 C 286.170 168.026, 284.417 167.013, 283.449 165.944 C 281.697 164.008, 278.935 163.398, 277.667 164.667 M 149 171.559 C 149 172.416, 149.450 172.840, 150 172.500 C 150.550 172.160, 151 171.459, 151 170.941 C 151 170.423, 150.550 170, 150 170 C 149.450 170, 149 170.702, 149 171.559 M 32.232 175 C 32.232 176.925, 32.438 177.713, 32.689 176.750 C 32.941 175.787, 32.941 174.213, 32.689 173.250 C 32.438 172.287, 32.232 173.075, 32.232 175 M 241.204 178.750 L 241.500 185.500 244.654 185.806 C 248.217 186.152, 251 183.269, 251 179.232 C 251 176.127, 246.720 172, 243.500 172 C 240.938 172, 240.912 172.077, 241.204 178.750 M 117 174.941 C 117 177.356, 117.556 177.599, 118.349 175.532 C 118.659 174.725, 118.482 173.798, 117.956 173.473 C 117.430 173.148, 117 173.809, 117 174.941 M 346.535 177.107 C 346.254 177.873, 345.413 180.300, 344.667 182.500 L 343.309 186.500 336.905 187 L 330.500 187.500 335.250 190.920 C 339.973 194.320, 340.884 196.404, 339.138 199.816 C 338.664 200.742, 337.966 202.797, 337.586 204.381 L 336.896 207.262 341.950 203.631 C 344.730 201.634, 347.228 200, 347.500 200 C 347.772 200, 350.246 201.617, 352.998 203.594 C 355.749 205.570, 358 206.991, 358 206.750 C 358 206.510, 357.130 203.784, 356.066 200.693 L 354.133 195.073 359.304 191.286 L 364.475 187.500 357.988 187 L 351.500 186.500 349.927 181.760 C 348.120 176.315, 347.260 175.135, 346.535 177.107 M 61.603 180.107 C 61.358 180.873, 60.525 183.525, 59.751 186 L 58.344 190.500 52.046 191 L 45.748 191.500 50.374 194.812 C 55.510 198.489, 55.643 198.926, 53.489 205.030 C 52.658 207.385, 52.188 209.521, 52.443 209.776 C 52.699 210.032, 54.817 208.837, 57.151 207.120 C 59.485 205.404, 61.787 204, 62.267 204 C 62.747 204, 65.165 205.393, 67.640 207.096 C 70.115 208.799, 72.301 210.032, 72.498 209.836 C 72.694 209.639, 72.022 207.018, 71.003 204.010 L 69.152 198.541 73.400 195.521 C 75.737 193.859, 77.727 192.098, 77.822 191.608 C 77.917 191.117, 75.453 190.667, 72.347 190.608 L 66.698 190.500 64.856 185.090 C 62.764 178.949, 62.232 178.134, 61.603 180.107 M 281.400 182.765 C 280.795 183.169, 279.766 184.512, 279.115 185.750 C 278.463 186.988, 277.094 188, 276.072 188 C 273.532 188, 272.650 190.675, 274.989 191.287 C 276.129 191.585, 277.634 190.855, 278.913 189.385 C 281.640 186.248, 283.478 186.375, 286.070 189.880 C 287.538 191.867, 288.802 192.603, 290.140 192.253 C 292.491 191.638, 292.107 189.834, 289.361 188.588 C 288.256 188.087, 286.618 186.400, 285.722 184.838 C 284.031 181.893, 283.260 181.523, 281.400 182.765 M 115.079 185.750 C 115.127 186.806, 115.359 187.002, 115.664 186.244 C 115.943 185.553, 116.652 185.285, 117.240 185.648 C 117.872 186.039, 118.017 185.837, 117.595 185.155 C 116.517 183.410, 114.990 183.771, 115.079 185.750 M 147 186 C 147 186.550, 147.450 187, 148 187 C 148.550 187, 149 186.550, 149 186 C 149 185.450, 148.550 185, 148 185 C 147.450 185, 147 185.450, 147 186 M 146.195 194.500 C 146.215 196.150, 146.439 196.704, 146.693 195.731 C 146.947 194.758, 146.930 193.408, 146.656 192.731 C 146.382 192.054, 146.175 192.850, 146.195 194.500 M 116 196.500 C 116 197.367, 116.595 197.709, 117.500 197.362 C 118.325 197.045, 119 196.657, 119 196.500 C 119 196.343, 118.325 195.955, 117.500 195.638 C 116.595 195.291, 116 195.633, 116 196.500 M 32.232 201 C 32.232 202.925, 32.438 203.713, 32.689 202.750 C 32.941 201.787, 32.941 200.213, 32.689 199.250 C 32.438 198.287, 32.232 199.075, 32.232 201 M 147.232 203 C 147.232 204.925, 147.438 205.713, 147.689 204.750 C 147.941 203.787, 147.941 202.213, 147.689 201.250 C 147.438 200.287, 147.232 201.075, 147.232 203 M 181.120 201.921 C 178.352 203.366, 178.052 203.806, 179.466 204.349 C 180.970 204.926, 181.148 206.242, 180.846 214.551 L 180.500 224.091 183.385 223.795 L 186.270 223.500 186.078 212.500 C 185.973 206.450, 185.575 201.197, 185.193 200.828 C 184.812 200.458, 182.979 200.950, 181.120 201.921 M 195.455 202.455 C 190.691 207.219, 193.094 215, 199.329 215 C 200.798 215, 202 215.255, 202 215.566 C 202 217.242, 199.488 220.353, 196.686 222.146 L 193.500 224.185 196.439 223.526 C 206.473 221.276, 211.482 209.328, 205.077 202.923 C 201.509 199.356, 198.691 199.218, 195.455 202.455 M 214.229 200.669 C 213.530 200.951, 212.264 202.523, 211.416 204.163 C 208.613 209.584, 211.371 215, 216.934 215 C 220.855 215, 218.755 219.465, 213.500 222.301 C 209.829 224.282, 211.845 224.520, 216.282 222.629 C 221.720 220.312, 224.279 216.686, 224.785 210.580 C 225.185 205.757, 224.946 204.855, 222.663 202.572 C 220.257 200.166, 217.196 199.476, 214.229 200.669 M 230.635 202.073 C 227.459 204.571, 227.275 207.275, 230.091 210.091 L 232.182 212.182 230.091 214.130 C 223.661 220.121, 233.331 227.460, 240.365 221.927 C 243.478 219.479, 243.745 216.217, 241.106 212.862 C 239.265 210.521, 239.263 210.393, 241.056 208.179 C 245.699 202.445, 236.795 197.227, 230.635 202.073 M 119.500 203 C 120.495 204.100, 121.535 205, 121.810 205 C 122.085 205, 121.495 204.100, 120.500 203 C 119.505 201.900, 118.465 201, 118.190 201 C 117.915 201, 118.505 201.900, 119.500 203 M 234.250 201.731 C 232.412 202.372, 232.729 205.444, 234.829 207.345 C 237.457 209.724, 238 209.426, 238 205.607 C 238 202.252, 236.676 200.884, 234.250 201.731 M 277.727 203 C 276.329 204.100, 274.270 205, 273.151 205 C 270.622 205, 269.399 206.799, 270.905 208.305 C 271.746 209.146, 272.947 208.945, 275.593 207.520 C 279.777 205.267, 282.323 206.230, 282.807 210.249 C 283.119 212.848, 286.673 214.727, 288.266 213.134 C 289.406 211.994, 288.050 209, 286.393 209 C 285.585 209, 285 207.981, 285 206.571 C 285 204.237, 282.713 201, 281.063 201 C 280.627 201, 279.126 201.900, 277.727 203 M 198 205.918 C 198 211.199, 198.825 213, 201.243 213 C 203.078 213, 203.212 212.562, 202.644 208.417 C 201.907 203.040, 201.388 202, 199.441 202 C 198.432 202, 198 203.173, 198 205.918 M 215.667 202.667 C 214.646 203.688, 214.874 208.896, 216.035 211.066 C 217.866 214.487, 220 213.420, 220 209.082 C 220 206.927, 219.727 204.452, 219.393 203.582 C 218.769 201.956, 216.849 201.485, 215.667 202.667 M 378.195 205.500 C 378.215 207.150, 378.439 207.704, 378.693 206.731 C 378.947 205.758, 378.930 204.408, 378.656 203.731 C 378.382 203.054, 378.175 203.850, 378.195 205.500 M 132.750 206.662 C 133.438 206.940, 134.563 206.940, 135.250 206.662 C 135.938 206.385, 135.375 206.158, 134 206.158 C 132.625 206.158, 132.063 206.385, 132.750 206.662 M 116.596 208.389 C 116.926 209.248, 117.943 209.566, 119.261 209.221 C 121.314 208.685, 121.321 208.636, 119.446 207.902 C 116.542 206.766, 116.008 206.857, 116.596 208.389 M 148.086 207.500 C 148.190 209.394, 149.856 212.584, 149.914 211 C 149.945 210.175, 149.533 208.825, 149 208 C 148.467 207.175, 148.055 206.950, 148.086 207.500 M 119.500 213 C 120.495 214.100, 121.535 215, 121.810 215 C 122.085 215, 121.495 214.100, 120.500 213 C 119.505 211.900, 118.465 211, 118.190 211 C 117.915 211, 118.505 211.900, 119.500 213 M 151.015 214.691 C 151.024 215.136, 151.467 216.175, 152 217 C 152.835 218.293, 152.971 218.266, 152.985 216.809 C 152.993 215.879, 152.550 214.840, 152 214.500 C 151.450 214.160, 151.007 214.246, 151.015 214.691 M 232.607 215.582 C 231.159 219.355, 233.402 223.551, 236.276 222.447 C 238.540 221.579, 238.481 217.745, 236.171 215.655 C 233.900 213.599, 233.372 213.588, 232.607 215.582 M 34.158 218 C 34.158 219.375, 34.385 219.938, 34.662 219.250 C 34.940 218.563, 34.940 217.438, 34.662 216.750 C 34.385 216.063, 34.158 216.625, 34.158 218 M 125.750 216.662 C 126.438 216.940, 127.563 216.940, 128.250 216.662 C 128.938 216.385, 128.375 216.158, 127 216.158 C 125.625 216.158, 125.063 216.385, 125.750 216.662 M 376.158 220 C 376.158 221.375, 376.385 221.938, 376.662 221.250 C 376.940 220.563, 376.940 219.438, 376.662 218.750 C 376.385 218.063, 376.158 218.625, 376.158 220 M 120 219.826 C 120 220.280, 121.234 221.742, 122.743 223.076 C 124.734 224.835, 125.008 224.930, 123.743 223.421 C 122.784 222.278, 122 220.815, 122 220.171 C 122 219.527, 121.550 219, 121 219 C 120.450 219, 120 219.372, 120 219.826 M 124.750 219.706 C 125.987 219.944, 128.012 219.944, 129.250 219.706 C 130.488 219.467, 129.475 219.272, 127 219.272 C 124.525 219.272, 123.513 219.467, 124.750 219.706 M 272.259 220.531 C 270.463 221.789, 269.714 221.838, 268.061 220.806 C 266.468 219.811, 265.794 219.806, 264.818 220.782 C 263.842 221.758, 263.904 222.333, 265.120 223.548 C 266.324 224.753, 267.241 224.859, 269.392 224.041 C 273.616 222.435, 276 224.199, 276 228.928 C 276 232.521, 277.159 234, 279.975 234 C 281.677 234, 281.982 230.637, 280.434 228.927 C 279.443 227.832, 279.069 226.358, 279.465 225.109 C 280.298 222.486, 278.427 219, 276.187 219 C 275.229 219, 273.461 219.689, 272.259 220.531 M 154 222.378 C 154 222.585, 154.685 223.324, 155.523 224.019 C 156.796 225.076, 156.943 225.014, 156.416 223.641 C 155.878 222.240, 154 221.257, 154 222.378 M 124 228.378 C 124 228.585, 124.600 229.253, 125.333 229.862 C 126.343 230.699, 126.667 230.608, 126.667 229.484 C 126.667 228.668, 126.067 228, 125.333 228 C 124.600 228, 124 228.170, 124 228.378 M 159.500 229 C 159.160 229.550, 159.610 230, 160.500 230 C 161.390 230, 161.840 229.550, 161.500 229 C 161.160 228.450, 160.710 228, 160.500 228 C 160.290 228, 159.840 228.450, 159.500 229 M 252.216 234.845 C 249.700 236.442, 252.020 239, 255.985 239 C 261.028 239, 262.782 241.091, 261.216 245.239 C 260.228 247.857, 260.312 248.515, 261.777 249.628 C 262.725 250.347, 263.789 250.951, 264.143 250.968 C 265.451 251.033, 265.997 247.701, 264.896 246.374 C 264.041 245.344, 264.065 244.258, 264.992 242.019 C 266.916 237.375, 265.718 235.640, 261.021 236.270 C 258.325 236.632, 256.711 236.357, 255.917 235.400 C 254.586 233.796, 254.007 233.709, 252.216 234.845 M 134.250 235.689 C 135.213 235.941, 136.787 235.941, 137.750 235.689 C 138.713 235.438, 137.925 235.232, 136 235.232 C 134.075 235.232, 133.287 235.438, 134.250 235.689 M 132.500 240 C 133.495 241.100, 134.469 242, 134.663 242 C 134.858 242, 134.455 241.100, 133.768 240 C 133.081 238.900, 132.107 238, 131.604 238 C 131.102 238, 131.505 238.900, 132.500 240 M 171.195 243.500 C 171.215 245.150, 171.439 245.704, 171.693 244.731 C 171.947 243.758, 171.930 242.408, 171.656 241.731 C 171.382 241.054, 171.175 241.850, 171.195 243.500 M 322.607 242.582 C 321.593 245.225, 321.752 245.385, 329.492 249.508 C 335.288 252.597, 336.985 253.993, 336.992 255.679 C 336.999 257.684, 334.671 261, 333.254 261 C 332.923 261, 329.148 259.196, 324.865 256.991 C 317.185 253.037, 317.064 253.011, 315.959 255.077 C 315.342 256.229, 314.987 257.312, 315.169 257.485 C 315.351 257.657, 319.259 259.715, 323.852 262.056 C 333.455 266.952, 335.867 266.805, 339.719 261.089 C 344.317 254.266, 342.621 251.127, 330.838 244.658 C 323.161 240.443, 323.404 240.505, 322.607 242.582 M 139 248 C 139 248.550, 139.450 249, 140 249 C 140.550 249, 141 248.550, 141 248 C 141 247.450, 140.550 247, 140 247 C 139.450 247, 139 247.450, 139 248 M 166.405 254.250 L 164.500 256.500 166.750 254.595 C 168.864 252.805, 169.455 252, 168.655 252 C 168.465 252, 167.453 253.012, 166.405 254.250 M 84.250 261.114 C 79.713 264.431, 76 267.514, 76 267.963 C 76 268.412, 78.065 271.586, 80.590 275.015 C 84.738 280.649, 85.329 281.100, 86.731 279.697 C 88.134 278.295, 87.981 277.764, 85.142 274.179 C 83.414 271.997, 82.003 269.827, 82.007 269.356 C 82.011 268.885, 83.669 267.375, 85.693 266 C 96.159 258.889, 97.187 257.931, 95.951 256.441 C 94.116 254.230, 93.119 254.629, 84.250 261.114 M 193.667 255.667 C 193.300 256.033, 193 259.408, 193 263.167 C 193 268.574, 193.313 270, 194.500 270 C 195.700 270, 196 268.500, 196 262.500 C 196 255.603, 195.422 253.911, 193.667 255.667 M 198.208 262.750 C 198.370 267.055, 198.944 270.500, 199.500 270.500 C 200.056 270.500, 200.630 267.055, 200.792 262.750 C 201.038 256.222, 200.834 255, 199.500 255 C 198.166 255, 197.962 256.222, 198.208 262.750 M 203 262.500 C 203 266.833, 203.422 270, 204 270 C 204.578 270, 205 266.833, 205 262.500 C 205 258.167, 204.578 255, 204 255 C 203.422 255, 203 258.167, 203 262.500 M 207 262.500 C 207 268.500, 207.300 270, 208.500 270 C 209.700 270, 210 268.500, 210 262.500 C 210 256.500, 209.700 255, 208.500 255 C 207.300 255, 207 256.500, 207 262.500 M 212.818 259.107 C 212.312 264.418, 212.974 270, 214.109 270 C 214.599 270, 215 268.650, 215 267 C 215 265.350, 215.338 264.001, 215.750 264.001 C 216.162 264.002, 220.325 264.677, 225 265.500 C 234.769 267.221, 238 267.371, 238 266.103 C 238 264.943, 226.833 263, 220.168 263 L 215 263 215 259 C 215 253.750, 213.321 253.832, 212.818 259.107 M 171.250 261.723 C 169.463 261.945, 168 262.615, 168 263.212 C 168 263.956, 170.592 264.095, 176.250 263.654 C 180.787 263.301, 186.188 263.009, 188.250 263.006 C 190.313 263.003, 192 262.550, 192 262 C 192 261.030, 178.307 260.848, 171.250 261.723 M 49 263.642 C 49 264.179, 49.700 265.491, 50.555 266.559 C 52.022 268.389, 52.042 268.357, 50.920 266 C 49.462 262.939, 49 262.372, 49 263.642 M 305.158 269.821 C 299.819 275.844, 299.208 276.928, 300.533 278.027 C 301.797 279.076, 302.478 278.900, 304.500 277 C 306.937 274.710, 307.851 274.851, 311 278 C 314.787 281.787, 320.335 286, 321.534 286 C 323.720 286, 324.622 282.929, 322.825 281.605 C 322 280.997, 318.767 278.289, 315.642 275.586 L 309.959 270.672 312.173 268.316 C 314.166 266.195, 314.233 265.805, 312.849 264.420 C 311.464 263.036, 310.695 263.576, 305.158 269.821 M 55 275 C 55.589 276.100, 56.295 277, 56.570 277 C 56.845 277, 56.589 276.100, 56 275 C 55.411 273.900, 54.705 273, 54.430 273 C 54.155 273, 54.411 273.900, 55 275 M 102.500 281.844 C 97.550 283.925, 92.651 285.947, 91.614 286.335 C 89.826 287.005, 89.817 287.141, 91.446 288.940 C 92.874 290.519, 93.660 290.666, 96.107 289.813 C 98.776 288.882, 99.318 289.093, 101.921 292.075 C 104.332 294.836, 104.625 295.730, 103.749 297.652 C 102.734 299.880, 104.034 303, 105.979 303 C 106.854 303, 116 283.557, 116 281.695 C 116 280.122, 113.992 277.989, 112.550 278.029 C 111.972 278.045, 107.450 279.762, 102.500 281.844 M 105.750 285.299 C 102.486 286.589, 102.379 287.128, 104.928 289.435 C 106.782 291.113, 106.916 291.063, 108.428 288.139 C 110.813 283.527, 110.656 283.361, 105.750 285.299 M 286.789 287.750 C 285.415 289.331, 285.594 290.556, 288.642 300.425 C 290.498 306.433, 292.218 311.552, 292.465 311.798 C 292.712 312.045, 293.657 311.962, 294.566 311.613 C 295.825 311.130, 296.074 310.208, 295.611 307.738 C 295.076 304.891, 295.433 304.155, 298.551 301.667 C 301.870 299.019, 302.251 298.934, 304.432 300.364 C 306.365 301.630, 307.069 301.670, 308.535 300.598 C 309.509 299.886, 310.016 298.835, 309.662 298.263 C 309.075 297.312, 289.788 286, 288.755 286 C 288.510 286, 287.625 286.788, 286.789 287.750 M 120.621 300.570 C 117.387 305.797, 114.919 310.252, 115.135 310.468 C 116.974 312.308, 127.833 318, 129.503 318 C 132.955 318, 136.291 314.205, 135.651 311.006 C 135.214 308.818, 135.575 308.059, 137.466 307.198 C 140.384 305.868, 141.474 302.755, 139.992 299.985 C 138.923 297.987, 128.966 290.965, 127.298 291.032 C 126.859 291.050, 123.854 295.342, 120.621 300.570 M 291 293.453 C 291 293.936, 293.207 299.221, 293.696 299.911 C 293.857 300.136, 294.898 299.498, 296.010 298.491 C 298.029 296.664, 298.027 296.658, 295.266 294.837 C 292.560 293.053, 291 292.547, 291 293.453 M 69.500 296 C 70.495 297.100, 71.535 298, 71.810 298 C 72.085 298, 71.495 297.100, 70.500 296 C 69.505 294.900, 68.465 294, 68.190 294 C 67.915 294, 68.505 294.900, 69.500 296 M 127.607 298.582 C 126.614 301.171, 126.845 301.556, 130.422 303.261 C 133.523 304.740, 133.965 304.747, 135.142 303.328 C 136.246 301.999, 135.994 301.406, 133.471 299.387 C 129.996 296.607, 128.446 296.394, 127.607 298.582 M 76 303.500 C 77.866 305.425, 79.617 307, 79.892 307 C 80.167 307, 78.866 305.425, 77 303.500 C 75.134 301.575, 73.383 300, 73.108 300 C 72.833 300, 74.134 301.575, 76 303.500 M 262.750 303.064 C 259.587 304.696, 257 306.324, 257 306.680 C 257 307.539, 266.017 325.266, 266.994 326.328 C 267.847 327.255, 278.808 321.537, 280.750 319.153 C 283.454 315.833, 281.045 309, 277.171 309 C 276.527 309, 276 307.676, 276 306.057 C 276 303.001, 272.973 299.955, 270.027 300.048 C 269.187 300.075, 265.913 301.432, 262.750 303.064 M 122.175 307.092 C 121.052 308.889, 121.124 309.381, 122.684 310.585 C 126.547 313.565, 131 313.527, 131 310.514 C 131 308.994, 126.368 305, 124.606 305 C 123.987 305, 122.893 305.941, 122.175 307.092 M 148.073 312.968 C 146.383 317.350, 145 321.655, 145 322.533 C 145 327.071, 150.288 331, 156.394 331 C 160.661 331, 161.925 329.390, 165.624 319.250 C 167.894 313.026, 168.103 311.678, 166.916 310.928 C 164.539 309.425, 163.804 310.310, 160.733 318.376 C 159.106 322.651, 157.121 326.400, 156.323 326.706 C 155.525 327.012, 153.727 326.741, 152.327 326.103 C 149.331 324.738, 149.434 322.980, 153.086 313.195 C 155.111 307.767, 155.234 306.760, 153.969 305.960 C 153.161 305.449, 152.195 305.024, 151.823 305.015 C 151.450 305.007, 149.763 308.585, 148.073 312.968 M 265.250 306.201 C 262.631 307.487, 262.528 307.972, 264.345 310.457 C 265.649 312.241, 265.785 312.240, 268.873 310.416 C 274.256 307.236, 270.958 303.400, 265.250 306.201 M 244.011 311.750 C 244.017 312.712, 244.692 315.709, 245.511 318.409 C 246.330 321.109, 247 323.765, 247 324.311 C 247 324.857, 244.333 322.761, 241.074 319.652 C 237.016 315.781, 234.337 314, 232.574 314 C 231.158 314, 230 314.338, 230 314.752 C 230 315.869, 235.871 336.204, 236.324 336.658 C 237.064 337.397, 240 335.783, 239.989 334.643 C 239.983 334.014, 239.308 331.291, 238.489 328.591 C 237.670 325.891, 237 323.205, 237 322.622 C 237 322.040, 239.601 324.136, 242.779 327.281 C 248.170 332.616, 252.029 334.381, 253.411 332.144 C 253.702 331.673, 252.604 326.611, 250.970 320.896 C 249.337 315.180, 248 310.391, 248 310.252 C 248 310.113, 247.100 310, 246 310 C 244.758 310, 244.004 310.663, 244.011 311.750 M 269.779 314.537 C 267.347 315.875, 267.178 316.297, 268.190 318.517 C 269.554 321.511, 269.639 321.518, 273.818 318.970 C 279.764 315.344, 275.940 311.147, 269.779 314.537 M 89 316.500 C 90.292 317.875, 91.574 319, 91.849 319 C 92.124 319, 91.292 317.875, 90 316.500 C 88.708 315.125, 87.426 314, 87.151 314 C 86.876 314, 87.708 315.125, 89 316.500 M 176.533 315.250 C 176.020 316.839, 174 332.711, 174 335.159 C 174 336.456, 174.739 337, 176.500 337 C 178.651 337, 179.002 336.546, 179.015 333.750 C 179.038 328.925, 180.150 327.816, 184.602 328.181 L 188.500 328.500 188.152 333.832 C 187.819 338.936, 187.905 339.151, 190.152 338.832 C 192.313 338.526, 192.592 337.785, 193.664 329.500 C 195.397 316.099, 195.389 316, 192.560 316 C 190.463 316, 190.077 316.526, 189.810 319.750 C 189.502 323.477, 189.473 323.500, 185.033 323.500 L 180.567 323.500 180.859 318.750 C 181.121 314.494, 180.932 314, 179.044 314 C 177.885 314, 176.755 314.563, 176.533 315.250 M 206.534 327.322 C 204.590 333.549, 203 338.949, 203 339.322 C 203 339.695, 204.026 340, 205.281 340 C 206.897 340, 207.892 339.125, 208.694 337 C 209.717 334.289, 210.253 334, 214.253 334 C 218.004 334, 218.853 334.381, 219.818 336.500 C 220.871 338.811, 223.834 339.832, 225.283 338.383 C 225.622 338.044, 223.444 332.869, 220.442 326.883 C 215.722 317.472, 214.651 316, 212.526 316 C 210.269 316, 209.781 316.923, 206.534 327.322 M 95.500 322 C 96.495 323.100, 97.535 324, 97.810 324 C 98.085 324, 97.495 323.100, 96.500 322 C 95.505 320.900, 94.465 320, 94.190 320 C 93.915 320, 94.505 320.900, 95.500 322 M 211.986 324.250 C 211.979 324.938, 211.701 326.512, 211.370 327.750 C 210.852 329.680, 211.154 330, 213.490 330 C 215.692 330, 216.076 329.665, 215.494 328.250 C 215.097 327.288, 214.547 325.712, 214.270 324.750 C 213.693 322.745, 212.007 322.376, 211.986 324.250 M 290.441 338.555 C 288.577 340.049, 288.589 340.067, 290.750 339.020 C 291.988 338.420, 293 337.720, 293 337.465 C 293 336.700, 292.481 336.921, 290.441 338.555 M 224.750 359.662 C 225.438 359.940, 226.563 359.940, 227.250 359.662 C 227.938 359.385, 227.375 359.158, 226 359.158 C 224.625 359.158, 224.063 359.385, 224.750 359.662" stroke="none" fill="#dfdfd7" fill-rule="evenodd"/><path d="M 186 16.630 C 176.026 18.059, 168.655 19.388, 163.500 20.686 C 160.200 21.518, 156.639 22.367, 155.586 22.573 C 151.547 23.365, 143.171 26.475, 135.152 30.161 C 83.456 53.923, 48.152 97.479, 35.584 153 C 31.628 170.477, 31.628 205.542, 35.585 223 C 44.727 263.343, 66.537 298.372, 97.872 323.038 C 102.067 326.341, 106.044 329.483, 106.708 330.022 C 107.372 330.560, 108.164 331, 108.468 331 C 108.772 331, 111.240 332.560, 113.952 334.466 C 119.676 338.489, 143.161 350.061, 146.043 350.278 C 147.119 350.359, 148 350.828, 148 351.320 C 148 351.812, 148.646 351.966, 149.435 351.663 C 150.225 351.360, 151.015 351.545, 151.191 352.073 C 151.367 352.601, 152.859 353.229, 154.506 353.469 C 156.152 353.708, 162.900 355.140, 169.500 356.650 C 180.664 359.205, 183.102 359.400, 204.500 359.448 C 223.042 359.490, 229.341 359.138, 237 357.635 C 242.225 356.609, 247.175 355.659, 248 355.524 C 248.825 355.388, 250.327 354.927, 251.338 354.498 C 252.349 354.069, 254.149 353.614, 255.338 353.487 C 256.527 353.359, 257.500 353.163, 257.500 353.051 C 257.500 352.939, 258.381 352.683, 259.457 352.482 C 260.534 352.281, 262.334 351.693, 263.457 351.175 C 264.581 350.657, 269.936 348.293, 275.358 345.922 C 280.779 343.551, 289.500 338.998, 294.737 335.805 C 299.974 332.612, 304.613 330, 305.046 330 C 305.479 330, 305.983 329.663, 306.167 329.250 C 306.350 328.837, 308.525 326.950, 311 325.056 C 317.528 320.061, 329.923 309.040, 333.411 305.131 C 371.999 261.875, 386.637 207.420, 374.978 150.500 C 369.853 125.477, 356.161 98.098, 337.882 76.319 C 330.883 67.979, 316.484 54.510, 309.748 50 C 307.694 48.625, 306.011 47.163, 306.007 46.750 C 306.003 46.337, 305.586 46, 305.079 46 C 304.573 46, 300.418 43.680, 295.846 40.844 C 286.495 35.045, 268.311 26.021, 265.950 26.008 C 265.097 26.004, 263.963 25.563, 263.429 25.029 C 262.894 24.494, 261.567 23.919, 260.479 23.750 C 259.390 23.581, 257.938 23.091, 257.250 22.662 C 256.563 22.233, 255.550 22.160, 255 22.500 C 254.450 22.840, 254 22.656, 254 22.090 C 254 21.525, 253.371 21.304, 252.601 21.600 C 251.832 21.895, 250.901 21.648, 250.532 21.052 C 250.163 20.455, 249.507 20.187, 249.073 20.455 C 248.640 20.723, 246.758 20.480, 244.892 19.915 C 243.027 19.350, 239.925 18.670, 238 18.404 C 236.075 18.138, 231.575 17.497, 228 16.980 C 221.900 16.097, 191.488 15.844, 186 16.630 M 184 18.171 C 161.970 21.797, 145.152 26.902, 129.591 34.689 C 81.463 58.772, 48.322 101.765, 36.851 155 C 34.879 164.151, 34.588 168.390, 34.588 188 C 34.588 207.610, 34.879 211.849, 36.851 221 C 41.883 244.353, 52.004 267.941, 64.740 286 C 74.750 300.193, 94.901 319.883, 109 329.248 C 144.847 353.058, 186.085 362.908, 227.300 357.505 C 284.706 349.980, 332.925 316.099, 358.952 265 C 379.953 223.767, 383.307 176.957, 368.401 133.083 C 348.336 74.018, 296.887 30.329, 234.500 19.378 C 224.117 17.555, 192.356 16.796, 184 18.171 M 185 21.090 C 134.752 27.552, 90.512 55.467, 62.584 98.332 C 57.234 106.543, 47.673 126.978, 44.627 136.712 C 39.456 153.234, 37.867 163.390, 37.307 183.500 C 36.846 200.068, 37.060 204.164, 38.977 215.500 C 45.044 251.368, 62.205 283.789, 88.232 308.559 C 113.577 332.679, 140.986 346.694, 176.500 353.692 C 183.391 355.050, 190.303 355.457, 206 355.429 C 224.324 355.397, 227.838 355.109, 239.102 352.721 C 306.050 338.524, 357.270 288.087, 370.988 222.849 C 378.956 184.955, 374.049 147.649, 356.475 112.500 C 331.301 62.153, 282.484 28.192, 225.026 21.053 C 215.298 19.844, 194.536 19.863, 185 21.090 M 184 24.016 C 110.824 33.993, 53.096 90.039, 41.491 162.369 C 39.217 176.543, 39.435 201.497, 41.962 216.279 C 50.644 267.060, 84.204 312.114, 130.598 335.271 C 154.995 347.448, 178.084 352.942, 205.026 352.982 C 220.876 353.005, 231.318 351.742, 246.729 347.939 C 324.446 328.759, 378.093 254.311, 371.170 175.248 C 368.602 145.925, 360.250 121.286, 345.036 98.148 C 319.888 59.905, 282.315 34.838, 236 25.404 C 227.121 23.595, 193.639 22.701, 184 24.016 M 191.279 27.002 C 157.853 29.887, 124.121 44.237, 98.887 66.307 C 59.851 100.448, 39.256 150.987, 43.814 201.450 C 51.027 281.312, 114.038 343.256, 193.815 348.913 C 213.133 350.283, 229.019 348.812, 247.714 343.924 C 338.083 320.297, 389.805 223.721, 359.291 135.591 C 346.521 98.708, 319.830 66.658, 285.855 47.409 C 258.481 31.901, 223.066 24.259, 191.279 27.002 M 199.667 36.667 C 199.300 37.033, 199 42.208, 199 48.167 L 199 59 201.500 59 C 203.796 59, 204 58.633, 204 54.500 C 204 48.145, 206.803 48.330, 211.595 55 C 214.943 59.659, 218.073 61.309, 219.423 59.125 C 219.720 58.644, 218.586 56.348, 216.902 54.024 L 213.841 49.798 215.921 47.585 C 218.738 44.585, 218.667 39.580, 215.777 37.557 C 213.523 35.978, 201.045 35.288, 199.667 36.667 M 171 39.738 C 167.425 40.565, 164.316 41.409, 164.090 41.614 C 163.515 42.136, 168.086 62.317, 169.009 63.333 C 169.426 63.792, 173.419 63.346, 177.883 62.342 C 184.542 60.846, 186 60.178, 186 58.623 C 186 56.925, 185.507 56.805, 181.250 57.471 C 172.840 58.785, 172.527 58.730, 172.194 55.863 C 171.915 53.450, 172.319 53.123, 176.948 52.013 C 182.487 50.684, 183.280 50.071, 182.047 48.075 C 181.374 46.986, 180.292 46.970, 176.059 47.986 C 170.378 49.349, 170.340 49.340, 169.845 46.567 C 169.559 44.963, 170.477 44.392, 175.250 43.209 C 179.722 42.101, 181 41.364, 181 39.892 C 181 37.674, 179.988 37.658, 171 39.738 M 204.667 40.667 C 204.300 41.033, 204 42.383, 204 43.667 C 204 45.710, 204.482 46, 207.878 46 C 212.489 46, 214.945 43.843, 213 41.500 C 211.753 39.997, 205.919 39.414, 204.667 40.667 M 238.102 41.716 C 234.929 44.285, 234.981 48.746, 238.214 51.444 C 239.569 52.575, 241.988 54.470, 243.589 55.654 C 246.196 57.584, 246.342 57.973, 244.994 59.375 C 242.881 61.571, 239.241 60.366, 237.434 56.873 C 235.879 53.865, 232 52.851, 232 55.453 C 232 59.001, 234.478 62.017, 238.727 63.640 C 244.024 65.663, 247.716 64.761, 249.873 60.918 C 252.167 56.831, 250.678 53.589, 244.865 50.012 C 240.468 47.306, 239.925 46.646, 241.118 45.454 C 242.902 43.670, 246.749 44.633, 247.518 47.057 C 248.101 48.894, 251.663 50.670, 252.695 49.638 C 252.995 49.338, 252.954 47.953, 252.604 46.559 C 251.296 41.348, 242.276 38.336, 238.102 41.716 M 143.336 49.064 C 142.583 49.817, 142.680 52.079, 143.666 56.785 C 145.762 66.783, 145.309 67.107, 138.300 60.617 C 132.655 55.391, 131.897 54.985, 129.839 56.086 C 127.643 57.261, 127.807 57.508, 135.539 64.672 C 145.471 73.875, 146.153 74.282, 148.683 72.509 C 150.587 71.176, 150.618 70.747, 149.378 62.807 C 148.664 58.238, 147.817 53.038, 147.495 51.250 C 146.903 47.965, 145.285 47.115, 143.336 49.064 M 266.068 61.151 C 260.968 70.781, 260.787 71.371, 262.543 72.655 C 264.825 74.324, 264.675 74.500, 270.514 63.290 C 274.530 55.583, 275.103 53.829, 274.033 52.540 C 273.330 51.693, 272.460 51, 272.099 51 C 271.739 51, 269.025 55.568, 266.068 61.151 M 288.326 62.592 C 287.895 63.715, 288.418 64.920, 289.833 66.066 C 291.025 67.031, 292 68.149, 292 68.550 C 292 68.951, 289.471 72.409, 286.380 76.234 C 281.096 82.774, 280.863 83.288, 282.476 84.845 C 284.080 86.393, 284.427 86.216, 287.845 82.095 C 297.219 70.798, 296.576 71.306, 298.870 73.383 C 300.867 75.189, 304 75.027, 304 73.117 C 304 72.280, 293.518 63.508, 290.243 61.604 C 289.488 61.165, 288.722 61.560, 288.326 62.592 M 113.064 67.423 C 112.384 68.242, 112.176 69.495, 112.602 70.206 C 113.336 71.435, 123.414 84.485, 125.113 86.408 C 125.917 87.317, 129 85.439, 129 84.040 C 129 83.143, 116.044 66.601, 115.040 66.217 C 114.633 66.061, 113.744 66.604, 113.064 67.423 M 194 66.630 C 175.449 69.287, 162.650 73.080, 149.585 79.792 C 115.894 97.103, 91.451 130.065, 84.918 167 C 83.212 176.645, 83.212 199.355, 84.918 209 C 93.536 257.724, 132.179 297.235, 181.078 307.322 C 223.978 316.170, 269.817 300.499, 298.599 267.143 C 311.419 252.285, 321.738 231.698, 325.486 213.500 C 330.379 189.742, 327.727 161.928, 318.543 140.684 C 301.104 100.350, 263.829 72.555, 219.766 67.030 C 211.957 66.051, 199.406 65.856, 194 66.630 M 186.749 70.490 C 148.849 76.675, 115.330 101.284, 98.708 135.127 C 90.662 151.507, 87.291 164.402, 86.322 182.500 C 83.749 230.558, 112.360 276.933, 156.574 296.373 C 225.354 326.614, 304.143 288.207, 322.085 215.693 C 325.123 203.412, 325.795 181.115, 323.510 168.376 C 314.670 119.089, 278.941 82.105, 229.838 71.411 C 219.600 69.182, 197.640 68.712, 186.749 70.490 M 195.212 71.113 C 166.184 73.779, 140.681 86.079, 120.418 107.185 C 105.447 122.779, 96.768 138.314, 90.814 160.173 C 88.813 167.520, 88.549 170.795, 88.572 188 C 88.596 205.971, 88.808 208.275, 91.277 217.388 C 103.354 261.978, 139.620 295.148, 185.500 303.569 C 199.140 306.072, 222.168 305.155, 235.500 301.578 C 273.617 291.350, 304.839 262.504, 317.300 226 C 321.672 213.192, 323.398 202.618, 323.423 188.500 C 323.457 168.555, 319.688 152.229, 311.156 135.354 C 293.118 99.682, 255.087 73.841, 217.099 71.446 C 212.370 71.148, 207.375 70.780, 206 70.628 C 204.625 70.476, 199.770 70.694, 195.212 71.113 M 193.500 73.989 C 155.262 78.394, 122.018 100.725, 104.159 134 C 86.540 166.830, 85.932 205.166, 102.503 238.500 C 109.079 251.729, 115.208 260.068, 125.785 270.172 C 142.731 286.362, 162.029 296.316, 184.725 300.572 C 198.246 303.107, 223.297 302.133, 235.965 298.579 C 271.662 288.564, 300.205 262.698, 313.367 228.436 C 318.760 214.397, 320.454 204.691, 320.424 188 C 320.393 171.270, 318.662 161.347, 313.367 147.564 C 299.091 110.403, 266.135 82.723, 227.588 75.516 C 217.993 73.723, 202.022 73.007, 193.500 73.989 M 194 75.694 C 144.937 80.943, 104.463 117.419, 94.573 165.301 C 86.932 202.293, 98.523 240.683, 125.440 267.542 C 163.814 305.830, 222.626 311.568, 269.027 281.551 C 285.023 271.204, 302.665 249.966, 310.099 232.108 C 323.459 200.015, 321.413 162.325, 304.729 133.221 C 298.072 121.609, 292.706 114.791, 283.337 106.041 C 273.644 96.989, 266.532 92.126, 254.720 86.472 C 235.961 77.492, 213.861 73.570, 194 75.694 M 189.500 79.109 C 159.144 83.483, 130.056 102.066, 113.214 127.842 C 106.121 138.698, 101.812 148.517, 98.257 161.926 C 96.053 170.243, 95.716 173.600, 95.695 187.500 C 95.669 205.146, 96.725 211.607, 102.033 226.279 C 107.707 241.959, 119.561 259.225, 132.005 269.935 C 141.052 277.722, 146.246 281.190, 156.675 286.409 C 197.535 306.857, 247.122 299.619, 281.055 268.254 C 298.539 252.093, 310.783 229.504, 314.527 206.500 C 322.203 159.344, 299.807 113.643, 258 91.149 C 238.117 80.451, 212.017 75.864, 189.500 79.109 M 187.173 81.534 C 117.424 93.784, 77.271 169.301, 106.895 232.517 C 135.606 293.784, 211.310 314.818, 267 277 C 296.359 257.063, 314 223.657, 314 188 C 314 158.081, 302.591 131.395, 280.838 110.428 C 267.529 97.601, 250.445 88.078, 232.277 83.359 C 219.871 80.137, 199.759 79.323, 187.173 81.534 M 96.688 81.646 C 95.761 82.572, 95.810 85.993, 96.750 86.027 C 97.930 86.070, 105.218 93.115, 104.660 93.674 C 104.384 93.949, 100.861 93.487, 96.830 92.648 C 89.838 91.193, 89.410 91.211, 87.556 93.034 C 86.486 94.085, 85.811 95.086, 86.056 95.259 C 86.300 95.432, 90.238 98.890, 94.807 102.944 C 102.559 109.822, 103.225 110.203, 104.780 108.649 C 106.335 107.094, 106.094 106.675, 101.175 102.372 C 98.277 99.836, 96.070 97.597, 96.272 97.395 C 96.474 97.193, 100.157 97.700, 104.456 98.523 C 112.329 100.029, 115.047 99.539, 114.970 96.628 C 114.944 95.628, 99.915 81.916, 98.094 81.229 C 97.698 81.080, 97.066 81.268, 96.688 81.646 M 191.500 83.642 C 148.188 90.457, 114.475 120.380, 103.219 162 C 100.947 170.399, 100.650 173.413, 100.650 188 C 100.650 202.587, 100.947 205.601, 103.219 214 C 118.555 270.703, 176.112 304.365, 232.384 289.541 C 270.415 279.522, 297.785 251.700, 308.665 212 C 310.059 206.914, 310.446 201.693, 310.443 188 C 310.440 172.907, 310.124 169.331, 308.149 162 C 300.090 132.099, 278.846 106.434, 251.277 93.294 C 237.217 86.593, 225.366 83.877, 208.500 83.491 C 200.800 83.314, 193.150 83.382, 191.500 83.642 M 190.539 86.042 C 149.257 92.543, 115.660 122.846, 105.418 162.817 C 99.709 185.100, 101.903 209.935, 111.397 230.482 C 129.106 268.811, 169.179 293.023, 211 290.662 C 258.313 287.990, 297.551 254.217, 307.038 208 C 309.757 194.753, 309.350 176.199, 306.052 163.044 C 303.600 153.264, 297.127 139.046, 290.953 129.877 C 277.710 110.213, 255.059 94.492, 231.119 88.351 C 220.241 85.561, 200.668 84.447, 190.539 86.042 M 188.306 89.419 C 147.986 97.108, 116.937 126.540, 107.518 166 C 104.959 176.718, 104.476 194.040, 106.445 204.445 C 114.590 247.486, 146.316 279.078, 188.881 286.532 C 247.619 296.819, 303.167 252.527, 305.735 193.358 C 306.555 174.456, 303.221 158.288, 295.248 142.500 C 282.417 117.092, 258.591 98.369, 229.524 90.852 C 219.201 88.183, 198.553 87.464, 188.306 89.419 M 308.659 92.005 C 302.696 94.119, 297.569 96.097, 297.266 96.400 C 295.861 97.806, 299.445 100.061, 302.142 99.469 C 306.861 98.432, 311.977 105.623, 308.789 108.811 C 307.841 109.759, 308.020 110.464, 309.613 112.057 L 311.648 114.092 317.441 102.941 C 323.084 92.080, 323.186 91.743, 321.367 89.975 C 319.561 88.219, 319.147 88.285, 308.659 92.005 M 312.750 95.233 C 309.758 96.249, 309.211 98.100, 311.374 99.895 C 312.451 100.789, 313.111 100.479, 314.437 98.457 C 316.650 95.078, 316.131 94.086, 312.750 95.233 M 73.982 113.035 C 73.353 114.210, 72.987 115.299, 73.169 115.454 C 73.351 115.610, 76.987 117.637, 81.250 119.959 C 89.316 124.353, 90.575 126.282, 87.429 129.429 C 85.253 131.604, 84.685 131.493, 76.323 127.250 C 70.030 124.057, 68.790 123.723, 67.981 125 C 67.458 125.825, 67.024 126.841, 67.015 127.257 C 67.007 127.674, 70.809 129.904, 75.465 132.213 C 82.619 135.761, 84.361 136.263, 86.715 135.454 C 90.585 134.125, 94.217 126.920, 92.908 123.167 C 91.890 120.245, 91.788 120.167, 81.813 114.618 C 75.159 110.917, 75.119 110.909, 73.982 113.035 M 251.667 113.667 C 251.300 114.033, 251 115.807, 251 117.608 C 251 119.409, 250.550 121.160, 250 121.500 C 249.450 121.840, 249 123.024, 249 124.132 C 249 127.101, 252.416 126.086, 252.846 122.990 C 253.036 121.620, 253.654 119.938, 254.218 119.250 C 255.525 117.659, 259.235 117.635, 260.807 119.207 C 261.750 120.150, 262.367 120.062, 263.625 118.803 C 265.858 116.571, 264.392 114.672, 260.966 115.357 C 259.166 115.717, 257.745 115.397, 256.965 114.458 C 255.707 112.942, 252.822 112.511, 251.667 113.667 M 330.978 116.817 C 329.025 118.398, 328.753 119.501, 328.879 125.317 C 329.011 131.418, 328.847 132, 326.991 132 C 324.183 132, 322.175 127.550, 323.806 124.939 C 325.229 122.660, 325.263 121.965, 324.046 120.040 C 322.445 117.509, 319 121.582, 319 126.007 C 319 134.010, 325.907 139.256, 331.565 135.550 C 333.760 134.111, 334 133.266, 334 126.977 C 334 121.398, 334.305 120, 335.521 120 C 337.746 120, 339.617 124.551, 338.130 126.344 C 336.617 128.167, 337.789 131.187, 339.855 130.789 C 341.981 130.380, 343.457 125.957, 342.603 122.554 C 341.738 119.108, 337.689 115, 335.156 115 C 334.092 115, 332.212 115.818, 330.978 116.817 M 159.619 118.082 C 155.882 119.139, 152.340 122.510, 151.516 125.793 C 151.001 127.844, 150.668 128.089, 149.947 126.948 C 149.443 126.152, 149.024 124.037, 149.015 122.250 C 149.007 120.463, 148.510 119, 147.910 119 C 145.943 119, 143.046 123.424, 142.345 127.500 L 141.657 131.500 140.460 128.584 L 139.264 125.668 137.403 128.507 C 136.302 130.187, 135.586 132.974, 135.648 135.335 L 135.752 139.323 133.999 136.998 L 132.245 134.673 131.010 136.981 C 130.289 138.329, 130.001 140.995, 130.318 143.394 C 130.821 147.190, 130.751 147.349, 129.391 145.505 C 128.131 143.794, 127.786 143.723, 126.976 145.005 C 126.456 145.827, 126.024 148.173, 126.015 150.219 C 126.003 153.110, 125.666 153.809, 124.500 153.362 C 123.291 152.898, 123 153.747, 123 157.740 C 123 162.052, 123.455 163.162, 126.514 166.312 C 128.580 168.439, 131.739 170.391, 134.178 171.048 L 138.326 172.165 135.464 174.447 L 132.603 176.728 131.051 173.869 C 129.808 171.577, 120.104 164, 118.413 164 C 117.388 164, 118.151 169.390, 119.561 172.117 C 121.083 175.061, 121.071 175.108, 119.061 174.032 C 117.289 173.084, 117 173.219, 117 174.997 C 117 178.331, 119.603 183.609, 122.117 185.369 C 125.090 187.452, 122.850 187.491, 118.857 185.426 C 115.248 183.560, 114.532 184, 115.421 187.540 C 116.869 193.311, 123.611 196.982, 132.780 196.994 L 137.060 197 134.849 199.991 C 132.853 202.690, 132.475 202.835, 130.976 201.478 C 129.610 200.242, 117.655 195, 116.202 195 C 115.972 195, 116.092 196.238, 116.470 197.750 C 117.981 203.807, 123.332 207, 131.973 207 L 138.046 207 136.326 209.750 C 135.379 211.262, 134.504 212.652, 134.381 212.838 C 134.258 213.024, 132.884 212.277, 131.329 211.178 C 129.773 210.079, 126.305 208.878, 123.622 208.509 C 120.939 208.141, 118.160 207.615, 117.445 207.341 C 114.918 206.371, 117.175 210.947, 120.790 214.120 C 124.181 217.098, 124.655 217.220, 130.924 216.733 C 134.541 216.452, 138.263 215.908, 139.196 215.525 C 140.718 214.899, 140.771 215.168, 139.716 218.164 C 139.069 219.999, 138.488 221.618, 138.424 221.763 C 138.360 221.908, 136.775 221.399, 134.904 220.633 C 130.327 218.760, 120 217.960, 120 219.479 C 120 221.188, 123.851 224.993, 126.661 226.061 C 130.099 227.368, 134.797 227.163, 139.462 225.501 C 141.641 224.725, 143.556 224.223, 143.719 224.385 C 143.881 224.548, 143.740 226.052, 143.404 227.728 C 142.816 230.668, 142.702 230.727, 140.147 229.394 C 138.659 228.617, 134.531 228.010, 130.715 228.006 C 124.180 228, 123.970 228.076, 125.029 230.054 C 128.412 236.375, 138.443 237.619, 145.954 232.649 C 150.915 229.366, 151.192 229.365, 149.950 232.632 C 149.399 234.080, 149.216 236.105, 149.542 237.132 C 150.233 239.311, 149.940 239.385, 146.625 237.875 C 145.025 237.146, 141.793 237.003, 137.442 237.469 L 130.727 238.188 133.648 241.110 C 135.518 242.980, 138.176 244.321, 141.035 244.837 L 145.500 245.643 142.197 246.412 C 138.337 247.312, 138.446 248.694, 142.553 250.910 C 144.174 251.784, 147.154 253.765, 149.175 255.312 C 159.099 262.904, 173.384 254.357, 171.704 241.833 C 171.109 237.396, 167.249 232.351, 165.663 233.937 C 165.044 234.556, 164.124 233.755, 163.093 231.701 C 162.135 229.789, 160.786 228.556, 159.744 228.639 C 158.652 228.726, 158 228.072, 158 226.889 C 158 225.850, 157.191 224.191, 156.203 223.203 C 155.214 222.214, 153.977 219.930, 153.453 218.127 C 152.929 216.325, 152.058 214.996, 151.517 215.175 C 150.562 215.491, 149.431 211.435, 148.328 203.744 C 148.031 201.678, 147.459 199.784, 147.056 199.535 C 146.274 199.051, 147.343 189.670, 148.513 186.750 C 149.009 185.512, 148.737 185, 147.581 185 C 146.079 185, 146.076 184.754, 147.547 181.910 C 148.426 180.210, 148.892 178.162, 148.584 177.357 C 148.275 176.553, 148.795 174.716, 149.740 173.274 C 151.011 171.335, 151.136 170.545, 150.222 170.241 C 149.339 169.946, 149.559 169.024, 150.993 167.010 C 153.416 163.608, 153.479 163, 151.411 163 C 150.176 163, 150.399 162.315, 152.411 159.923 C 153.835 158.231, 155 156.413, 155 155.883 C 155 155.353, 156.012 153.523, 157.250 151.816 C 158.866 149.587, 159.144 148.588, 158.238 148.269 C 157.420 147.982, 158.063 146.809, 160.064 144.940 C 163.343 141.877, 163.313 139.844, 160 140.710 C 158.573 141.083, 159.145 140.090, 162.001 137.234 C 167.308 131.927, 167.168 130.885, 161.250 131.660 L 156.500 132.282 158.716 129.863 C 161.299 127.043, 164.392 118.953, 163.269 117.953 C 162.846 117.575, 161.204 117.634, 159.619 118.082 M 264.194 119.617 C 263.397 121.041, 262.848 121.075, 259.590 119.896 C 256.415 118.748, 255.755 118.767, 254.935 120.029 C 254.410 120.838, 254.207 122.469, 254.485 123.654 C 254.889 125.376, 254.339 126.045, 251.745 126.989 C 248.546 128.153, 248.533 128.183, 250.847 129.089 C 252.138 129.594, 254.336 130.906, 255.732 132.004 C 259.072 134.631, 259.532 134.544, 261 131 C 261.683 129.350, 262.664 128, 263.178 128 C 263.692 128, 263.447 128.952, 262.632 130.115 C 261.817 131.278, 261.377 132.818, 261.653 133.537 C 261.929 134.257, 261.203 135.797, 260.041 136.959 C 257.357 139.643, 258.366 141.377, 262.171 140.616 C 263.976 140.255, 264.866 140.408, 264.491 141.015 C 264.156 141.557, 263.084 142, 262.108 142 C 258.910 142, 259.116 143.110, 262.957 146.580 C 267.414 150.607, 268.198 150.747, 269.513 147.750 C 270.180 146.229, 271.521 145.401, 273.650 145.194 C 276.552 144.912, 276.835 144.557, 277.240 140.694 C 277.766 135.660, 277.499 135.207, 274.943 136.803 C 273.339 137.805, 272.520 137.732, 270.496 136.406 C 267.733 134.595, 265 135.124, 265 137.469 C 265 138.311, 264.565 139, 264.032 139 C 263.451 139, 263.394 138.102, 263.890 136.750 C 264.886 134.035, 269.125 133.241, 270.941 135.428 C 272.409 137.198, 276 135.881, 276 133.572 C 276 132.069, 273.303 130.695, 271.970 131.519 C 271.503 131.807, 269.631 131.136, 267.810 130.026 C 265.990 128.916, 265.063 128.006, 265.750 128.004 C 266.583 128.001, 267 126.331, 267 123 C 267 117.972, 265.874 116.615, 264.194 119.617 M 144.744 140.557 C 144.220 143.298, 144.828 143.578, 147.326 141.750 C 148.922 140.581, 148.909 140.422, 147.123 139.307 C 145.459 138.269, 145.151 138.431, 144.744 140.557 M 140 147.974 C 140 151.474, 139.925 151.439, 143.500 149.585 L 146.228 148.169 143.114 146.559 L 140 144.949 140 147.974 M 270.667 146.667 C 270.300 147.033, 270 148.383, 270 149.667 C 270 150.950, 269.084 152.916, 267.964 154.036 C 265.715 156.285, 266.135 158, 268.934 158 C 270.141 158, 270.946 157.020, 271.334 155.080 C 272.065 151.426, 275.209 150.252, 278.497 152.406 C 281.267 154.221, 284.246 153.498, 283.777 151.124 C 283.573 150.089, 282.443 149.500, 280.662 149.500 C 279.043 149.500, 277.455 148.764, 276.884 147.750 C 275.920 146.035, 271.984 145.349, 270.667 146.667 M 136.379 156.125 C 137.300 159.575, 137.558 159.805, 139.028 158.474 C 139.924 157.663, 141.185 157, 141.829 157 C 144.199 157, 142.874 155.456, 139.169 153.901 L 135.358 152.302 136.379 156.125 M 272.975 154.565 C 272.439 155.976, 272 157.551, 272 158.065 C 272 158.579, 270.875 159, 269.500 159 C 268.125 159, 267 159.203, 267 159.452 C 267 159.700, 268.640 161.496, 270.644 163.443 L 274.288 166.982 276.584 164.504 C 278.416 162.528, 279.500 162.150, 281.940 162.638 C 284.893 163.229, 285 163.126, 285 159.707 C 285 157.758, 285.316 155.340, 285.702 154.334 C 286.381 152.564, 286.314 152.564, 283.607 154.338 C 280.870 156.131, 280.763 156.126, 278.591 154.085 C 275.655 151.327, 274.158 151.455, 272.975 154.565 M 161 155.893 C 161 156.384, 161.675 157.045, 162.500 157.362 C 163.713 157.827, 164 160.136, 164 169.422 C 164 176.196, 164.490 181.981, 165.195 183.528 C 168.727 191.280, 184.957 190.503, 188.025 182.434 C 188.561 181.024, 189 175.004, 189 169.057 C 189 158.975, 189.152 158.138, 191.250 156.674 C 193.414 155.165, 193.289 155.104, 188 155.075 C 182.505 155.045, 182.502 155.046, 184.840 156.845 C 187.095 158.579, 187.168 159.069, 186.840 170.221 C 186.442 183.768, 185.321 186, 178.916 186 C 172.588 186, 172 184.633, 172 169.929 C 172 159.103, 172.244 157, 173.500 157 C 174.325 157, 175 156.550, 175 156 C 175 155.429, 172 155, 168 155 C 164.150 155, 161 155.402, 161 155.893 M 198.345 156.829 C 199.716 158.343, 200 161.013, 200 172.361 C 200 185.637, 199.930 186.093, 197.750 186.969 C 196.247 187.573, 200.368 187.894, 210.156 187.937 L 224.812 188 225.509 182.936 C 226.355 176.781, 225.606 175.615, 223.713 180.142 C 221.618 185.155, 219.879 186.151, 213.831 185.805 L 208.500 185.500 208.214 172 C 207.943 159.223, 208.042 158.406, 210.074 156.750 C 212.161 155.049, 212.003 155, 204.456 155 C 196.996 155, 196.755 155.072, 198.345 156.829 M 231.296 156.342 C 232.847 157.590, 233.095 159.475, 233.113 170.144 C 233.143 187.389, 233.181 187, 231.500 187 C 230.675 187, 229.999 187.338, 229.998 187.750 C 229.997 188.162, 235.363 188.275, 241.922 188 C 252.808 187.544, 254.073 187.289, 256.424 185.076 C 258.190 183.414, 259 181.605, 259 179.326 C 259 175.811, 256.139 172, 253.500 172 C 251.285 172, 251.678 170.237, 254.061 169.481 C 258.835 167.965, 259.038 160.381, 254.386 157.333 C 250.831 155.004, 228.440 154.043, 231.296 156.342 M 241.667 157.667 C 241.300 158.033, 241 160.958, 241 164.167 C 241 169.722, 241.119 170, 243.500 170 C 246.523 170, 250 166.766, 250 163.955 C 250 160.221, 243.794 155.539, 241.667 157.667 M 133.393 163.582 C 133.727 164.452, 134 165.812, 134 166.605 C 134 167.795, 134.450 167.751, 136.584 166.353 L 139.168 164.660 136.834 163.365 C 133.689 161.621, 132.665 161.685, 133.393 163.582 M 277.632 165.115 C 276.817 166.278, 276.348 167.744, 276.589 168.372 C 276.830 169, 276.009 169.961, 274.764 170.507 C 272.073 171.687, 271.766 174.202, 274.269 174.569 C 275.366 174.730, 276.609 173.722, 277.544 171.914 C 279.330 168.461, 282.125 168.145, 284.866 171.086 C 286.491 172.831, 287.163 172.983, 288.969 172.016 C 290.700 171.090, 290.894 170.577, 289.942 169.430 C 289.289 168.644, 288.074 168, 287.242 168 C 286.410 168, 284.687 166.875, 283.412 165.500 C 280.585 162.450, 279.547 162.380, 277.632 165.115 M 279.200 171.200 C 278.540 171.860, 278 173.210, 278 174.200 C 278 175.579, 277.208 176, 274.615 176 L 271.230 176 274.475 179.542 C 277.489 182.833, 277.912 182.997, 280.434 181.848 C 282.604 180.859, 283.558 180.867, 285.192 181.888 C 287.681 183.442, 288.432 182.751, 290.351 177.141 L 291.841 172.782 288.769 173.396 C 286.383 173.873, 285.382 173.563, 284.291 172.005 C 282.695 169.727, 280.950 169.450, 279.200 171.200 M 241.412 173.369 C 241.123 174.122, 241.024 177.160, 241.193 180.119 C 241.491 185.349, 241.588 185.509, 244.654 185.806 C 248.217 186.152, 251 183.269, 251 179.232 C 251 174.555, 242.866 169.581, 241.412 173.369 M 346.535 177.107 C 346.254 177.873, 345.413 180.300, 344.667 182.500 L 343.309 186.500 336.905 187 L 330.500 187.500 335.250 190.920 C 339.973 194.320, 340.884 196.404, 339.138 199.816 C 338.664 200.742, 337.966 202.797, 337.586 204.381 L 336.896 207.262 341.950 203.631 C 344.730 201.634, 347.228 200, 347.500 200 C 347.772 200, 350.246 201.617, 352.998 203.594 C 355.749 205.570, 358 206.991, 358 206.750 C 358 206.510, 357.130 203.784, 356.066 200.693 L 354.133 195.073 359.304 191.286 L 364.475 187.500 357.988 187 L 351.500 186.500 349.927 181.760 C 348.120 176.315, 347.260 175.135, 346.535 177.107 M 61.603 180.107 C 61.358 180.873, 60.525 183.525, 59.751 186 L 58.344 190.500 52.046 191 L 45.748 191.500 50.374 194.812 C 55.510 198.489, 55.643 198.926, 53.489 205.030 C 52.658 207.385, 52.188 209.521, 52.443 209.776 C 52.699 210.032, 54.817 208.837, 57.151 207.120 C 59.485 205.404, 61.787 204, 62.267 204 C 62.747 204, 65.165 205.393, 67.640 207.096 C 70.115 208.799, 72.340 209.993, 72.583 209.750 C 72.827 209.506, 72.345 207.677, 71.513 205.686 C 69.168 200.073, 69.590 198.310, 74.052 195.078 C 76.280 193.463, 78.079 191.821, 78.049 191.429 C 78.020 191.036, 75.453 190.667, 72.347 190.608 L 66.698 190.500 64.856 185.090 C 62.764 178.949, 62.232 178.134, 61.603 180.107 M 129.637 181.693 C 130.604 183.237, 131.493 184.650, 131.614 184.833 C 131.735 185.017, 132.808 184.192, 134 183 C 136.560 180.440, 136.573 180.459, 131.690 179.576 L 127.880 178.887 129.637 181.693 M 280.278 183.250 C 279.746 183.938, 279.043 185.253, 278.716 186.172 C 278.390 187.092, 277.082 187.992, 275.811 188.172 C 274.540 188.353, 273.500 189.169, 273.500 189.986 C 273.500 192.339, 277.024 192.410, 278.649 190.091 C 280.729 187.122, 284.753 187.364, 286.203 190.546 C 286.994 192.283, 288.020 192.998, 289.431 192.796 C 292.114 192.412, 292.098 189.763, 289.405 188.580 C 288.253 188.073, 286.829 186.386, 286.242 184.830 C 285.108 181.825, 282.014 181.006, 280.278 183.250 M 129.051 190.750 C 131.451 193.737, 131.539 193.760, 133.444 191.927 C 135.804 189.656, 135.575 189.379, 130.551 188.441 L 126.602 187.703 129.051 190.750 M 279.303 191.559 C 277.672 193.798, 277.099 193.988, 274.720 193.083 C 271.738 191.950, 271.509 192.174, 273 194.764 C 273.549 195.719, 274.466 197.811, 275.037 199.413 C 275.825 201.627, 276.353 202.047, 277.237 201.163 C 278.968 199.432, 283.086 199.757, 284.675 201.750 C 285.999 203.410, 286.133 203.403, 287.285 201.616 C 287.953 200.580, 289.553 198.442, 290.839 196.866 L 293.178 194 289.749 194 C 287.063 194, 286.075 193.459, 285.182 191.500 C 283.725 188.302, 281.661 188.322, 279.303 191.559 M 181.120 201.921 C 178.352 203.366, 178.052 203.806, 179.466 204.349 C 180.970 204.926, 181.148 206.242, 180.846 214.551 L 180.500 224.091 183.385 223.795 L 186.270 223.500 186.078 212.500 C 185.973 206.450, 185.575 201.197, 185.193 200.828 C 184.812 200.458, 182.979 200.950, 181.120 201.921 M 195.455 202.455 C 190.691 207.219, 193.094 215, 199.329 215 C 200.798 215, 202 215.255, 202 215.566 C 202 217.242, 199.488 220.353, 196.686 222.146 L 193.500 224.185 196.439 223.526 C 206.473 221.276, 211.482 209.328, 205.077 202.923 C 201.509 199.356, 198.691 199.218, 195.455 202.455 M 214.229 200.669 C 213.530 200.951, 212.264 202.523, 211.416 204.163 C 208.613 209.584, 211.371 215, 216.934 215 C 220.855 215, 218.755 219.465, 213.500 222.301 C 209.829 224.282, 211.845 224.520, 216.282 222.629 C 221.720 220.312, 224.279 216.686, 224.785 210.580 C 225.185 205.757, 224.946 204.855, 222.663 202.572 C 220.257 200.166, 217.196 199.476, 214.229 200.669 M 230.635 202.073 C 227.459 204.571, 227.275 207.275, 230.091 210.091 L 232.182 212.182 230.091 214.130 C 223.661 220.121, 233.331 227.460, 240.365 221.927 C 243.478 219.479, 243.745 216.217, 241.106 212.862 C 239.265 210.521, 239.263 210.393, 241.056 208.179 C 245.699 202.445, 236.795 197.227, 230.635 202.073 M 234.122 202.278 C 232.515 203.885, 232.733 205.448, 234.829 207.345 C 237.457 209.724, 238 209.426, 238 205.607 C 238 202.021, 236.052 200.348, 234.122 202.278 M 277.500 203 C 276.505 204.100, 274.661 205, 273.404 205 C 270.411 205, 269.375 206.803, 271.276 208.704 C 272.625 210.054, 273.101 209.985, 275.699 208.065 C 279.313 205.392, 281.728 206.169, 282.812 210.355 C 283.633 213.524, 286.378 215.022, 288.139 213.261 C 289.379 212.021, 288.141 209, 286.393 209 C 285.534 209, 285 207.927, 285 206.200 C 285 201.086, 280.839 199.310, 277.500 203 M 198 205.918 C 198 211.199, 198.825 213, 201.243 213 C 203.078 213, 203.212 212.562, 202.644 208.417 C 201.907 203.040, 201.388 202, 199.441 202 C 198.432 202, 198 203.173, 198 205.918 M 215.667 202.667 C 214.646 203.688, 214.874 208.896, 216.035 211.066 C 217.866 214.487, 220 213.420, 220 209.082 C 220 206.927, 219.727 204.452, 219.393 203.582 C 218.769 201.956, 216.849 201.485, 215.667 202.667 M 275.240 209.545 C 273.587 210.702, 272.546 210.827, 271.083 210.045 C 267.954 208.370, 266.773 208.707, 267.965 210.934 C 268.534 211.998, 269 214.521, 269 216.541 C 269 219.409, 269.329 220.081, 270.500 219.607 C 275.039 217.770, 275.361 217.784, 273.041 219.712 C 271.178 221.261, 270.181 221.506, 268.924 220.720 C 266.681 219.320, 263.766 220.574, 264.211 222.747 C 264.501 224.162, 265.448 224.445, 269.134 224.216 C 274.385 223.889, 276.506 225.571, 275.760 229.473 C 275.413 231.292, 275.907 232.364, 277.608 233.479 C 279.756 234.886, 280.013 234.844, 281.045 232.917 C 281.922 231.277, 281.822 230.461, 280.572 229.080 C 279.463 227.854, 279.178 226.362, 279.624 224.128 C 279.976 222.369, 280.492 221.159, 280.771 221.437 C 281.049 221.716, 282.600 220.832, 284.216 219.472 C 285.831 218.112, 287.595 217, 288.136 217 C 288.676 217, 288.840 216.550, 288.500 216 C 288.160 215.450, 286.559 215, 284.941 215 C 282.708 215, 282 214.538, 282 213.082 C 282 208.017, 279.379 206.646, 275.240 209.545 M 232.607 215.582 C 231.159 219.355, 233.402 223.551, 236.276 222.447 C 238.540 221.579, 238.481 217.745, 236.171 215.655 C 233.900 213.599, 233.372 213.588, 232.607 215.582 M 276 218.383 C 276 218.594, 276.901 219.002, 278.001 219.290 C 279.102 219.578, 279.751 219.405, 279.442 218.907 C 278.904 218.036, 276 217.594, 276 218.383 M 260.420 225.310 C 260.456 227.064, 260.143 229.738, 259.724 231.250 C 259.069 233.614, 259.254 234, 261.047 234 C 264.474 234, 267 235.900, 267 238.476 C 267 241.848, 268.147 242.197, 271.845 239.948 C 273.607 238.877, 276.162 238, 277.524 238 C 280.901 238, 280.636 236.381, 276.949 234.474 C 274.633 233.276, 274.047 232.427, 274.517 230.948 C 276.065 226.070, 272.566 223.556, 267.788 226.114 C 266.123 227.005, 265.527 226.907, 264.811 225.626 C 264.318 224.745, 263.113 223.596, 262.135 223.072 C 260.597 222.249, 260.364 222.553, 260.420 225.310 M 252 234.987 C 249.272 236.726, 252.125 239.525, 256.263 239.169 C 260.614 238.794, 262.182 240.879, 260.903 245.338 C 260.343 247.290, 260.427 248.810, 261.143 249.672 C 263.757 252.822, 266.938 249.620, 264.927 245.864 C 264.159 244.429, 264.182 243.486, 265.007 242.491 C 267.993 238.893, 263.791 233.401, 259.908 235.826 C 258.137 236.931, 257.537 236.891, 256.075 235.568 C 254.056 233.741, 253.973 233.729, 252 234.987 M 247.882 235.559 C 247.816 236.076, 247.832 236.886, 247.917 237.357 C 248.002 237.828, 247.155 239.767, 246.036 241.664 C 243.306 246.291, 243.438 250.124, 246.424 252.929 C 248.694 255.062, 249.316 255.152, 256.174 254.352 L 263.500 253.496 260.792 251.104 C 258.681 249.240, 258.295 248.317, 259.042 246.922 C 261.562 242.212, 259.428 239.564, 253.989 240.652 C 251.837 241.083, 250.991 240.865, 250.968 239.875 C 250.930 238.231, 248.052 234.206, 247.882 235.559 M 153.961 240.547 C 153.233 241.424, 151.256 242.721, 149.568 243.429 L 146.500 244.715 151.676 245.107 L 156.852 245.500 156.282 242.500 C 155.555 238.667, 155.535 238.651, 153.961 240.547 M 322.607 242.582 C 321.593 245.225, 321.752 245.385, 329.492 249.508 C 335.288 252.597, 336.985 253.993, 336.992 255.679 C 336.999 257.684, 334.671 261, 333.254 261 C 332.923 261, 329.148 259.196, 324.865 256.991 C 317.185 253.037, 317.064 253.011, 315.959 255.077 C 315.342 256.229, 314.987 257.312, 315.169 257.485 C 315.351 257.657, 319.259 259.715, 323.852 262.056 C 333.455 266.952, 335.867 266.805, 339.719 261.089 C 344.317 254.266, 342.621 251.127, 330.838 244.658 C 323.161 240.443, 323.404 240.505, 322.607 242.582 M 160.793 246.384 L 158.086 249.786 161.293 250.274 C 163.057 250.543, 164.565 250.704, 164.645 250.631 C 164.724 250.559, 164.499 248.808, 164.145 246.741 L 163.500 242.982 160.793 246.384 M 84.250 261.114 C 79.713 264.431, 76 267.514, 76 267.963 C 76 268.412, 78.065 271.586, 80.590 275.015 C 84.738 280.649, 85.329 281.100, 86.731 279.697 C 88.134 278.295, 87.981 277.764, 85.142 274.179 C 83.414 271.997, 82.003 269.827, 82.007 269.356 C 82.011 268.885, 83.669 267.375, 85.693 266 C 96.159 258.889, 97.187 257.931, 95.951 256.441 C 94.116 254.230, 93.119 254.629, 84.250 261.114 M 193.667 255.667 C 193.300 256.033, 193 257.322, 193 258.529 C 193 260.642, 192.541 260.744, 180.975 261.221 C 174.362 261.493, 168.662 262.005, 168.309 262.358 C 166.698 263.969, 169.820 264.224, 180.978 263.394 L 193.001 262.500 193 266.250 C 193 268.917, 193.433 270, 194.500 270 C 195.700 270, 196 268.500, 196 262.500 C 196 255.603, 195.422 253.911, 193.667 255.667 M 198.208 262.750 C 198.370 267.055, 198.944 270.500, 199.500 270.500 C 200.056 270.500, 200.630 267.055, 200.792 262.750 C 201.038 256.222, 200.834 255, 199.500 255 C 198.166 255, 197.962 256.222, 198.208 262.750 M 203 262.500 C 203 266.833, 203.422 270, 204 270 C 204.578 270, 205 266.833, 205 262.500 C 205 258.167, 204.578 255, 204 255 C 203.422 255, 203 258.167, 203 262.500 M 207 262.500 C 207 268.500, 207.300 270, 208.500 270 C 209.700 270, 210 268.500, 210 262.500 C 210 256.500, 209.700 255, 208.500 255 C 207.300 255, 207 256.500, 207 262.500 M 212.818 259.107 C 212.312 264.418, 212.974 270, 214.109 270 C 214.599 270, 215 268.594, 215 266.875 C 215 264.001, 215.221 263.794, 217.750 264.292 C 231.237 266.953, 239.788 267.455, 237.803 265.470 C 236.905 264.572, 225.791 263.012, 220.250 263.006 L 215 263 215 259 C 215 253.750, 213.321 253.832, 212.818 259.107 M 305.158 269.821 C 299.819 275.844, 299.208 276.928, 300.533 278.027 C 301.796 279.076, 302.478 278.900, 304.497 277.002 L 306.936 274.711 313.548 280.356 C 317.185 283.460, 320.813 286, 321.611 286 C 323.736 286, 324.590 282.906, 322.825 281.605 C 322 280.997, 318.767 278.289, 315.642 275.586 L 309.959 270.672 312.173 268.316 C 314.166 266.195, 314.233 265.805, 312.849 264.420 C 311.464 263.036, 310.695 263.576, 305.158 269.821 M 102.500 281.844 C 97.550 283.925, 92.651 285.947, 91.614 286.335 C 89.826 287.005, 89.817 287.141, 91.446 288.940 C 92.858 290.501, 93.673 290.661, 96.026 289.841 C 98.592 288.947, 99.193 289.184, 101.827 292.132 C 104.288 294.887, 104.598 295.788, 103.736 297.681 C 102.734 299.880, 104.049 303, 105.979 303 C 106.854 303, 116 283.557, 116 281.695 C 116 280.122, 113.992 277.989, 112.550 278.029 C 111.972 278.045, 107.450 279.762, 102.500 281.844 M 105.664 285.617 C 102.943 287.092, 102.899 287.231, 104.569 289.077 C 106.776 291.515, 106.667 291.544, 108.474 288.050 C 110.872 283.413, 110.433 283.033, 105.664 285.617 M 286.789 287.750 C 285.415 289.331, 285.594 290.556, 288.642 300.425 C 290.498 306.433, 292.218 311.552, 292.465 311.798 C 292.712 312.045, 293.657 311.962, 294.566 311.613 C 295.825 311.130, 296.074 310.208, 295.611 307.738 C 295.076 304.891, 295.433 304.155, 298.551 301.667 C 301.870 299.019, 302.251 298.934, 304.432 300.364 C 306.365 301.630, 307.069 301.670, 308.535 300.598 C 309.509 299.886, 310.016 298.835, 309.662 298.263 C 309.075 297.312, 289.788 286, 288.755 286 C 288.510 286, 287.625 286.788, 286.789 287.750 M 120.621 300.570 C 117.387 305.797, 114.919 310.252, 115.135 310.468 C 116.974 312.308, 127.833 318, 129.503 318 C 132.955 318, 136.291 314.205, 135.651 311.006 C 135.214 308.818, 135.575 308.059, 137.466 307.198 C 140.384 305.868, 141.474 302.755, 139.992 299.985 C 138.923 297.987, 128.966 290.965, 127.298 291.032 C 126.859 291.050, 123.854 295.342, 120.621 300.570 M 291 293.453 C 291 293.936, 293.207 299.221, 293.696 299.911 C 293.857 300.136, 294.898 299.498, 296.010 298.491 C 298.029 296.664, 298.027 296.658, 295.266 294.837 C 292.560 293.053, 291 292.547, 291 293.453 M 127.607 298.582 C 126.614 301.171, 126.845 301.556, 130.422 303.261 C 133.523 304.740, 133.965 304.747, 135.142 303.328 C 136.246 301.999, 135.994 301.406, 133.471 299.387 C 129.996 296.607, 128.446 296.394, 127.607 298.582 M 262.750 303.064 C 259.587 304.696, 257 306.324, 257 306.680 C 257 307.539, 266.017 325.266, 266.994 326.328 C 267.847 327.255, 278.808 321.537, 280.750 319.153 C 283.454 315.833, 281.045 309, 277.171 309 C 276.527 309, 276 307.676, 276 306.057 C 276 303.001, 272.973 299.955, 270.027 300.048 C 269.187 300.075, 265.913 301.432, 262.750 303.064 M 122.175 307.092 C 121.052 308.889, 121.124 309.381, 122.684 310.585 C 126.547 313.565, 131 313.527, 131 310.514 C 131 308.994, 126.368 305, 124.606 305 C 123.987 305, 122.893 305.941, 122.175 307.092 M 148.073 312.968 C 146.383 317.350, 145 321.655, 145 322.533 C 145 327.071, 150.288 331, 156.394 331 C 160.661 331, 161.925 329.390, 165.624 319.250 C 167.894 313.026, 168.103 311.678, 166.916 310.928 C 164.539 309.425, 163.804 310.310, 160.733 318.376 C 159.106 322.651, 157.121 326.400, 156.323 326.706 C 155.525 327.012, 153.727 326.741, 152.327 326.103 C 149.331 324.738, 149.434 322.980, 153.086 313.195 C 155.111 307.767, 155.234 306.760, 153.969 305.960 C 153.161 305.449, 152.195 305.024, 151.823 305.015 C 151.450 305.007, 149.763 308.585, 148.073 312.968 M 265.250 306.201 C 262.631 307.487, 262.528 307.972, 264.345 310.457 C 265.649 312.241, 265.785 312.240, 268.873 310.416 C 274.256 307.236, 270.958 303.400, 265.250 306.201 M 244.011 311.750 C 244.017 312.712, 244.693 315.712, 245.513 318.415 C 246.333 321.118, 246.783 323.551, 246.513 323.820 C 246.243 324.090, 243.569 321.991, 240.571 319.156 C 236.928 315.710, 234.270 314, 232.560 314 C 231.152 314, 230 314.338, 230 314.752 C 230 315.869, 235.871 336.204, 236.324 336.658 C 237.064 337.397, 240 335.783, 239.989 334.643 C 239.983 334.014, 239.307 331.288, 238.487 328.585 C 237.667 325.882, 237.233 323.433, 237.523 323.144 C 237.813 322.854, 240.415 324.953, 243.306 327.809 C 248.206 332.648, 252.074 334.307, 253.411 332.144 C 253.702 331.673, 252.604 326.611, 250.970 320.896 C 249.337 315.180, 248 310.391, 248 310.252 C 248 310.113, 247.100 310, 246 310 C 244.758 310, 244.004 310.663, 244.011 311.750 M 269.779 314.537 C 267.347 315.875, 267.178 316.297, 268.190 318.517 C 269.554 321.511, 269.639 321.518, 273.818 318.970 C 279.764 315.344, 275.940 311.147, 269.779 314.537 M 176.533 315.250 C 176.020 316.839, 174 332.711, 174 335.159 C 174 336.456, 174.739 337, 176.500 337 C 178.651 337, 179.002 336.546, 179.015 333.750 C 179.038 328.935, 180.153 327.816, 184.562 328.181 L 188.420 328.500 188.131 333.830 C 187.857 338.905, 187.955 339.144, 190.172 338.830 C 192.309 338.527, 192.596 337.760, 193.664 329.500 C 195.397 316.099, 195.389 316, 192.560 316 C 190.463 316, 190.077 316.526, 189.810 319.750 C 189.502 323.477, 189.473 323.500, 185.033 323.500 L 180.567 323.500 180.859 318.750 C 181.121 314.494, 180.932 314, 179.044 314 C 177.885 314, 176.755 314.563, 176.533 315.250 M 206.534 327.322 C 204.590 333.549, 203 338.949, 203 339.322 C 203 339.695, 204.026 340, 205.281 340 C 206.897 340, 207.892 339.125, 208.694 337 C 209.717 334.289, 210.253 334, 214.253 334 C 218.004 334, 218.853 334.381, 219.818 336.500 C 220.871 338.811, 223.834 339.832, 225.283 338.383 C 225.622 338.044, 223.444 332.869, 220.442 326.883 C 215.722 317.472, 214.651 316, 212.526 316 C 210.269 316, 209.781 316.923, 206.534 327.322 M 211.986 324.250 C 211.979 324.938, 211.701 326.512, 211.370 327.750 C 210.857 329.664, 211.158 330, 213.383 330 C 216.441 330, 216.485 329.838, 214.474 325.950 C 212.845 322.799, 212.008 322.227, 211.986 324.250" stroke="none" fill="#12118a" fill-rule="evenodd"/></svg>